<?xml version="1.0" encoding="utf-8"?>
<!-- Generator: Adobe Illustrator 27.3.1, SVG Export Plug-In . SVG Version: 6.00 Build 0)  -->
<svg version="1.1" id="Layer_1" xmlns="http://www.w3.org/2000/svg" xmlns:xlink="http://www.w3.org/1999/xlink" x="0px" y="0px"
	 viewBox="0 0 60 60" style="enable-background:new 0 0 60 60;" xml:space="preserve">
<style type="text/css">
	.st0{fill-rule:evenodd;clip-rule:evenodd;fill:#0000FF;}
	.st1{fill:url(#SVGID_1_);}
	.st2{fill:url(#SVGID_00000173142556101016959430000001638671097388074642_);}
	.st3{fill:#0000FF;}
	.st4{fill:#FFFFFF;}
</style>
<path class="st0" d="M26.5,10.5c-10,0-18.2,8.1-18.2,18.2s8.1,18.2,18.2,18.2s18.2-8.1,18.2-18.2S36.5,10.5,26.5,10.5z"/>
<linearGradient id="SVGID_1_" gradientUnits="userSpaceOnUse" x1="13.3564" y1="51.0815" x2="13.3564" y2="13.0418" gradientTransform="matrix(1 0 0 -1 0 59.8898)">
	<stop  offset="0" style="stop-color:#FF8B20"/>
	<stop  offset="1" style="stop-color:#FDB572"/>
</linearGradient>
<path class="st1" d="M16.3,11.1c0.5-0.4,0.6-1.2,0.2-1.8c-0.4-0.5-1.2-0.6-1.8-0.2l-4.2,3.4c-0.5,0.4-0.6,1.2-0.2,1.8
	c0.4,0.5,1.2,0.6,1.8,0.2L16.3,11.1z"/>
<linearGradient id="SVGID_00000080925533060419206040000001512947745029356166_" gradientUnits="userSpaceOnUse" x1="39.5615" y1="51.0815" x2="39.5615" y2="13.0418" gradientTransform="matrix(1 0 0 -1 0 59.8898)">
	<stop  offset="0" style="stop-color:#FF8B20"/>
	<stop  offset="1" style="stop-color:#FDB572"/>
</linearGradient>
<path style="fill:url(#SVGID_00000080925533060419206040000001512947745029356166_);" d="M38.2,9.1c-0.5-0.4-1.3-0.3-1.8,0.2
	c-0.4,0.5-0.3,1.3,0.2,1.8l4.2,3.4c0.5,0.4,1.3,0.3,1.8-0.2c0.4-0.5,0.3-1.3-0.2-1.8L38.2,9.1z"/>
<path class="st3" d="M16.3,11.1c0.5-0.4,0.6-1.2,0.2-1.8c-0.4-0.5-1.2-0.6-1.8-0.2l-4.2,3.4c-0.5,0.4-0.6,1.2-0.2,1.8
	c0.4,0.5,1.2,0.6,1.8,0.2L16.3,11.1z"/>
<path class="st3" d="M38.2,9.1c-0.5-0.4-1.3-0.3-1.8,0.2c-0.4,0.5-0.3,1.3,0.2,1.8l4.2,3.4c0.5,0.4,1.3,0.3,1.8-0.2
	c0.4-0.5,0.3-1.3-0.2-1.8L38.2,9.1z"/>
<path class="st4" d="M17.8,34.8c-0.5,0-0.9-0.1-1.2-0.4c-0.2-0.3-0.3-0.6-0.3-1.1c0-0.3,0.1-0.6,0.2-0.9c0.2-0.3,0.4-0.5,0.6-0.8
	l3.2-3.3c0.5-0.5,0.8-0.9,1-1.3c0.2-0.4,0.3-0.7,0.3-1.1c0-0.5-0.2-0.8-0.5-1c-0.3-0.2-0.7-0.3-1.3-0.3c-0.3,0-0.6,0-0.9,0.1
	c-0.3,0.1-0.7,0.2-1,0.4c-0.3,0.1-0.6,0.2-0.9,0.1c-0.3-0.1-0.5-0.2-0.7-0.4c-0.2-0.2-0.3-0.4-0.3-0.7c0-0.3,0-0.5,0.1-0.8
	c0.1-0.3,0.3-0.5,0.7-0.6c0.6-0.3,1.1-0.5,1.7-0.6c0.6-0.1,1.2-0.2,1.8-0.2c1,0,1.8,0.1,2.5,0.4c0.7,0.3,1.2,0.7,1.5,1.3
	c0.3,0.5,0.5,1.2,0.5,2c0,0.5-0.1,1-0.2,1.5c-0.1,0.5-0.4,1-0.7,1.4c-0.3,0.5-0.8,1-1.3,1.5L19.6,33v-0.8h4.5c0.4,0,0.8,0.1,1,0.3
	c0.2,0.2,0.4,0.6,0.4,1c0,0.4-0.1,0.8-0.4,1c-0.2,0.2-0.6,0.3-1,0.3H17.8z"/>
<path class="st4" d="M32.6,35c-0.5,0-0.9-0.1-1.2-0.4c-0.3-0.3-0.4-0.7-0.4-1.2v-0.6h-3.6c-0.5,0-0.9-0.1-1.2-0.4
	c-0.3-0.2-0.4-0.6-0.4-1.1c0-0.3,0.1-0.6,0.2-0.8c0.1-0.3,0.3-0.6,0.6-1l4.4-6.4c0.2-0.4,0.5-0.6,0.8-0.8s0.7-0.3,1.1-0.3
	c0.5,0,0.8,0.1,1.1,0.4c0.3,0.3,0.4,0.7,0.4,1.2v6.6h0.4c0.5,0,0.8,0.1,1,0.3c0.2,0.2,0.4,0.5,0.4,0.9c0,0.4-0.1,0.7-0.4,0.9
	c-0.2,0.2-0.6,0.3-1,0.3h-0.4v0.6c0,0.5-0.1,0.9-0.4,1.2C33.5,34.9,33.1,35,32.6,35z M31,30.2V26h0.5l-3.4,5v-0.8H31z"/>
</svg>
