<?xml version="1.0" encoding="utf-8"?>
<!-- Generator: Adobe Illustrator 27.3.1, SVG Export Plug-In . SVG Version: 6.00 Build 0)  -->
<svg version="1.1" id="Layer_1" xmlns="http://www.w3.org/2000/svg" xmlns:xlink="http://www.w3.org/1999/xlink" x="0px" y="0px"
	 viewBox="0 0 319.3 334.7" style="enable-background:new 0 0 319.3 334.7;" xml:space="preserve">
<style type="text/css">
	.st0{fill:#0000FF;}
	.st1{fill:#FFFFFF;}
</style>
<circle class="st0" cx="159.7" cy="167.3" r="141.3"/>
<g>
	<path class="st1" d="M67.3,173.1c0-3.9,0-7.7,0-11.6c0.1-0.5,0.2-1,0.3-1.6c0.6-4.2,1-8.5,1.9-12.6c7.4-35.9,38-65.1,74.1-71
		c3.4-0.6,6.9-1,10.3-1.4c3.9,0,7.7,0,11.6,0c2.6,0.3,5.2,0.6,7.8,1c20.3,3,37.9,11.7,52.1,26.5c23,23.9,31.1,52.4,24.5,84.8
		c-8.4,41.2-46.2,72-88.2,72.5c-19.2,0.2-37-4.6-53-15.3c-21.8-14.7-35.2-35-40-61C68.1,180,67.8,176.5,67.3,173.1z M219.3,167.4
		c-0.4,16.9-6.4,31.5-18.6,43.2c-12.3,11.7-27,17.2-44,16.5c-30.4-1.3-55-25.6-56.9-56.5c-0.9-14.8,3.3-28.2,12.4-39.9
		c12-15.3,27.9-22.9,47.3-23.5c0-3.6,0-7.1,0-10.6c-25.1-0.4-52.9,14.6-65.1,43.3c-11.8,27.9-4.3,60.6,18.3,80.1
		c23.9,20.7,56.4,23.8,82.9,7.8c13.1-7.9,22.7-19,28.7-33.1c3.8-8.8,5.6-17.9,5.6-27.5C226.4,167.4,222.9,167.4,219.3,167.4z
		 M176.4,138.1c-0.3,0.7-0.6,1.3-0.9,1.9c-6,14-12,27.9-17.9,41.9c-0.6,1.4-1.3,1.7-2.7,1.7c-4.7-0.1-9.4,0-14.1,0
		c-0.5,0-1-0.1-1.5-0.1c-0.1-0.1-0.2-0.3-0.3-0.4c1.2-1.2,2.4-2.5,3.8-3.4c2.2-1.6,4.6-3,6.9-4.6c5.6-3.7,8.9-8.9,9.7-15.7
		c0.8-7-2.2-13.7-8.2-17c-5.9-3.3-13-2.7-18.2,1.6c-5.7,4.7-6.5,11-5.8,17.9c3.5,0,7.1,0,10.7,0c0-1.8,0-3.5,0-5.1
		c0.1-3.2,2.4-5.6,5.4-5.6c3.1,0,5.4,2.5,5.4,5.8c0,3.5-1.2,6.5-4.2,8.5c-2.2,1.5-4.5,3-6.8,4.4c-9.2,5.7-11.6,14.3-10.5,24.4
		c10.7,0,21.4,0,32.4,0c0-3.6,0-7.1,0-10.6c7.3,0,14.3,0,21.6,0c0,3.6,0,7.1,0,10.6c3.7,0,7.2,0,10.7,0c0-10.8,0-21.5,0-32.2
		c-3.6,0-7.1,0-10.8,0c0,3.6,0,7.1,0,10.6c-2.7,0-5.2,0-7.9,0c4.3-10.2,8.6-20.2,13-30.3C182.9,140.9,179.7,139.5,176.4,138.1z
		 M212.1,138.5c3.1-2.1,6-4,9-6.1c-2.1-3.1-4-6-6.1-9c-3.1,2.1-6,4-9,6.1C208.1,132.6,210.1,135.4,212.1,138.5z M205.4,113.5
		c-2.9-2.1-5.8-4.2-8.8-6.4c-2.1,3-4.2,5.8-6.4,8.8c3,2.1,5.8,4.2,8.8,6.4C201.3,119.3,203.3,116.5,205.4,113.5z M170.9,108.5
		c3.6,1,6.9,2,10.4,3c1-3.5,2-6.9,3-10.4c-3.5-1-6.9-2-10.4-3C172.9,101.7,171.9,105,170.9,108.5z M229.3,155.5
		c-0.9-3.6-1.7-6.9-2.6-10.5c-3.5,0.9-6.9,1.7-10.5,2.6c0.9,3.6,1.7,6.9,2.6,10.5C222.3,157.3,225.7,156.4,229.3,155.5z"/>
</g>
</svg>
