<?xml version="1.0" encoding="utf-8"?>
<!-- Generator: Adobe Illustrator 27.3.1, SVG Export Plug-In . SVG Version: 6.00 Build 0)  -->
<svg version="1.1" id="Layer_1" xmlns="http://www.w3.org/2000/svg" xmlns:xlink="http://www.w3.org/1999/xlink" x="0px" y="0px"
	 viewBox="0 0 319.3 334.7" style="enable-background:new 0 0 319.3 334.7;" xml:space="preserve">
<style type="text/css">
	.st0{fill:#0000FF;}
	.st1{fill:#FFFFFF;}
</style>
<circle class="st0" cx="159.7" cy="167.3" r="141.3"/>
<g>
	<path class="st1" d="M301.4,158.7c-0.7-5.1-1.2-10.2-2.1-15.3c-8-43.2-30.9-76.3-68.7-98.3c-49.1-28.6-108.9-25.2-154.7,8.8
		C43.4,78,24,110.5,19.7,150.9c-5.7,53.3,13.4,96.8,55.5,129.8c21.5,16.8,46.3,25.7,73.5,27.9c0.8,0.1,1.6,0.3,2.4,0.5
		c-44.4,0-88.8,0-133.2,0c0-94.5,0-188.9,0-283.5c94.5,0,189,0,283.5,0C301.4,69.9,301.4,114.3,301.4,158.7z"/>
	<path class="st1" d="M168.8,309c5.2-0.7,10.4-1.2,15.5-2.2c42.1-7.9,74.3-30.2,96.8-66.4c11.7-18.9,18.2-39.7,19.8-61.9
		c0.1-0.7,0.3-1.4,0.5-2.1c0,44.2,0,88.4,0,132.7C257.2,309,213,309,168.8,309z"/>
	<path class="st1" d="M161.4,278.3c-34.4-0.8-62.1-13.2-84.4-37.6c-4.8-5.2-6-10.7-4-17.5c5.5-18.5,15.5-33.8,30.5-45.9
		c5.5-4.4,11.6-4.8,17.3-0.6c22.6,16.6,56,16.4,78.4,0c5.6-4.1,11.8-3.8,17.3,0.6c15.7,12.7,26,28.8,31,48.4
		c1.2,4.8,0.4,9.2-2.8,12.9C226.3,260,203.1,273,175.1,277C170.1,277.7,165,277.9,161.4,278.3z"/>
	<path class="st1" d="M109.2,120c-0.2-27.6,22.5-50.7,50.1-50.9c28.2-0.2,51.2,22.3,51.4,50.1c0.2,28.3-22.4,51.3-50.7,51.5
		C132.3,171,109.3,148.1,109.2,120z"/>
</g>
</svg>
