<?xml version="1.0" encoding="utf-8"?>
<!-- Generator: Adobe Illustrator 27.3.1, SVG Export Plug-In . SVG Version: 6.00 Build 0)  -->
<svg version="1.1" id="Layer_1" xmlns="http://www.w3.org/2000/svg" xmlns:xlink="http://www.w3.org/1999/xlink" x="0px" y="0px"
	 viewBox="0 0 319.3 334.7" style="enable-background:new 0 0 319.3 334.7;" xml:space="preserve">
<style type="text/css">
	.st0{fill:#0000FF;}
	.st1{fill:#FFFFFF;}
</style>
<g>
	<circle class="st0" cx="159.7" cy="167.3" r="141.3"/>
	<g>
		<path class="st1" d="M227.3,138.3c0,9.3,0,18.7,0,28c-0.1,0.1-0.2,0.2-0.2,0.3c-1.5,5.9-5.4,8.9-11.4,8.9c-14.3,0-28.5,0-42.8,0
			c-0.5,0-1,0-1.5,0c-0.7-7.3-6.4-11.1-11.5-11.2c-6.2-0.1-10.6,3.9-12,11.1c-0.3,0-0.6,0.1-0.9,0.1c-14.7,0-29.4,0-44.1,0
			c-6.2,0-10.9-4.8-10.9-11c0-8.1,0-16.2,0-24.3c0-1.1,0.2-2.2,0.5-3.2c1.4-4.7,5.7-7.8,11-7.8c8.1,0,16.2,0,24.3,0
			c1,0,1.3-0.3,1.5-1.2c2.1-9.3,10.3-15.9,19.8-16c7,0,14,0,21,0c9.5,0.1,17.7,6.6,19.8,15.9c0.3,1.1,0.7,1.3,1.7,1.3
			c8,0,16-0.1,24,0c4.8,0,8.5,2.1,10.6,6.5C226.7,136.4,227,137.4,227.3,138.3z M179.6,129c0-0.1,0.1-0.2,0.1-0.3
			c-0.1-0.2-0.1-0.4-0.2-0.6c-1.9-4-5.1-6.1-9.5-6.2c-6.9-0.1-13.7,0-20.6,0c-0.8,0-1.6,0.1-2.4,0.3c-3.8,0.8-7,4.3-7.3,6.8
			C153,129,166.3,129,179.6,129z"/>
		<path class="st1" d="M94.8,181.7c3.8,1.9,7.6,1.9,11.3,1.9c13.6,0,27.3,0,40.9,0c1,0,1.5,0.2,1.9,1.2c1.8,4.4,6.1,7.2,10.8,7.1
			c5-0.1,8.6-2.6,10.6-7.1c0.5-1,1-1.2,1.9-1.2c14.3,0,28.6,0,42.9,0c3,0,5.9-0.3,8.6-1.5c0.2-0.1,0.4-0.1,0.7-0.2c0,0.5,0,1,0,1.4
			c0,9.3,0,18.6,0,27.9c0,7.2-4.5,11.7-11.7,11.7c-35.5,0-70.9,0-106.4,0c-7.2,0-11.7-4.5-11.7-11.7c0-9.2,0-18.5,0-27.7
			C94.8,182.9,94.8,182.4,94.8,181.7z"/>
		<path class="st1" d="M166.4,178.4c-0.1,1.1-0.1,2.3-0.4,3.4c-0.8,3.1-3.9,5.1-7.1,4.7c-3.3-0.4-5.7-3-5.8-6.3c0-1.2,0-2.4,0-3.6
			c0.1-3.5,3.1-6.4,6.6-6.4c3.5,0,6.4,2.8,6.6,6.3c0,0.6,0,1.2,0,1.8C166.3,178.4,166.4,178.4,166.4,178.4z"/>
	</g>
</g>
</svg>
