<?xml version="1.0" encoding="utf-8"?>
<!-- Generator: Adobe Illustrator 27.3.1, SVG Export Plug-In . SVG Version: 6.00 Build 0)  -->
<svg version="1.1" id="layer" xmlns="http://www.w3.org/2000/svg" xmlns:xlink="http://www.w3.org/1999/xlink" x="0px" y="0px"
	 viewBox="0 0 652 185.3" style="enable-background:new 0 0 652 185.3;" xml:space="preserve">
<style type="text/css">
	.st0{fill:#1F3343;}
	.st1{fill:#374857;}
</style>
<g>
	<path class="st0" d="M248.2,164.9c-0.3,0.2-0.6,0.4-1,0.5c-0.6-0.9-1.5-0.5-2.2-0.3c-1.5,0.4-3,0.9-4.5,1.2
		c-1.4,0.3-2.8,0.7-4.3,0.9c-2,0.3-3.9,0.8-5.9,0.7c-0.6,0-1.3-0.1-1.8,0.2c-0.8,0.5-2.1,0.5-2.3,1.8c-5.7,0-11.5,0.1-17.2-0.2
		c0.1-0.7-0.3-0.9-0.8-1.1c-1.4-0.7-2.9-0.5-4.4-0.5c-0.9,0-1.4,0.3-1.5,1.2c-1.5-0.2-3.1,0-4.6-0.3c0-0.4-0.1-0.7-0.6-0.9
		c-1.3-0.6-2.6-0.9-4.1-0.9c-1,0-1.4,0.3-1.4,1.3c-1-0.3-2-0.2-3-0.2c-0.5,0-1,0-1.4-0.2c0-0.4-0.1-0.6-0.5-0.9
		c-1.7-1-3.6-0.8-5.4-0.8c-0.7,0-1,0.4-1,1c-0.5,0-1,0-1.5,0c-0.1-1.9,0.2-3.8,0.2-5.7c-0.1-46.4,0.3-92.8-0.2-139.3
		c6.7,0,13.4,0,20.1,0c1.7,0,3.4,0,5,0c0,2.4-0.1,4.7-0.2,7.1c-0.1,8.1,0,16.2,0,24.3c0,3.1,0,6.2,0.1,9.2c0,1.1-0.1,2.4,1.4,2.8
		c0.1,1,0.7,0.7,1.3,0.5c0,0.6,0.3,0.9,0.9,0.7c0.5-0.1,1.1-0.3,1.6-0.5c2.1-1,4.3-1.4,6.5-2.1c1.7-0.5,3.5-0.7,5.2-1.1
		c2.1-0.5,4.2-0.9,6.4-0.8c3,0.1,6.1-0.4,9,0.8c0.2,0.1,0.3,0.1,0.5,0c3.2-0.4,6.1,1.1,9.1,1.9c2.1,0.5,3.8,1.9,5.8,2.7
		c2.4,0.9,3.8,3.1,5.9,4.3c0.7,0.4,0.7,1.3,1.2,1.7c1.3,1,2.1,2.3,2.6,3.8c0.6,1.7,1.5,3.2,2.4,4.7c0.4,0.8,0.2,1.8,0.7,2.3
		c1,1.3,0.9,2.9,1.4,4.3c0.9,2.3,0.9,4.9,1.6,7.3c0.1,0.5,0.3,0.9,0.2,1.4c-0.5,3,0.9,5.9,1,8.8c0,0.8-0.1,1.6-0.1,2.5
		c0,3.2,0.1,6.4,0,9.6c-0.1,3.1,0.4,6.3-0.5,9.4c-0.7,2.6-0.3,5.3-1,8c-0.4,1.5-0.5,3.3-0.9,4.8c-0.7,2.6-1.6,5.1-2.7,7.5
		c-0.6,1.3-1.1,2.8-1.9,4c-1.5,2-2.8,4.2-4.9,5.8c-1.9,1.5-4,2.9-6,4.3C249.5,163.2,248.4,163.6,248.2,164.9z M205.5,117
		C205.5,117,205.5,117,205.5,117c0,4.9,0,9.8,0,14.6c0,4,0,8.1,0,12.1c0,0.4-0.1,0.8,0.6,0.9c2.7,0.3,5.5,0.2,8.2,0.3
		c2.9,0.2,5.8,0.2,8.7-0.1c2.8-0.3,5.5-0.8,8-2.1c4.1-2,6.9-5.1,8.3-9.6c1.5-4.7,1.9-9.5,2.2-14.3c0.3-3.4,0.1-6.9-0.1-10.3
		c-0.4-4.9-1.2-9.6-3.4-14c-1.4-2.8-3.3-5.1-6.3-6.5c-1.8-0.8-3.7-1.4-5.7-1.5c-1.4-0.1-2.8-0.4-4.1-0.2c-1.3,0.2-2.6,0.4-3.9,0.4
		c-0.5,0-1-0.1-1.5,0c-3,0.6-6.1,1.2-9.1,2c-1.8,0.5-1.8,0.5-1.8,2.4C205.5,99.8,205.5,108.4,205.5,117z"/>
	<path class="st0" d="M518.6,137.1c-1.6-3-3.2-5.9-4.7-8.9c-0.5-1.1-1.1-1.4-2.2-1c0.1-0.8-0.3-1-1-1c-2.5-0.1-4.9,0.8-7.4,0.9
		c-1.6,0-2.8,1.2-3.1,2.8c-0.3,2.1-0.4,4.3,0.3,6.4c0.2,0.7,0.4,1.1,1.2,0.9c0,6.6,0,13.2,0,19.9c0,3.1,0,6.3,0.1,9.4
		c-7.1,0-14.3,0-21.4,0c-0.3,0-0.7,0-1,0c-1.8,0.3-3.5,0.3-5.3,0c-0.2-9.4,0-18.7,0-28.1c0-38.3,0-76.6,0-114.9
		c0-0.9,0.2-1.1,1.1-1.1c8.2,0,16.5,0,24.7,0c0.3,0,0.7,0,1,0c0.1,2.6-0.2,5.1-0.2,7.7c0,8.3,0,16.7,0,25c0,14.5,0,29.1,0,43.6
		c0,1.1,0,2.2,0.1,3.3c0.1,0.9,0.5,1,1.1,1.1c0,0.1,0,0.3,0,0.4c0,0-0.1,0-0.1,0.1c0,0.1,0,0.1,0.1,0.2c0,0.5,0,1,0.7,1.1
		c0.2,0.4-0.5,1.3,0.6,1.1c2.4-0.5,4.7-1,7-1.6c0.7-0.2,1.5-0.2,1.6-1.2c1.1-0.1,1-1.2,1.5-1.7c1,0.3,1.6-0.3,2-1
		c0.5-0.9,0.9-1.8,1.3-2.7c1.4-2.8,2.9-5.6,4.2-8.4c0.3-0.7,0.4-1.4,1.1-2.1c2.1-2.2,3.1-5.1,4.4-7.8c1-2,2.2-3.8,2.9-5.9
		c0.2-0.7,0.2-0.9-0.3-1.2c0-0.3,0.2-0.5,0.3-0.7c0.5,0.1,0.9,0,1.2-0.5c0.9-1,1.7-2.1,2.1-3.4c0.7-2.1,1.9-3.6,4.5-2.8
		c0,0,0.1,0,0.1,0c7,0,13.9,0,20.9,0c0.3,0,0.7,0,1-0.1c0.7-0.2,1.4,0.1,2.2,0.2c0.4,0,0.6,0.4,0.5,1c-0.3,1.4-1.2,2.4-1.9,3.5
		c-1.6,2.5-2.6,5.4-4.4,7.8c-1.1,1.4-1.8,3.1-2.2,4.7c-0.3,1.2-0.5,2-1.6,2.6c-0.4,0.2-0.2,0.8-0.6,1.2c-1,1-1.5,2.4-2.2,3.6
		c-0.7,1.2-0.8,2.6-1.7,3.6c-0.8,0.9-1.3,1.9-1.8,2.9c-0.5,0.8-0.5,1.8-1,2.6c-1.2,1.7-2.4,3.4-3.4,5.2c-0.7,1.3-1.4,2.7-2,4
		c-0.4,1-0.7,2-1.6,2.7c-0.1,0.1-0.1,0.2-0.2,0.2c-0.6,1.4,0,2.9-0.3,4.3c0,0.1,0.1,0.3,0.2,0.4c1.4,1.6,2,3.7,3.1,5.5
		c1.3,2.3,2,4.8,3.8,6.8c0.8,0.9,1.2,2.1,1.6,3.3c0.5,1.3,0.9,2.5,1.7,3.6c1.3,1.7,2.1,3.8,3.1,5.6c1,1.8,1.7,3.9,3.2,5.4
		c0.2,0.2,0.2,0.3,0.3,0.5c0.5,2.4,2,4.3,3,6.5c0.5,1.1,1.4,2,1.8,3.1c0.8,2.3,2.1,4.2,3.1,6.4c0.4,1,1.2,1.8,2.4,1.9
		c0.5,0.9,0.9,1.8,1.3,2.7c0.4,0.8,0.1,0.9-0.6,0.9c-6.7,0-13.5,0-20.2,0c-2.9,0-5.7,0-8.6,0c-0.8-1.7-1.7-3.3-2.6-5
		c-0.3-0.6-0.9-0.9-1.6-0.4c-1.8-3.4-3.5-6.8-5.3-10.3c0.3-0.4,1.4-0.2,0.9-0.9c-0.8-1.1-1.3-2.4-1.9-3.5c-1.5-2.9-2.9-5.8-4.4-8.8
		C520.3,137.6,519.7,137,518.6,137.1z"/>
	<path class="st0" d="M319.5,85.2c-1.2,0.4-2.4,0.2-3.6,0.2c-0.2-0.8-0.7-1.1-1.5-1.1c-3,0-5.9,0-8.9,0c-1.3,0-1.7,0.3-2,1.6
		c-2,0.1-3.9,0.4-5.9,0.3c0-0.7-0.3-1.1-1-1.1c-1,0-2.1,0-3.1,0c-1.5,0-1.7-0.3-1.5-1.8c0.4-2.3,0.3-4.6-0.1-6.9
		c-0.1-0.7-0.6-1.5-1.6-1.6c0-1.5,0-2.9-0.1-4.4c0.5-0.1,0.8-0.5,0.8-0.9c0-1.3,0.8-1.6,1.8-1.9c0.5-0.1,0.9,0,1.3-0.2
		c2-0.8,4.1-1.3,6.2-1.4c0.4,0,0.9-0.1,1.3-0.2c2.3-1,4.8-0.7,7.1-1.4c1.2-0.4,2.6,0.1,3.7-0.3c2.1-0.8,4.1-0.7,6.3-0.8
		c1,0,2,0.1,3.1-0.4c0.6-0.3,1.3-0.5,2.1-0.5c4.5,0.1,9,0,13.5,0c0.6,0,1.2,0,1.6,0.4c0.7,0.5,1.5,0.5,2.3,0.5c0.9,0,1.7,0,2.6,0
		c0.3,0,0.6,0,0.9,0.2c0.5,0.6,1.2,0.7,1.9,0.6c0.9-0.1,1.8,0.2,2.7,0.5c1.5,0.4,2.9,1.3,4.3,1.7c3.2,0.9,5.2,3.3,7.6,5.2
		c0.7,0.6,0.7,1.5,1.5,2.1c1.7,1.4,2.3,3.5,3.1,5.3c0.6,1.4,1.6,3,1.3,4.7c0,0.1,0.1,0.3,0.1,0.5c0.6,1.1,0.7,2.2,0.7,3.4
		c-0.1,1.7,0.1,3.3,0.7,4.9c0.2,0.6,0.5,0.8,1.1,0.8c0,1.1,0,2.2,0,3.2c0,14.2,0,28.3,0,42.5c0,0.2,0,0.3,0,0.5
		c-0.8,0-1,0.4-1.1,1.1c-0.2,1.6,0.7,3,0.8,4.4c0.2,2.2,2.6,4.3,4.5,4.5c1.3,0.2,1.7,0.9,1.3,2.1c-0.2,0.5-0.3,0.9-0.4,1.4
		c-0.3,1.6,0,3.3-0.2,4.9c-0.4,2.9-0.1,5.8-0.1,8.7c0,0.7-0.1,1.7,1.1,1.7c-0.1,0.6,0.1,1.4-1,1.4c-0.1-0.1-0.1-0.1-0.2,0
		c-1.9,0-3.7,0.1-5.6-0.1c-0.1,0-0.2,0-0.3,0c-0.3,0-0.7,0-1,0c-0.6-1.3-1.9-1.6-3-1.6c-2.4,0-4.7-0.4-7.1-0.9c-1-0.2-1.7-0.9-2.7-1
		c-1.7-0.2-3.1-1.2-4.4-2c-1.3-0.8-2.4-1.7-4-1.1c-0.4,0-0.8-0.1-1.2,0.1c-0.1-0.5-0.5-0.6-0.9-0.5c-0.9,0.2-1.9,0.2-2.7,0.7
		c-1.8,1.1-3.9,1.4-5.7,2.2c-1.2,0.5-2.6,0.5-3.8,1.1c-1.4,0.6-2.9,0.7-4.3,1.1c-1.9,0.5-4,0-5.9,0.9c-0.6,0.3-1.2,0.5-1.3,1.3
		c-3.1,0-6.3,0-9.4,0c0-0.5,0-0.9-0.6-1c-1.7-0.3-3.2-1-5-1c-0.5,0-1,0.1-1.3-0.1c-1.4-0.9-3.1-0.8-4.6-1.6
		c-1.2-0.7-2.6-0.7-3.6-1.8c-0.6-0.7-1.2-1.4-2.1-1.8c-1.3-0.5-2-1.6-2.7-2.7c-0.1-0.2-0.2-0.4-0.4-0.6c-1.9-2.3-3.5-4.8-4.4-7.7
		c-0.4-1.1-0.3-2.3-0.8-3.4c-0.5-1.1-0.6-2.3-0.6-3.5c0-0.4,0.1-0.8-0.1-1.1c-0.8-1.5-0.8-3.1-0.7-4.8c0-0.9-0.2-1.7-1.2-2
		c0-0.8,0-1.5,0-2.3c0.5-0.1,0.5-0.5,0.6-0.9c0.6-1.2,0.2-2.6,0.8-3.8c0.6-1.2,0.7-2.4,0.6-3.6c0-0.5,0.2-0.9,0.3-1.4
		c0.4-1.6,1.4-3,1.3-4.7c0-0.2,0.1-0.5,0.4-0.6c0.3-0.1,0.4-0.4,0.6-0.6c0.7-0.9,1.2-1.9,1.9-2.8c1.8-2.3,4.1-4.1,6.8-5.2
		c1.1-0.4,2.1-1,3.1-1.4c2.3-1,4.6-1.8,7-2.2c2.1-0.4,4.2-1,6.4-1.1c1.7,0,3.3-0.8,5.1-0.8c2,0,4.1,0,6.2-0.1c0.4,0,0.8,0,1.1-0.1
		c1-0.3,1.9-0.5,3-0.6c2.6-0.2,5.2,0,7.8-0.1c1.1-0.1,2.2-0.4,3.1-1c0.3-0.2,0.4-0.3,0.4-0.7c0.6-0.3,1.5,0,1.8-0.8
		c1.1,0,1.5-0.4,1.6-1.7c0.3-4-0.2-7.9-1.7-11.7c-0.1-0.2-0.2-0.3-0.3-0.4c-0.8-1-1.6-2.1-2.8-2.7c-0.7-0.4-1.4-0.9-2.2-1
		c-0.8-0.1-1.5-0.4-2.3-0.7c-0.8-0.4-1.8-0.5-2.6-0.4c-1.4,0.2-2.8,0.1-4.2,0.1c-2.3,0-4.7-0.4-7,0.8
		C319.9,84.5,319.5,84.7,319.5,85.2z M342.3,133.2c0-1,0-2,0-3c0-2.5,0-5,0-7.4c0-0.3,0.2-0.9-0.5-0.7c-1,0.2-2,0.3-3,0.4
		c-3.1,0.4-6.1,0.5-9.2,0.8c-3.4,0.4-6.8,0.4-10.1,1.3c-3.2,0.8-5.4,2.8-6.7,5.7c-1,2.1-0.9,4.4-0.9,6.7c0,2.7,0.6,5.1,2.4,7.2
		c1.8,2.1,4,3,6.6,3.3c2.1,0.2,4.2-0.2,6.2-0.2c0.9,0,1.8,0,2.7-0.2c3.7-0.7,7.4-1.6,11.1-2.3c1.1-0.2,1.4-0.7,1.4-1.8
		C342.3,139.7,342.3,136.5,342.3,133.2z"/>
	<path class="st0" d="M423.9,167.3c-1.8,0.1-3.6,0.2-5.5,0.3c0-0.9-0.5-1.2-1.4-1.2c-6.7,0-13.4,0-20.2,0c-0.2-9.4,0-18.7,0-28.1
		c0-24.4,0-48.8,0-73.1c0-0.6-0.2-1.3,0.8-1.1c0,0.2,0,0.6,0.3,0.6c1.2,0,2.2,0.5,3.4,0.5c6.6,0,13.3,0,19.9,0
		c0.8,0,1.2,0.1,1.4,1.1c0.2,1.4,0.1,2.8,0.1,4.2c0.1,1.1-0.1,2.3,0.2,3.4c0.4,1.2,1.8,2,2.9,1.5c0.6-0.3,1.2-0.6,1.8-1
		c4-2.5,8.2-4.4,12.5-6.3c2.5-1.1,5.1-2.2,7.9-2.9c2.3-0.6,4.5-1.5,6.8-1.9c0.7-0.1,1.1-0.1,1.3,0.8c0.3,1.2-0.1,2.4-0.1,3.6
		c0,6.4,0,12.8,0,19.2c0,1.1-0.4,1.7-1.4,1.9c-0.4,0.1-0.7,0.2-1.1,0.3c-1,0.2-2.2,0.1-3.2,0.5c-1.6,0.7-3.4,0.9-5.1,1.3
		c-1.7,0.5-3.5,0.9-5.2,1.4c-1.5,0.4-3,0.8-4.5,1.1c-1.6,0.3-3.2,0.9-4.7,1.3c-1.6,0.5-3.2,0.8-4.7,1.4c-1.6,0.6-1.8,0.5-1.8,2.2
		c0,5.4,0,10.9,0,16.3c0,17.2,0,34.4,0,51.6c0,0.4,0.2,0.8-0.2,1.2C424.2,167.2,424,167.2,423.9,167.3z"/>
	<path class="st0" d="M133.7,144.6c1.3,0,2.7-0.2,4,0.2c-0.1,0.7,0.3,1,0.9,1.1c1.7,0.5,3.4,0.2,5.1,0.3c1,0,1.3,0.4,1.3,1.3
		c0,0.6,0,1.1,0,1.7c0.3,4.4,0.3,8.8,0,13.1c-0.1,0.8-0.4,0.8-1.1,0.8c-1.5-0.1-2.8-0.9-4.2-1.1c-0.5-0.1-1-0.1-1.5-0.3
		c-1.2-0.6-2.6-0.9-3.9-1.1c-1.9-0.3-3.7-1.1-5.6-1.4c-1.7-0.3-3.3-0.9-5-1.3c-0.4-0.1-0.9-0.1-1.3-0.3c-1.4-0.8-3.1-0.8-4.6-1.2
		c-1.6-0.4-3.2-1-4.8-1.4c-1.4-0.4-2.8-0.8-4.2-1.1c-2.6-0.7-5.2-1.5-7.8-1.9c-1.1-0.2-1.9-0.8-2.9-1c-1.4-0.2-2.9-0.5-4.2-1
		c-1.4-0.6-2.9-0.6-4.4-1.2c-1.7-0.7-3.6-1-5.4-1.5c-1.4-0.4-2.8-0.8-4.2-1c-1.7-0.3-3.2-1-4.9-1.3c-2.1-0.4-4-1.5-6.2-1.5
		c-0.5,0-1.2-0.2-1.2-0.8c0-0.6,0.7-0.7,1.2-0.8c0.7-0.1,1.3,0.2,2,0.2c2.7,0,5.4,0,8.2,0c0.6,0,1-0.2,1.2-0.8c1.3,0,2.7-0.1,4,0.1
		c-0.2,0.9,0.2,1.2,1.1,1.3c2.3,0.4,4.7,0.1,7,0.2c0.5,0,0.8-0.3,0.9-0.8c1.6,0,3.2,0,4.8,0.3c-0.4,0.8-0.1,1.1,0.7,1.2
		c2.4,0.4,4.8,0.1,7.3,0.2c0.5,0,0.7-0.3,0.8-0.8c1.3,0,2.7-0.2,4,0.2c0,0.8,0.5,1.1,1.1,1.2c2.5,0.5,5,0.2,7.6,0.2
		c0.5,0,0.6-0.4,0.6-0.8c1.4,0.1,2.8-0.2,4.2,0.3c-0.1,0.6,0.2,1,0.8,1.1c2.6,0.6,5.3,0.2,7.9,0.3
		C133.4,145.4,133.7,145.1,133.7,144.6z"/>
	<path class="st1" d="M146.6,35.1c0,3,0,5.9,0,8.9c0,0.5-0.1,1-0.5,1.3c-2.2,1.7-4.2,3.6-6.6,5.1c-0.7,0.5-1.3,1-1.9,1.7
		c-1.1,1.3-2.6,2.1-3.8,3.2c-3.4,2.9-6.9,5.6-10.4,8.4c-3.4,2.7-6.9,5.4-10.3,8.2c-3.4,2.7-6.7,5.6-10.1,8.2
		c-5.2,4.1-10.4,8.2-15.6,12.4c-5,4.1-10.1,8.1-15.1,12.2c-2.8,2.3-5.7,4.6-8.6,6.9c-0.3,0.2-0.5,0.2-0.7,0
		c-1.4-0.9-2.9-1.8-4.4-2.7c-0.5-0.3-0.6-0.6,0-1c1.8-1.3,3.2-3,4.9-4.4c2.7-2.4,5.2-5.1,7.8-7.6c2.4-2.2,4.8-4.3,7.1-6.6
		c2.9-2.9,5.9-5.7,8.8-8.6c2.5-2.4,5.2-4.6,7.6-7c2.1-2.1,4.4-4,6.4-6.2c2.2-2.3,4.7-4.5,7.1-6.6c1.5-1.3,2.9-2.8,4.3-4.2
		c2.6-2.5,5.4-5,8-7.5c2.3-2.2,4.8-4.2,7-6.5c2.1-2.2,4.4-4.1,6.5-6.3c2.2-2.3,4.6-4.4,7-6.5c0.9-0.8,1.8-1.6,2.6-2.6
		c0.6-0.9,1.6-1.2,2.3-2c0.3-0.4,0.5,0.1,0.5,0.4c0,1,0,2.1,0,3.1C146.6,31,146.5,33.1,146.6,35.1C146.6,35.1,146.6,35.1,146.6,35.1
		z M145.2,29.2c-0.1-0.2,0.3-0.7-0.2-0.9c-0.5-0.2-0.8,0.3-1.2,0.5c-0.3,0.2-0.5,0.7-0.8,0.9c-1.8,1.7-3.8,3.1-5.5,4.9
		c-2.2,2.3-4.3,4.6-6.7,6.8c-2.2,2.1-4.5,4.1-6.8,6c-3.2,2.7-5.9,5.9-8.9,8.8c-1.6,1.6-3.4,3-5,4.6c-1.9,1.9-4.1,3.4-5.9,5.4
		c-2,2.2-4.2,4.4-6.4,6.4c-2.9,2.7-6,5.3-8.9,8c-2.5,2.4-4.8,5-7.3,7.3c-2.4,2.2-4.8,4.4-7.2,6.4c-2.8,2.4-5.1,5.2-7.8,7.7
		c-1.8,1.7-3.4,3.5-5.4,5c-0.4,0.3-0.7,0.7-0.6,1.2c0.2,0.8,2.4,1.8,3,1.4c1.2-0.7,2.5-1.4,3.4-2.4c1.7-1.8,4-2.9,5.7-4.7
		c0.9-1,2.1-1.4,3-2.3c1.1-1,2.2-2,3.5-2.8c0.5-0.3,1-0.8,1.5-1.3c0.7-0.8,1.6-1.6,2.6-1.9c0.9-0.3,1.5-0.8,2-1.6
		c0.2-0.3,0.3-0.7,0.5-0.9c1.4-1.3,3.2-1.9,4.4-3.4c0.8-1,2.1-1.4,2.9-2.3c1.6-1.7,3.8-2.7,5.4-4.4c0.9-1,2.2-1.5,3.2-2.4
		c1.1-1,2.2-2,3.5-2.7c0.5-0.3,1-0.8,1.4-1.3c0.7-0.8,1.5-1.6,2.6-1.9c1-0.3,1.6-1,2.2-1.7c0.6-0.8,1.2-1.6,2.2-2.1
		c0.4-0.2,1-0.4,1.2-0.7c1.5-2.1,3.9-3.1,5.6-4.8c0.8-0.8,2-1.2,2.7-2c1.7-1.8,4-2.9,5.7-4.7c0.9-1,2.1-1.3,3.1-2.3
		c0.9-1,1.8-2.1,3.1-2.5c1.1-0.4,1.8-1,2.4-1.9c0.7-0.9,1.4-1.7,2.4-2.1c0.4-0.2,0.9-0.4,1.3-0.8c0.9-1,1.8-2,3-2.8
		c0.6-0.4,0.9-1,0.9-1.8C145.1,38.7,144.9,34,145.2,29.2z"/>
	<path class="st1" d="M178.8,22.4c0.5,46.4,0.1,92.8,0.2,139.3c0,1.9-0.3,3.8-0.2,5.7c-1.3,0.1-1.3-0.7-1.3-1.7
		c0-11.7,0-23.4,0-35.1c0-35.5,0-71.1,0-106.6c0-0.1,0-0.2,0-0.3C177.5,22.3,177.5,22.3,178.8,22.4z"/>
	<path class="st1" d="M248.2,164.9c0.2-1.2,1.3-1.7,2.2-2.2c2-1.4,4.1-2.7,6-4.3c2.1-1.6,3.4-3.8,4.9-5.8c0.9-1.2,1.3-2.6,1.9-4
		c1.1-2.4,2-4.9,2.7-7.5c0.4-1.6,0.5-3.3,0.9-4.8c0.7-2.7,0.3-5.4,1-8c0.9-3.2,0.4-6.3,0.5-9.4c0.1-3.2,0.1-6.4,0-9.6
		c0-0.8,0.2-1.6,0.1-2.5c-0.1-3-1.4-5.8-1-8.8c0.1-0.5-0.1-1-0.2-1.4c-0.7-2.4-0.7-5-1.6-7.3c-0.6-1.4-0.4-3-1.4-4.3
		c-0.4-0.6-0.3-1.6-0.7-2.3c-0.9-1.5-1.8-3-2.4-4.7c-0.5-1.5-1.3-2.8-2.6-3.8c-0.5-0.4-0.6-1.3-1.2-1.7c-2.1-1.3-3.5-3.5-5.9-4.3
		c-2-0.7-3.8-2.2-5.8-2.7c-3-0.8-5.9-2.2-9.1-1.9c-0.2,0-0.4,0-0.5,0c-2.9-1.2-6-0.7-9-0.8c-2.2-0.1-4.2,0.3-6.4,0.8
		c-1.7,0.4-3.5,0.6-5.2,1.1c-2.2,0.7-4.4,1.1-6.5,2.1c-0.5,0.2-1,0.4-1.6,0.5c-0.6,0.2-0.9-0.1-0.9-0.7c4.4-1.8,8.9-3.1,13.6-4.1
		c3.5-0.7,7-1,10.5-0.8c2.2,0.1,4.5,0.4,6.7,0.7c2.9,0.4,5.7,0.9,8.3,1.9c4.2,1.6,8.2,3.6,11.6,6.8c2.2,2.1,4.1,4.3,5.5,6.9
		c1.9,3.4,3.1,7,4.1,10.8c0.6,2.4,1.4,4.7,1.7,7.1c0.4,3.6,0.8,7.2,1,10.8c0.4,5.8,0.4,11.7,0.1,17.5c-0.2,3.2-0.6,6.3-1,9.4
		c-0.6,4.7-1.6,9.3-3.3,13.7c-1.2,3.2-2.9,6.1-5,8.9C257.1,160.2,252.9,162.8,248.2,164.9z"/>
	<path class="st1" d="M132.4,109.8c0.1,1.9,0,1.9-1.5,2.2c-5,1.1-9.9,2.2-14.9,3.3c-7.4,1.6-14.8,3.2-22.2,4.8
		c-4,0.9-8.1,1.7-12.1,2.7c-3.8,0.9-7.7,1.7-11.5,2.5c-1.3,0.3-1.4,0.2-1.6-1.2c-0.1-0.6-0.3-1.2-0.4-1.8c-0.1-0.5,0-1.1,0.6-1.2
		c1.5-0.2,2.9-1,4.3-1.6c2.1-0.8,4.2-1.7,6.3-2.5c2.7-1.1,5.4-2,8-3.3c2.4-1.2,5-2,7.4-3.1c2.7-1.2,5.5-2.3,8.3-3.3
		c3-1.1,6-2.3,8.9-3.5c2.5-1,5-2.1,7.5-3.1c1.8-0.8,3.7-1.4,5.6-2.2c1.5-0.7,3.1-1.2,4.6-1.8c0.4-0.2,0.6-0.1,0.6,0.3
		c0.2,1.7,0.5,3.4,0.7,5c0,0.5,0.1,1,0.3,1.5C132,105.7,131.9,108,132.4,109.8z M130.8,107.9c-0.1-0.7,0.2-1.5-0.2-2.3
		c-0.6-1.4-0.8-2.9-0.7-4.4c0-0.6,0-1.1-0.2-1.6c-0.3-1.2-0.7-1.4-1.9-1c-3.9,1.3-7.6,3.1-11.5,4.5c-3.7,1.4-7.3,3.1-11,4.5
		c-0.7,0.3-1.3,0.7-2,0.9c-1.9,0.4-3.6,1.4-5.4,2.1c-1.9,0.8-3.9,1.3-5.6,2.3c-1.2,0.7-2.6,0.8-3.7,1.5c-1.3,0.8-2.9,1-4.2,1.7
		c-1,0.5-1.9,1.4-3.2,0.8c-0.1,0-0.4,0.1-0.4,0.2c-0.4,0.8-1.3,0.9-2,1.2c-2.5,1.1-5,2.1-7.6,3c-0.5,0.1-0.9,0.4-1.2,0.7
		c-0.4,0.3-0.4,0.9-0.1,1.3c0.3,0.5,1,0.3,1.4,0.2c2.5-0.8,5.2-0.9,7.7-1.6c1.5-0.4,3-1,4.6-1c1,0,1.8-0.6,2.8-0.7
		c0.9-0.1,1.9-0.2,2.7-0.6c1.4-0.6,2.9-0.7,4.4-1c3.2-0.6,6.3-1.5,9.5-1.9c2.6-0.3,5-1.4,7.6-1.7c2-0.3,3.9-0.9,5.8-1.4
		c1.2-0.3,2.5-0.6,3.8-0.8c1.9-0.4,3.8-1.1,5.8-1.1c1,0,1.6-0.7,2.5-0.7c1.9-0.2,2.3-0.3,2.2-2.3
		C130.8,108.6,130.8,108.3,130.8,107.9z"/>
	<path class="st1" d="M563.7,163.9c-1.2-0.1-2-0.9-2.4-1.9c-0.9-2.2-2.3-4.1-3.1-6.4c-0.4-1.1-1.3-2-1.8-3.1c-1-2.2-2.5-4.1-3-6.5
		c0-0.2-0.1-0.4-0.3-0.5c-1.5-1.5-2.2-3.6-3.2-5.4c-1-1.9-1.8-3.9-3.1-5.6c-0.8-1.1-1.2-2.4-1.7-3.6c-0.4-1.1-0.8-2.3-1.6-3.3
		c-1.7-2-2.5-4.6-3.8-6.8c-1-1.8-1.7-3.8-3.1-5.5c-0.1-0.1-0.2-0.3-0.2-0.4c0.4-1.4-0.2-2.9,0.3-4.3c0-0.1,0.1-0.2,0.2-0.2
		c0.9-0.7,1.1-1.7,1.6-2.7c0.6-1.3,1.2-2.7,2-4c1-1.8,2.2-3.5,3.4-5.2c0.5-0.8,0.5-1.7,1-2.6c0.6-1,1.1-2,1.8-2.9
		c0.9-1,1.1-2.5,1.7-3.6c0.7-1.2,1.2-2.5,2.2-3.6c0.3-0.4,0.2-1,0.6-1.2c1.1-0.6,1.3-1.4,1.6-2.6c0.4-1.6,1.2-3.3,2.2-4.7
		c1.8-2.4,2.7-5.3,4.4-7.8c0.7-1.1,1.6-2.1,1.9-3.5c0.1-0.5,0-0.9-0.5-1c-0.7,0-1.4-0.4-2.2-0.2c-0.3,0.1-0.7,0.1-1,0.1
		c-7,0-13.9,0-20.9,0c0,0-0.1,0-0.1,0c-2.6-0.8-3.7,0.6-4.5,2.8c-0.5,1.3-1.2,2.4-2.1,3.4c-0.4,0.4-0.7,0.6-1.2,0.5
		c1.3-2.4,2.5-4.9,3.8-7.3c0.2-0.5,0.6-0.4,1-0.4c8.2,0,16.3,0,24.5,0c1.8,0,3.7,0,5.6,0c-1,2.8-2.6,5.2-4,7.7
		c-2,3.8-4.2,7.5-6.2,11.2c-3.1,5.8-6.4,11.6-9.7,17.4c-1.6,2.9-3.2,5.9-4.8,8.8c-0.6,1.1-1.4,2.1-1.9,3.3c-0.2,0.5-0.2,1,0.1,1.5
		c1.3,2.2,2.4,4.5,3.6,6.7c2.2,4.1,4.3,8.3,6.6,12.4c1.4,2.5,2.6,5.2,3.9,7.8c2.7,5.1,5.4,10.2,8,15.4c0.8,1.6,1.8,3.2,2.6,4.8
		C562.7,161.9,562.8,163.1,563.7,163.9z"/>
	<path class="st1" d="M80.3,141.3c-0.1,0.6-0.6,0.8-1.2,0.8c-2.7,0-5.4,0-8.2,0c-0.7,0-1.3-0.3-2-0.2c-0.5,0.1-1.2,0.2-1.2,0.8
		c0,0.6,0.6,0.8,1.2,0.8c2.2,0,4.1,1.1,6.2,1.5c1.7,0.3,3.2,1,4.9,1.3c1.4,0.2,2.8,0.6,4.2,1c1.8,0.5,3.7,0.8,5.4,1.5
		c1.4,0.6,3,0.6,4.4,1.2c1.3,0.5,2.8,0.8,4.2,1c1,0.2,1.9,0.8,2.9,1c2.7,0.4,5.2,1.2,7.8,1.9c1.4,0.3,2.8,0.7,4.2,1.1
		c1.6,0.4,3.2,1,4.8,1.4c1.5,0.4,3.1,0.4,4.6,1.2c0.4,0.2,0.9,0.2,1.3,0.3c1.7,0.4,3.3,1,5,1.3c1.9,0.3,3.7,1.1,5.6,1.4
		c1.3,0.2,2.6,0.5,3.9,1.1c0.5,0.2,1,0.3,1.5,0.3c1.5,0.2,2.7,1,4.2,1.1c0.7,0.1,1,0,1.1-0.8c0.3-4.4,0.3-8.8,0-13.1
		c0-0.6,0-1.1,0-1.7c0-0.9-0.4-1.3-1.3-1.3c-1.7,0-3.4,0.2-5.1-0.3c-0.6-0.2-1-0.4-0.9-1.1c2.7,0.1,5.5,0.3,8.2,0.4
		c0.6,0,0.6,0.4,0.6,0.9c0,2.5,0,5,0,7.4c0,3.5,0,7,0,10.6c0,0.7,0.2,1.1-1,0.9c-4.2-1-8.3-2.1-12.4-3.3c-2-0.6-4-1-6.1-1.5
		c-3.1-0.7-6.2-1.6-9.2-2.5c-6.6-1.9-13.3-3.6-20-5.3c-3.7-1-7.5-1.7-11.2-2.8c-5.6-1.6-11.2-2.9-16.8-4.6c-1.4-0.4-2.9-0.7-4.3-1.2
		c-0.2-0.1-0.5-0.1-0.5-0.3c-0.1-0.3,0.2-0.4,0.4-0.6c1.4-0.8,2.7-1.8,4.1-2.4c1-0.4,2.1,0.1,3.1,0.1c1.9,0.1,3.9,0.4,5.8,0.4
		C79,141,79.7,141,80.3,141.3z"/>
	<path class="st1" d="M424.5,98.1c0-1.7,0.1-1.6,1.8-2.2c1.5-0.6,3.2-0.9,4.7-1.4c1.5-0.5,3.1-1,4.7-1.3c1.5-0.3,3-0.7,4.5-1.1
		c1.7-0.5,3.5-0.9,5.2-1.4c1.7-0.5,3.4-0.6,5.1-1.3c0.9-0.4,2.1-0.3,3.2-0.5c0.4-0.1,0.7-0.2,1.1-0.3c1-0.2,1.4-0.8,1.4-1.9
		c0-6.4,0-12.8,0-19.2c0-1.2,0.4-2.4,0.1-3.6c-0.2-0.9-0.7-0.9-1.3-0.8c-2.3,0.5-4.5,1.4-6.8,1.9c-2.7,0.7-5.4,1.7-7.9,2.9
		c-4.2,1.9-8.5,3.8-12.5,6.3c-0.6,0.4-1.2,0.7-1.8,1c-1,0.5-2.5-0.3-2.9-1.5c-0.3-1.1-0.2-2.3-0.2-3.4c-0.1-1.4,0.1-2.8-0.1-4.2
		c-0.1-1-0.6-1.1-1.4-1.1c-6.6,0-13.3,0-19.9,0c-1.2,0-2.2-0.5-3.4-0.5c-0.3,0-0.3-0.3-0.3-0.6c3.6,0,7.2-0.1,10.8-0.1
		c4.8,0,9.6,0,14.4,0c1.4,0,1.5,0.1,1.5,1.5c0,2.3,0,4.7,0,7c0,2.1,0.2,2.2,2.1,1.2c2.9-1.6,5.7-3.3,8.7-4.7
		c3.7-1.6,7.4-3.4,11.3-4.6c2.7-0.8,5.4-1.6,8.1-2.3c0.7-0.2,1.5-0.2,2.2-0.4c0.8-0.2,0.9,0.1,0.9,0.8c0,5.1,0,10.3,0,15.4
		c0,3.6,0,7.1,0,10.7c0,0.4,0.1,0.7-0.6,0.9c-5.5,1.3-11.1,2.7-16.6,4c-4.1,0.9-8.2,2.3-12.3,3.4C426.9,97.1,425.7,97.7,424.5,98.1z
		"/>
	<path class="st1" d="M370,93.3c-0.6,0.1-0.9-0.2-1.1-0.8c-0.6-1.6-0.8-3.2-0.7-4.9c0.1-1.2-0.1-2.4-0.7-3.4
		c-0.1-0.1-0.2-0.3-0.1-0.5c0.3-1.8-0.7-3.3-1.3-4.7c-0.7-1.9-1.4-4-3.1-5.3c-0.7-0.6-0.8-1.6-1.5-2.1c-2.4-1.9-4.5-4.3-7.6-5.2
		c-1.5-0.4-2.8-1.3-4.3-1.7c-0.9-0.2-1.7-0.6-2.7-0.5c-0.7,0.1-1.4,0-1.9-0.6c-0.2-0.3-0.6-0.2-0.9-0.2c-0.9,0-1.7,0-2.6,0
		c-0.8,0-1.6,0-2.3-0.5c-0.4-0.3-1-0.4-1.6-0.4c-4.5,0-9,0-13.5,0c-0.8,0-1.5,0.3-2.1,0.5c-1,0.4-2,0.3-3.1,0.4
		c-2.1,0-4.2,0-6.3,0.8c-1.1,0.4-2.5-0.1-3.7,0.3c-2.3,0.7-4.8,0.5-7.1,1.4c-0.4,0.2-0.9,0.2-1.3,0.2c-2.1,0.2-4.2,0.7-6.2,1.4
		c-0.4,0.2-0.9,0.1-1.3,0.2c-1,0.2-1.8,0.6-1.8,1.9c0,0.4-0.3,0.9-0.8,0.9c0,0,0-0.1,0-0.1c-0.3-3.7-0.5-2.9,2.5-3.8
		c2-0.6,4.1-1,6.1-1.4c1.2-0.3,2.4-0.7,3.6-0.8c3-0.4,5.9-1,8.9-1.4c4-0.5,8-0.8,12-1.2c4-0.4,8.1-0.4,12.1-0.2
		c4.6,0.3,9.3,0.6,13.7,2c3.2,1,6.3,2,9.1,4c4.3,3,7.4,6.9,9.1,11.9c0.9,2.4,1.7,4.9,2,7.4C369.7,88.9,370.2,91.1,370,93.3z"/>
	<path class="st1" d="M501.9,103.2c-0.6-0.1-1.1-0.2-1.1-1.1c-0.1-1.1-0.1-2.2-0.1-3.3c0-14.5,0-29.1,0-43.6c0-8.3,0-16.7,0-25
		c0-2.6,0.3-5.1,0.2-7.7c0.6-0.1,1.1-0.1,1.1,0.8c0,17.9,0,35.7,0,53.6c0,8.4,0,16.7,0,25.1C501.9,102.3,501.9,102.7,501.9,103.2z"
		/>
	<path class="st1" d="M340,102.7c0,0.3-0.2,0.5-0.4,0.7c-1,0.6-2,0.9-3.1,1c-2.6,0.2-5.2-0.1-7.8,0.1c-1.1,0.1-2,0.3-3,0.6
		c-0.4,0.1-0.8,0.1-1.1,0.1c-2.1,0.1-4.1,0.1-6.2,0.1c-1.8,0-3.4,0.7-5.1,0.8c-2.2,0-4.3,0.7-6.4,1.1c-2.4,0.4-4.7,1.3-7,2.2
		c-1,0.5-2.1,1-3.1,1.4c-2.7,1.1-5,3-6.8,5.2c-0.7,0.9-1.2,1.9-1.9,2.8c-0.2,0.3-0.3,0.5-0.6,0.6c-0.3,0.1-0.4,0.3-0.4,0.6
		c0.2,1.7-0.9,3.1-1.3,4.7c-0.1,0.5-0.3,0.9-0.3,1.4c0.1,1.3,0,2.5-0.6,3.6c-0.7,1.2-0.2,2.6-0.8,3.8c-0.2,0.3-0.2,0.8-0.6,0.9
		c-0.2-3.2,0.4-6.4,1.1-9.5c0.7-3.2,2-6.2,3.9-8.9c1.3-1.8,3-3.2,4.7-4.5c2.2-1.6,4.8-2.6,7.3-3.7c2.1-0.9,4.4-1.2,6.6-1.9
		c2.2-0.6,4.5-0.9,6.8-1.3c3.3-0.5,6.7-0.7,10.1-0.9c4.6-0.4,9.2-0.6,13.8-1C338.5,102.9,339.3,102.6,340,102.7z"/>
	<path class="st1" d="M205.2,65.9c-1.5-0.4-1.3-1.8-1.4-2.8c-0.1-3.1-0.1-6.2-0.1-9.2c0-8.1-0.1-16.2,0-24.3c0-2.4,0.2-4.7,0.2-7.1
		c1.4-0.1,1.3-0.1,1.3,1.3c0,10,0,20,0,30c0,3.7,0.1,7.4,0.1,11.2C205.3,65.2,205.3,65.6,205.2,65.9z"/>
	<path class="st1" d="M283.5,136.8c1,0.3,1.2,1.1,1.2,2c0,1.6,0,3.3,0.7,4.8c0.2,0.3,0.1,0.8,0.1,1.1c0,1.2,0.1,2.3,0.6,3.5
		c0.5,1.1,0.4,2.3,0.8,3.4c0.9,2.9,2.4,5.4,4.4,7.7c0.2,0.2,0.2,0.4,0.4,0.6c0.7,1.1,1.4,2.2,2.7,2.7c0.9,0.4,1.5,1.1,2.1,1.8
		c1,1.1,2.4,1.1,3.6,1.8c1.4,0.8,3.2,0.7,4.6,1.6c0.3,0.2,0.9,0.1,1.3,0.1c1.7,0.1,3.3,0.8,5,1c0.7,0.1,0.6,0.6,0.6,1
		c-2.3,0.2-4.4-0.6-6.6-1c-6.2-1-11.2-4.2-15.1-9.1c-3.1-3.9-4.8-8.5-5.6-13.3C283.7,143.4,283.2,140.1,283.5,136.8z"/>
	<path class="st1" d="M319.5,85.2c0.1-0.5,0.4-0.7,0.8-0.9c2.2-1.2,4.6-0.8,7-0.8c1.4,0,2.8,0.1,4.2-0.1c0.9-0.1,1.8,0,2.6,0.4
		c0.7,0.3,1.5,0.5,2.3,0.7c0.8,0.1,1.5,0.6,2.2,1c1.2,0.6,2,1.7,2.8,2.7c0.1,0.1,0.2,0.3,0.3,0.4c1.6,3.8,2,7.7,1.7,11.7
		c-0.1,1.3-0.4,1.7-1.6,1.7c0-2.2,0-4.4,0-6.6c0-1.9-0.4-3.8-1.1-5.6c-1.2-2.9-3.8-3.9-6.6-4.5c-4.1-0.9-8.3-0.3-12.4-0.1
		C321,85.1,320.2,85.1,319.5,85.2z"/>
	<path class="st1" d="M376,168.5c-1.2,0-1.1-1.1-1.1-1.7c0-2.9-0.2-5.8,0.1-8.7c0.2-1.6-0.1-3.3,0.2-4.9c0.1-0.5,0.2-0.9,0.4-1.4
		c0.4-1.2,0-2-1.3-2.1c-2-0.3-4.3-2.4-4.5-4.5c-0.2-1.5-1-2.9-0.8-4.4c0.1-0.7,0.3-1.1,1.1-1.1c0.3,1.5,0.4,3,0.7,4.4
		c0.7,2.7,2.3,4.4,5.1,4.9c0.8,0.1,0.9,0.5,0.9,1.2c-0.2,4.7-0.3,9.3-0.5,14C376.1,165.5,376.1,167,376,168.5z"/>
	<path class="st1" d="M528.7,72.4c0.5,0.3,0.6,0.5,0.3,1.2c-0.7,2.1-1.9,4-2.9,5.9c-1.3,2.7-2.3,5.6-4.4,7.8
		c-0.7,0.7-0.7,1.4-1.1,2.1c-1.3,2.9-2.8,5.6-4.2,8.4c-0.4,0.9-0.8,1.8-1.3,2.7c-0.4,0.7-1,1.3-2,1c2.1-4,4.2-8,6.3-12
		c1.3-2.4,2.4-4.9,3.7-7.2c1.5-2.8,2.8-5.7,4.5-8.4C528.1,73.3,528.1,72.7,528.7,72.4z"/>
	<path class="st1" d="M474,166.4c1.8,0.3,3.5,0.3,5.3,0c0.3-0.1,0.7,0,1,0c7.1,0,14.3,0,21.4,0c0.2,1.3,0.2,1.4-1,1.4
		c-8.5,0-17,0-25.5,0C473.9,167.7,473.9,167.7,474,166.4z"/>
	<path class="st1" d="M320.9,169.9c0.1-0.7,0.7-0.9,1.3-1.3c1.9-0.9,4-0.4,5.9-0.9c1.4-0.4,2.9-0.4,4.3-1.1c1.2-0.5,2.5-0.5,3.8-1.1
		c1.9-0.8,4-1.1,5.7-2.2c0.8-0.5,1.8-0.6,2.7-0.7c0.4-0.1,0.8,0.1,0.9,0.5c-2.2,1.3-4.5,2.1-6.8,3c-4.1,1.6-8.4,2.4-12.7,3.3
		C324.4,169.8,322.6,169.8,320.9,169.9z"/>
	<path class="st1" d="M226.2,169.9c0.2-1.3,1.5-1.3,2.3-1.8c0.5-0.3,1.2-0.3,1.8-0.2c2,0.2,3.9-0.4,5.9-0.7c1.5-0.2,2.9-0.6,4.3-0.9
		c1.5-0.3,3-0.8,4.5-1.2c0.8-0.2,1.6-0.6,2.2,0.3c-3.5,1.6-7.3,2.5-11,3.3c-2,0.4-4.1,0.7-6.1,0.8
		C228.8,169.6,227.5,169.7,226.2,169.9z"/>
	<path class="st1" d="M346.7,163c1.6-0.5,2.7,0.3,4,1.1c1.4,0.9,2.7,1.8,4.4,2c1,0.1,1.7,0.7,2.7,1c2.3,0.6,4.7,1,7.1,0.9
		c1.1,0,2.4,0.3,3,1.6C360.2,169.4,352.9,168.2,346.7,163z"/>
	<path class="st1" d="M396.9,166.4c6.7,0,13.4,0,20.2,0c0.9,0,1.4,0.3,1.4,1.2c-7,0-13.9,0.1-20.9,0.1
		C396.3,167.7,397,166.9,396.9,166.4z"/>
	<path class="st1" d="M501.7,137.1c-0.7,0.2-1-0.2-1.2-0.9c-0.7-2.1-0.6-4.2-0.3-6.4c0.2-1.6,1.5-2.7,3.1-2.8
		c2.5-0.1,4.9-0.9,7.4-0.9c0.8,0,1.1,0.3,1,1c-3.2,0.5-6.4,1-9.5,1.5c-0.9,0.2-0.7,1.1-0.7,1.6c0,2-0.2,3.9,0.2,5.9
		C501.7,136.4,501.7,136.8,501.7,137.1z"/>
	<path class="st1" d="M290.4,74.9c1,0,1.5,0.9,1.6,1.6c0.4,2.3,0.5,4.6,0.1,6.9c-0.2,1.5-0.1,1.8,1.5,1.8c1,0,2.1,0,3.1,0
		c0.8,0,1.1,0.4,1,1.1c-1.9,0.2-3.7,0.2-5.6,0.2c-1,0-1.3-0.5-1.3-1.3c0-2.1-0.2-4.3-0.3-6.4C290.4,77.5,290.1,76.2,290.4,74.9z"/>
	<path class="st1" d="M518.6,137.1c1.1,0,1.7,0.5,2.2,1.4c1.4,2.9,2.9,5.9,4.4,8.8c0.6,1.2,1.1,2.4,1.9,3.5c0.5,0.7-0.6,0.6-0.9,0.9
		C523.6,146.9,521,142,518.6,137.1z"/>
	<path class="st1" d="M303.5,86c0.3-1.3,0.6-1.6,2-1.6c3,0,5.9,0,8.9,0c0.8,0,1.4,0.2,1.5,1.1C311.8,85.6,307.7,85.8,303.5,86z"/>
	<path class="st1" d="M133.7,144.6c-0.1,0.4-0.3,0.8-0.7,0.8c-2.6-0.1-5.3,0.4-7.9-0.3c-0.6-0.2-0.9-0.5-0.8-1.1
		c2-0.1,3.9,0.2,5.9,0.4c0.8,0.1,1.5,0,2.3,0C132.9,144.4,133.3,144.3,133.7,144.6z"/>
	<path class="st1" d="M120.1,143.7c0,0.4-0.1,0.8-0.6,0.8c-2.5-0.1-5.1,0.3-7.6-0.2c-0.6-0.1-1.1-0.4-1.1-1.2
		c1.8-0.1,3.6,0.2,5.5,0.4c0.9,0.1,1.9,0,2.8,0C119.5,143.6,119.8,143.4,120.1,143.7z"/>
	<path class="st1" d="M93.3,142.1c-0.1,0.5-0.4,0.8-0.9,0.8c-2.3-0.1-4.7,0.2-7-0.2c-0.9-0.1-1.2-0.5-1.1-1.3
		c2.9,0.1,5.8,0.5,8.8,0.5C93.1,141.9,93.2,142,93.3,142.1z"/>
	<path class="st1" d="M106.9,143c-0.1,0.5-0.4,0.8-0.8,0.8c-2.4-0.1-4.8,0.2-7.3-0.2c-0.9-0.1-1.1-0.5-0.7-1.2
		c1.6,0.1,3.1,0.1,4.7,0.3c1,0.1,1.9,0,2.9,0.1C106.1,142.7,106.5,142.7,106.9,143z"/>
	<path class="st1" d="M511.7,103.2c-0.1,1-0.9,1-1.6,1.2c-2.3,0.5-4.7,1.1-7,1.6c-1.1,0.2-0.4-0.7-0.6-1.1
		C505.6,104.3,508.7,103.8,511.7,103.2z"/>
	<path class="st1" d="M202.3,169.2c0.1-0.9,0.6-1.2,1.5-1.2c1.5,0.1,3-0.1,4.4,0.5c0.5,0.2,1,0.5,0.8,1.1
		C206.7,169.7,204.5,169.7,202.3,169.2z"/>
	<path class="st1" d="M180.3,167.4c0-0.7,0.3-1,1-1c1.9-0.1,3.7-0.2,5.4,0.8c0.4,0.3,0.5,0.5,0.5,0.9c-1.4,0.1-2.8-0.1-4.2-0.4
		C182.1,167.5,181.2,167.4,180.3,167.4z"/>
	<path class="st1" d="M531.4,162c0.7-0.5,1.3-0.2,1.6,0.4c0.9,1.6,1.7,3.3,2.6,5c-1,0.3-1.6-0.1-2-1.1
		C533,164.8,532.2,163.4,531.4,162z"/>
	<path class="st1" d="M191.6,168.4c0-1,0.5-1.2,1.4-1.3c1.5,0,2.8,0.2,4.1,0.9c0.4,0.2,0.5,0.5,0.6,0.9
		C195.6,168.8,193.6,168.6,191.6,168.4z"/>
	<path class="st1" d="M423.9,167.3c0.1-0.1,0.3-0.1,0.4-0.1C424.2,167.4,424.1,167.4,423.9,167.3z"/>
	<path class="st1" d="M501.8,103.8c0-0.1-0.1-0.1-0.1-0.2c0,0,0,0,0.1-0.1C501.8,103.6,501.8,103.7,501.8,103.8z"/>
	<path class="st1" d="M368.9,169.7c0.1,0,0.2,0,0.3,0C369.1,169.9,369,169.9,368.9,169.7z"/>
	<path class="st1" d="M374.8,169.9c0.1-0.1,0.1-0.1,0.2,0C375,169.9,374.9,169.9,374.8,169.9z"/>
	<path class="st0" d="M145.2,29.2c-0.3,4.8-0.1,9.4-0.2,14.1c0,0.8-0.3,1.4-0.9,1.8c-1.2,0.7-2,1.8-3,2.8c-0.4,0.4-0.8,0.6-1.3,0.8
		c-1.1,0.5-1.8,1.3-2.4,2.1c-0.6,0.8-1.3,1.5-2.4,1.9c-1.3,0.4-2.2,1.6-3.1,2.5c-0.9,0.9-2.2,1.3-3.1,2.3c-1.7,1.8-3.9,2.9-5.7,4.7
		c-0.8,0.8-1.9,1.2-2.7,2c-1.7,1.8-4.1,2.8-5.6,4.8c-0.3,0.4-0.8,0.5-1.2,0.7c-1,0.4-1.6,1.2-2.2,2.1c-0.5,0.7-1.2,1.4-2.2,1.7
		c-1,0.3-1.8,1.2-2.6,1.9c-0.4,0.5-0.9,1-1.4,1.3c-1.3,0.7-2.4,1.7-3.5,2.7c-1,0.9-2.3,1.4-3.2,2.4c-1.6,1.7-3.7,2.7-5.4,4.4
		c-0.9,0.9-2.1,1.3-2.9,2.3c-1.2,1.5-3,2.2-4.4,3.4c-0.2,0.2-0.4,0.6-0.5,0.9c-0.5,0.8-1.1,1.3-2,1.6c-1,0.4-1.9,1.1-2.6,1.9
		c-0.5,0.5-1,1-1.5,1.3c-1.3,0.7-2.4,1.7-3.5,2.8c-0.9,0.9-2.1,1.3-3,2.3c-1.7,1.8-3.9,2.9-5.7,4.7c-1,1-2.3,1.6-3.4,2.4
		c-0.7,0.4-2.8-0.6-3-1.4c-0.1-0.5,0.1-0.9,0.6-1.2c2-1.5,3.6-3.3,5.4-5c2.7-2.5,5-5.4,7.8-7.7c2.5-2.1,4.9-4.3,7.2-6.4
		c2.5-2.3,4.9-4.9,7.3-7.3c2.9-2.8,6-5.3,8.9-8c2.2-2.1,4.4-4.2,6.4-6.4c1.8-2,4-3.6,5.9-5.4c1.6-1.6,3.4-3,5-4.6
		c3-2.9,5.7-6.1,8.9-8.8c2.3-2,4.6-4,6.8-6c2.3-2.1,4.4-4.5,6.7-6.8c1.7-1.8,3.7-3.3,5.5-4.9c0.3-0.3,0.5-0.7,0.8-0.9
		c0.3-0.3,0.7-0.7,1.2-0.5C145.5,28.5,145.2,29,145.2,29.2z"/>
	<path class="st0" d="M130.8,107.9c0,0.4,0,0.6,0,0.9c0.1,2-0.3,2.1-2.2,2.3c-0.9,0.1-1.5,0.8-2.5,0.7c-2-0.1-3.9,0.7-5.8,1.1
		c-1.2,0.3-2.5,0.5-3.8,0.8c-1.9,0.5-3.9,1.1-5.8,1.4c-2.6,0.4-5,1.4-7.6,1.7c-3.2,0.4-6.4,1.3-9.5,1.9c-1.4,0.3-3,0.4-4.4,1
		c-0.9,0.4-1.8,0.4-2.7,0.6c-1,0.1-1.8,0.7-2.8,0.7c-1.6,0-3.1,0.6-4.6,1c-2.6,0.7-5.2,0.8-7.7,1.6c-0.5,0.2-1.1,0.3-1.4-0.2
		c-0.2-0.3-0.3-0.9,0.1-1.3c0.4-0.3,0.8-0.6,1.2-0.7c2.6-0.9,5.1-1.8,7.6-3c0.7-0.3,1.6-0.4,2-1.2c0.1-0.1,0.3-0.3,0.4-0.2
		c1.3,0.5,2.2-0.3,3.2-0.8c1.3-0.7,2.9-0.9,4.2-1.7c1.2-0.7,2.6-0.8,3.7-1.5c1.8-1,3.8-1.6,5.6-2.3c1.8-0.7,3.5-1.7,5.4-2.1
		c0.7-0.2,1.3-0.6,2-0.9c3.7-1.5,7.3-3.1,11-4.5c3.8-1.5,7.6-3.2,11.5-4.5c1.2-0.4,1.5-0.2,1.9,1c0.1,0.5,0.2,1.1,0.2,1.6
		c-0.1,1.5,0.1,3,0.7,4.4C131,106.5,130.7,107.3,130.8,107.9z"/>
</g>
</svg>
