<?xml version="1.0" encoding="utf-8"?>
<!-- Generator: Adobe Illustrator 27.3.1, SVG Export Plug-In . SVG Version: 6.00 Build 0)  -->
<svg version="1.1" id="Layer_1" xmlns="http://www.w3.org/2000/svg" xmlns:xlink="http://www.w3.org/1999/xlink" x="0px" y="0px"
	 viewBox="0 0 319.3 334.7" style="enable-background:new 0 0 319.3 334.7;" xml:space="preserve">
<style type="text/css">
	.st0{fill:#0000FF;}
	.st1{fill:#FFFFFF;}
</style>
<g>
	<circle class="st0" cx="159.7" cy="167.3" r="141.3"/>
	<g>
		<path class="st1" d="M126.1,95.6c1.7,0.4,4.4,1.1,7,1.8c1.5,0.4,2.9,0.8,4.4,1.2c4.1,1,7.7,0.1,10.5-3.1c1.5-1.7,2.9-3.4,4.3-5.1
			c4.3-4.9,10.8-5.2,15.5-0.6c2.3,2.2,4.5,4.6,6.8,6.8c3.3,3.3,7.1,4.1,11.5,2.6c2-0.7,4-1.5,6-2.2c5.8-2,11.6,1.1,13.3,6.9
			c0.9,3.2,1.7,6.4,2.6,9.6c1.2,4.5,4,7.2,8.6,8c2,0.4,4.1,0.7,6.1,1c6.1,1.1,9.9,6.8,8.3,12.8c-0.9,3.5-1.9,7-2.8,10.5
			c-0.9,3.8,0.2,7.1,3.1,9.7c1.6,1.5,3.4,2.9,5.1,4.3c5.1,4.4,5.4,10.9,0.7,15.8c-2.2,2.2-4.5,4.4-6.7,6.7
			c-3.3,3.3-4.1,7.1-2.6,11.5c0.7,1.8,1.3,3.6,2,5.4c2.3,6.4-0.7,12.3-7.4,14.1c-3,0.8-6,1.6-8.9,2.4c-4.7,1.2-7.4,4.3-8.1,9.1
			c-0.3,2.1-0.7,4.2-1.1,6.3c-1.2,5.5-6.6,9-12.1,7.8c-3.5-0.8-6.9-1.8-10.3-2.7c-4.3-1.1-8,0-10.9,3.4c-1.4,1.7-2.7,3.4-4.2,5
			c-4.2,4.7-10.7,4.9-15.1,0.6c-2.3-2.3-4.6-4.6-6.9-6.9c-3.3-3.3-7.2-4.2-11.6-2.6c-1.9,0.7-3.8,1.5-5.8,2.1c-5.9,2-11.7-1-13.4-7
			c-0.9-3.2-1.7-6.4-2.6-9.6c-1.2-4.4-4.1-7.2-8.7-7.9c-2-0.3-3.9-0.7-5.9-1c-6.2-1.1-10-6.8-8.4-12.9c0.8-3.2,1.7-6.3,2.6-9.5
			c1.2-4.5,0.1-8.2-3.5-11.2c-1.7-1.4-3.4-2.7-5-4.2c-4.6-4.1-4.8-10.6-0.5-15c2.2-2.3,4.5-4.6,6.8-6.8c3.6-3.5,4.4-7.5,2.6-12.1
			c-0.7-1.8-1.4-3.6-2-5.4c-2-5.9,1.1-11.8,7.1-13.6c3.2-0.9,6.4-1.7,9.6-2.6c4.6-1.2,7.1-4.3,7.9-8.9c0.4-2.1,0.7-4.3,1.1-6.4
			C116,98.9,120.3,95.6,126.1,95.6z M159.7,117.5c-27.4,0-49.8,22.4-49.8,49.8c0,27.4,22.2,49.8,49.7,49.9
			c27.4,0.1,49.9-22.4,49.9-49.9C209.5,139.9,187.1,117.5,159.7,117.5z"/>
		<path class="st1" d="M159.6,206.5c-21.7-0.1-39.2-17.7-39.2-39.4c0.1-21.5,17.8-39.1,39.4-39c21.6,0.1,39.1,17.7,39.1,39.3
			C198.8,189,181.2,206.6,159.6,206.5z M144.3,159.9C144.3,159.9,144.3,159.9,144.3,159.9c-1.9,0-3.9,0-5.8,0
			c-1.4,0-2.6,0.2-3.1,1.7c-0.5,1.5,0.3,2.5,1.5,3.4c2.8,1.9,5.5,4,8.2,5.9c3.3,2.4,3.3,2.4,2,6.1c-1.1,3.3-2.1,6.6-3.2,9.8
			c-0.4,1.3-0.5,2.5,0.7,3.4c1.2,0.9,2.4,0.5,3.5-0.3c3.1-2.3,6.3-4.5,9.4-6.9c1.6-1.2,2.9-1.2,4.4,0c3,2.3,6.2,4.5,9.2,6.8
			c1.2,0.9,2.3,1.4,3.6,0.4c1.2-0.9,1.1-2.1,0.7-3.4c-1.2-3.7-2.4-7.4-3.6-11c-0.6-1.7-0.2-3,1.3-4c3.2-2.2,6.4-4.6,9.6-6.9
			c1.2-0.8,1.8-1.9,1.3-3.3c-0.5-1.3-1.6-1.6-2.9-1.6c-3.9,0-7.9,0-11.8,0c-1.8,0-2.8-0.7-3.3-2.4c-1.2-3.8-2.4-7.5-3.6-11.2
			c-0.4-1.3-1.1-2.3-2.6-2.3c-1.5,0-2.2,1-2.6,2.4c-1.1,3.6-2.3,7.1-3.5,10.7c-0.9,2.6-1.2,2.9-4,2.9
			C147.8,159.9,146.1,159.9,144.3,159.9z"/>
	</g>
</g>
</svg>
