<?xml version="1.0" encoding="utf-8"?>
<!-- Generator: Adobe Illustrator 27.3.1, SVG Export Plug-In . SVG Version: 6.00 Build 0)  -->
<svg version="1.1" id="Layer_1" xmlns="http://www.w3.org/2000/svg" xmlns:xlink="http://www.w3.org/1999/xlink" x="0px" y="0px"
	 viewBox="0 0 403.6 390.2" style="enable-background:new 0 0 403.6 390.2;" xml:space="preserve">
<style type="text/css">
	.st0{fill:#FFFFFF;}
</style>
<g>
	<path class="st0" d="M315.8,57c0-3.5,0-6.7,0-10c0-5.7,2-7.7,7.6-7.7c3.3,0,6.7,0,10.3,0c0-8,0-15.7,0-23.7c4.1,0,7.9,0,11.9,0
		c0,7.7,0,15.4,0,23.7c2.6,0,4.9,0,7.2,0c10.2,0,11,0.8,11,11.1c0,2.1,0,4.2,0,6.7c6,0,11.8,0,17.8,0c0,4.1,0,7.8,0,11.9
		c-5.7,0-11.5,0-17.8,0c0,3.6,0,6.8,0,10c0,6.3-1.9,8.1-8.3,8.2c-3.1,0-6.2,0-9.5,0c0,71.9,0,143.5,0,215.7c3.5,0,7.1,0,10.6,0
		c4.9,0.1,7.1,2.2,7.2,7.1c0.1,3.5,0,6.9,0,10.9c3.2,0,6.1,0,9.1,0c2.8,0,5.7,0,8.7,0c0,4,0,7.7,0,11.8c-5.8,0-11.6,0-17.8,0
		c0,3.8,0,7.3,0,10.7c-0.1,5.2-2.2,7.3-7.3,7.4c-3.5,0-6.9,0-10.7,0c0,8.1,0,15.8,0,23.7c-4.1,0-7.9,0-11.9,0c0-7.7,0-15.4,0-23.7
		c-3.7,0-7.1,0-10.6,0c-5.4,0-7.5-2.1-7.6-7.4c0-3.4,0-6.7,0-10.6c-3.4,0-6.6,0-9.8,0c-8.9,0-17.8-0.1-26.6,0.1
		c-1.7,0-3.9,0.9-5.1,2.1c-8.4,8.1-16.5,16.3-24.7,24.5c-4.4,4.4-7,4.3-11.4,0c-8.2-8.2-16.4-16.4-24.7-24.6
		c-1.1-1.1-2.9-2.1-4.4-2.1c-39.8-0.1-79.5-0.1-119.3-0.1c-0.5,0-1,0.1-1.9,0.2c0,3.2,0,6.4,0,9.6c0,6.3-1.9,8.2-8.3,8.2
		c-3.1,0-6.2,0-9.6,0c0,8,0,15.7,0,23.7c-4.1,0-7.9,0-12.1,0c0-7.8,0-15.5,0-23.7c-3.9,0-7.3,0-10.8,0c-5.1-0.1-7.2-2.2-7.2-7.4
		c0-3.4,0-6.7,0-10.6c-3.1,0-6.1,0-9,0c-2.9,0-5.7,0-8.8,0c0-4,0-7.7,0-11.8c5.7,0,11.5,0,17.8,0c0-4,0-7.5,0-11.1
		c0.1-4.9,2.2-7,7.2-7.1c3.5,0,6.9,0,10.6,0c0-71.9,0-143.5,0-215.7c-3.1,0-6.3,0-9.5,0c-6.4,0-8.3-1.8-8.3-8.2c0-3.1,0-6.2,0-9.7
		c-6,0-11.8,0-17.8,0c0-4.1,0-7.8,0-11.9c5.7,0,11.5,0,17.8,0c0-3.3,0-6.3,0-9.2c0-7.3,1.6-8.9,9.1-8.9c2.8,0,5.7,0,8.8,0
		c0-8,0-15.7,0-23.7c4.1,0,7.8,0,12.1,0c0,7.8,0,15.5,0,23.7c3.9,0,7.3,0,10.8,0c5.1,0.1,7.2,2.2,7.3,7.4c0,3.4,0,6.7,0,10.3
		C163.7,57,239.5,57,315.8,57z M209.4,320.7c-1.9-1.3-3-2-4.2-2.7c-9.9-5.7-20.6-8.8-32.1-9.1c-4.7-0.1-6.7-1.7-7.4-5.8
		c-4-25.5-7.9-51-11.8-76.5c-0.7-4.9,2.4-8.2,7.2-7.5c25.7,3.9,51.3,7.9,77,11.8c3.6,0.6,5.4,2.7,5.7,6.3c0.2,3.1,0.3,6.2,0.8,9.3
		c1.5,10.5,5.4,20.1,11.6,28.7c5.3-3.2,7.2-3.3,10.5,0c9.6,9.5,19.1,19,28.6,28.6c3.4,3.4,3.3,6.4,0,9.8c-2.1,2.2-4.4,4.2-7.2,6.8
		c9.9,0,18.7,0,27.7,0c0-3.8,0-7.2,0-10.7c0.1-4.7,2.2-6.9,6.9-7c3.6-0.1,7.2,0,10.9,0c0-72.1,0-143.7,0-215.7c-3.7,0-7.2,0-10.7,0
		c-4.9-0.1-7-2.2-7.1-7.1c0-3.6,0-7.1,0-10.7c-76.3,0-152,0-228.1,0c0,3.6,0,7.1,0,10.6c-0.1,5.1-2.2,7.2-7.4,7.2
		c-3.5,0-6.9,0-10.3,0c0,72.1,0,143.8,0,215.7c3.6,0,7,0,10.4,0c5.2,0.1,7.3,2.1,7.4,7.2c0,3.5,0,6.9,0,10.6
		C128.2,320.7,168.3,320.7,209.4,320.7z M168.8,243.8c0,0.1-0.1,0.5,0,1c2.5,16.5,5.1,33,7.5,49.5c0.4,2.7,2,2.8,4,3.3
		c7.5,1.8,15.1,3.3,22.3,6c5.9,2.2,11.2,5.8,16.1,8.5c9.5-9.4,18.9-18.8,28.4-28.4c-8.4-11.4-13.7-24.6-15-39.2
		c-0.2-2.5-1.8-2.6-3.6-2.9c-11.3-1.7-22.7-3.5-34-5.2c-5.5-0.8-11-1.6-15.7-2.3c9.3,9.3,18.8,18.8,28.3,28.3
		c0.2-2.1,0.5-4.7,0.8-7.1c4,0,7.8,0,11.6,0c1.8,20-16,32-29.6,29.2c0-3.8,0-7.6,0-11.2c2.8-0.4,5.2-0.7,7.4-1
		C187.7,262.7,178.2,253.2,168.8,243.8z M243.3,347.2c13-13,26-26,38.7-38.6c-6.6-6.5-13.5-13.4-20.1-20
		c-12.8,12.7-25.8,25.7-38.6,38.6C229.9,333.8,236.9,340.8,243.3,347.2z M75.4,75.2c0-8.2,0-15.9,0-23.6c-8,0-15.7,0-23.5,0
		c0,8,0,15.7,0,23.6C59.9,75.2,67.6,75.2,75.4,75.2z M328,75c8.1,0,15.8,0,23.5,0c0-8,0-15.8,0-23.5c-8,0-15.7,0-23.5,0
		C328,59.4,328,67.1,328,75z M75.5,338.7c0-8.1,0-15.9,0-23.6c-8,0-15.7,0-23.5,0c0,8,0,15.7,0,23.6
		C59.9,338.7,67.6,338.7,75.5,338.7z M351.7,315.2c-8.1,0-15.9,0-23.7,0c0,8,0,15.8,0,23.4c8,0,15.8,0,23.7,0
		C351.7,330.7,351.7,323.1,351.7,315.2z"/>
	<path class="st0" d="M237.7,180.3c0,8.8,0,17.6,0,26.6c-4,0-7.7,0-11.7,0c-0.1-1.1-0.2-2.1-0.2-3.2c0-16.2,0-32.4,0-48.6
		c0-4.6,1.5-7.2,4.8-7.7c3.9-0.7,5.9,1.7,7.4,4.9c3.6,7.3,7.3,14.6,11.6,21.8c0-8.8,0-17.5,0-26.6c4.1,0,7.9,0,12,0
		c0.1,0.9,0.2,2,0.2,3.1c0,16.2,0,32.4,0,48.6c0,4.6-1.5,7.2-4.9,7.7c-3.9,0.6-5.9-1.7-7.4-4.9c-3.6-7.4-7.3-14.6-11-21.9
		C238.2,180.2,237.9,180.2,237.7,180.3z"/>
	<path class="st0" d="M131.3,177.1c9.7,12.8,1.8,27.6-10.1,29.5c-5.4,0.8-11,0.6-16.4,0.3c-3.2-0.2-5-2.7-5-6
		c0-15.8-0.1-31.7,0-47.5c0-3.8,2.4-6,6.2-6.1c4.4-0.1,8.8-0.2,13.1,0c13.2,0.9,20.8,15.5,14.2,26.9
		C132.8,175.1,132.1,176,131.3,177.1z M112,159.5c0,4,0,7.8,0,11.5c8.4,0.4,11.8-1.4,11.7-6C123.6,160.3,119.9,158.5,112,159.5z
		 M111.9,195c4.1-0.1,8.6,1.4,10.8-3c0.8-1.6,0.7-4.6-0.3-6.2c-2.4-4-6.7-2.5-10.6-2.6C111.9,187.2,111.9,190.9,111.9,195z"/>
	<path class="st0" d="M165.8,206.9c-0.1-8.1-2.2-15.4-7.1-21.6c-1-1.2-2.7-1.9-5-3.3c0,9.1,0,16.9,0,24.9c-4,0-7.7,0-12,0
		c0-1.1,0-2.3,0-3.5c0-16.1,0-32.2,0-48.2c0-6.1,1.9-8,8.1-8c3.1,0,6.2,0,9.4,0c8.1,0.1,14.5,4.4,17.2,11.5c2.8,7.1,1,14.4-5,20
		c-0.4,0.4-1,0.7-1.7,1.1c5.3,8.5,8.1,17.2,7.9,27.1C173.7,206.9,169.9,206.9,165.8,206.9z M154,159.3c0,4,0,7.8,0,11.8
		c3.9-0.1,8.3,1.4,10.6-2.7c0.9-1.7,0.9-4.8,0-6.5C162.1,157.8,157.8,159.4,154,159.3z"/>
	<path class="st0" d="M219.7,206.9c-4.2,0-7.9,0-11.8,0c0-5.9,0-11.6,0-17.5c-4.1,0-7.8,0-12,0c0,5.8,0,11.6,0,17.5
		c-4.1,0-7.8,0-11.5,0c-0.1-0.2-0.4-0.4-0.4-0.6c0-14.2-0.3-28.4,0-42.6c0.2-9.2,8.5-16.4,17.7-16.5c9.2-0.1,17.7,6.9,18,16.1
		C220,177.7,219.7,192.2,219.7,206.9z M207.7,177c0-4.2,0.1-8.1,0-12.1c-0.2-3.3-2.7-5.6-5.8-5.7c-3.1-0.1-5.9,2.2-6,5.4
		c-0.2,4.1-0.1,8.1-0.1,12.4C199.8,177,203.5,177,207.7,177z"/>
	<path class="st0" d="M267.8,177.2c0-7.6,0-15.2,0-22.8c0-4.9,2.2-7.1,7-7.2c3.7-0.1,7.5-0.1,11.2,0c9.7,0.2,17.4,7.7,17.6,17.3
		c0.2,8.4,0.2,16.7,0,25.1c-0.2,9.6-7.9,17.2-17.5,17.4c-3.7,0.1-7.5,0.1-11.2,0c-4.9-0.1-7.1-2.2-7.1-7.1
		C267.7,192.4,267.8,184.8,267.8,177.2z M279.9,195.1c2.2,0,4.1,0.1,5.9,0c3.5-0.2,5.8-2.4,5.9-6c0.1-8,0.1-15.9,0-23.9
		c-0.1-3.6-2.4-5.8-5.9-6c-1.9-0.1-3.9,0-5.9,0C279.9,171.3,279.9,183,279.9,195.1z"/>
</g>
</svg>
