<?xml version="1.0" encoding="utf-8"?>
<!-- Generator: Adobe Illustrator 27.3.1, SVG Export Plug-In . SVG Version: 6.00 Build 0)  -->
<svg version="1.1" id="Layer_1" xmlns="http://www.w3.org/2000/svg" xmlns:xlink="http://www.w3.org/1999/xlink" x="0px" y="0px"
	 viewBox="0 0 319.3 334.7" style="enable-background:new 0 0 319.3 334.7;" xml:space="preserve">
<style type="text/css">
	.st0{fill:#0000FF;}
	.st1{fill:#FFFFFF;}
</style>
<g>
	<circle class="st0" cx="159.7" cy="167.3" r="141.3"/>
	<g>
		<path class="st1" d="M226.8,110.7c0,0.9,0,1.7,0,2.6c-0.7,2.4-2.4,4.1-4.1,5.8c-15.7,15.7-31.3,31.3-47,47
			c-0.4,0.4-0.9,0.6-1.6,1.1c0.8,0.6,1.2,0.9,1.6,1.3c15.6,15.6,31.3,31.3,46.9,46.9c1.7,1.7,3.4,3.4,4.2,5.9c0,0.9,0,1.7,0,2.6
			c-1.3,4.1-4.6,6.6-7.7,9.2c-2.9,2.4-6.8,1.6-9.8-1.4c-16.1-16.1-32.3-32.3-48.4-48.4c-0.4-0.4-0.7-0.7-1.3-1.2
			c-0.4,0.4-0.6,0.8-1,1.2c-16,16.1-32.1,32.1-48.1,48.1c-0.5,0.5-0.9,0.9-1.4,1.3c-2.4,2-5.8,2.5-8.3,0.6c-2.6-2-5-4.4-7-7
			c-2.2-2.9-1.3-6.5,1.6-9.4c16.1-16.1,32.3-32.3,48.4-48.4c0.4-0.4,0.7-0.7,1.1-1.2c-0.5-0.4-0.9-0.8-1.3-1.1
			c-16-16-32-32-48.1-48.1c-0.5-0.5-1-1-1.4-1.5c-2-2.5-2.3-6.1-0.3-8.5c2.6-3.1,5-6.4,9.2-7.7c0.9,0,1.7,0,2.6,0
			c2.4,0.7,4.1,2.4,5.9,4.2c15.6,15.7,31.3,31.3,46.9,46.9c0.4,0.4,0.6,0.9,1.1,1.6c0.6-0.8,0.9-1.2,1.3-1.6
			c15.6-15.6,31.3-31.3,46.9-46.9c1.7-1.7,3.4-3.4,5.9-4.2c0.9,0,1.7,0,2.6,0C221.1,102.4,224.6,105.9,226.8,110.7z"/>
	</g>
</g>
</svg>
