<?xml version="1.0" encoding="utf-8"?>
<!-- Generator: Adobe Illustrator 27.3.1, SVG Export Plug-In . SVG Version: 6.00 Build 0)  -->
<svg version="1.1" id="Layer_1" xmlns="http://www.w3.org/2000/svg" xmlns:xlink="http://www.w3.org/1999/xlink" x="0px" y="0px"
	 viewBox="0 0 32 32" style="enable-background:new 0 0 32 32;" xml:space="preserve">
<style type="text/css">
	.st0{fill:#0000FF;}
</style>
<g>
	<path class="st0" d="M11.9,19.2c1.4-1.4,2.8-2.8,4.2-4.2c3.2-3.2,6.4-6.4,9.6-9.6c1.7-1.7,4.4-1.4,5.6,0.7c0.7,1.3,0.6,2.9-0.4,4.1
		c-0.1,0.1-0.2,0.2-0.3,0.3c-5.3,5.3-10.7,10.7-16,16c-1,1-2.1,1.4-3.5,1.1c-0.6-0.2-1.2-0.5-1.6-1c-2.7-2.7-5.3-5.3-8-8
		c-1.4-1.4-1.4-3.6,0-5c1.4-1.4,3.6-1.4,4.9,0c1.8,1.8,3.5,3.5,5.3,5.3C11.7,19,11.8,19.1,11.9,19.2z"/>
</g>
</svg>
