<?xml version="1.0" encoding="utf-8"?>
<!-- Generator: Adobe Illustrator 27.3.1, SVG Export Plug-In . SVG Version: 6.00 Build 0)  -->
<svg version="1.1" id="Layer_1" xmlns="http://www.w3.org/2000/svg" xmlns:xlink="http://www.w3.org/1999/xlink" x="0px" y="0px"
	 viewBox="0 0 319.3 334.7" style="enable-background:new 0 0 319.3 334.7;" xml:space="preserve">
<style type="text/css">
	.st0{fill:#0000FF;}
	.st1{fill:#FFFFFF;}
</style>
<g>
	<circle class="st0" cx="159.7" cy="167.3" r="141.3"/>
	<g>
		<path class="st1" d="M242.8,148.4c-0.9,1.1-1.6,2.3-2.6,3.4c-3,3.1-6.2,6.2-9.3,9.3c-2.6,2.6-3.4,5.8-2.8,9.4
			c0.2,1.4,0.2,2.9,0.3,4.6c-10.8-10.8-21.3-21.3-31.9-31.9c-0.8,0.7-1.2,1.1-1.6,1.5c-5.4,5-11.5,5.8-18.2,3.3
			c-2.2-0.8-4.2-2.2-6.2-3.3c-5.1-3-11.3-2.6-15.9,1.2c-2.1,1.8-4.2,3.6-7,4.4c-5.2,1.4-9.8,0.2-13.7-3.5c-2-1.8-1.9-4.6,0-6.6
			c2.4-2.5,4.9-5,7.4-7.4c4-4,8-8,12.1-11.9c2.7-2.5,6-3.5,9.6-3.5c5,0,10,0,15,0c3.3,0,6.1-1,8.4-3.5c2.7-2.9,5.6-5.6,8.4-8.4
			c2.7-2.7,5.1-2.7,7.7,0c12.7,12.7,25.4,25.4,38.1,38.1c0.8,0.8,1.3,1.9,2,2.9C242.8,146.9,242.8,147.7,242.8,148.4z"/>
		<path class="st1" d="M144,116.9c-5.6,5.6-10.8,10.8-16,16c-2.4,2.3-4,5-4.5,8.4c-0.8,5.6,1.4,10,5.7,13.5c8.8,7.1,21.6,6.8,30-0.9
			c3.2-2.9,5.1-2.9,8.3,0c7.4,6.8,18.5,7.9,27.2,2.8c0.3-0.2,0.6-0.4,1-0.6c0.3,0.2,0.6,0.4,0.8,0.7c9,9,18,18,27,27
			c2.2,2.2,3.1,4.7,2.1,7.7c-1.7,4.8-7.7,6.2-11.5,2.5c-3.5-3.4-6.9-6.9-10.4-10.4c-0.4-0.4-0.7-0.7-1.1-1.1c-2-1.7-4.6-1.7-6.4,0
			c-1.8,1.8-1.9,4.6-0.1,6.5c3.6,3.7,7.3,7.3,10.9,11c1,1,1.8,2.3,2.3,3.6c1,2.9-0.3,6-2.8,7.7c-2.6,1.7-5.9,1.5-8.3-0.6
			c-0.5-0.4-0.9-0.8-1.3-1.3c-3.5-3.5-6.9-6.9-10.4-10.4c-2-2-4.8-2-6.6-0.2c-1.9,1.8-1.8,4.6,0,6.6c0.3,0.3,0.6,0.6,0.9,0.9
			c3.3,3.3,6.6,6.6,9.9,9.9c3.3,3.3,3.5,7.5,0.5,10.4c-2.9,2.9-7.1,2.6-10.3-0.6c-1.9-1.9-3.8-3.8-5.7-5.7c-3-3-6.5-4.8-10.8-5
			c-0.9,0-1.3-0.3-1.3-1.2c-0.5-7.2-4.3-11.9-11-14.4c-0.1-0.1-0.3-0.2-0.5-0.3c2.9-7.1,2.2-13.7-3.5-19.2
			c-3.7-3.6-10.4-6.1-18.4-2.6c-2-6.1-6.2-10.2-12.6-11.3c-6.3-1.1-11.6,1.1-16,6.1c-0.5-1.5-1-2.7-1.4-4c-1.2-4-3.4-7.4-6.3-10.3
			c-2.4-2.4-4.7-4.8-7-7.2c-2.5-2.6-2.5-5,0-7.5c12.8-12.8,25.5-25.6,38.3-38.3c2.5-2.5,5-2.5,7.5,0
			C136.2,109.4,140,113.1,144,116.9z"/>
		<path class="st1" d="M121.7,215.8c-3.8-0.1-6-1.4-7.2-4.1c-1.2-2.8-0.7-5.5,1.4-7.7c3.5-3.6,7-7.1,10.6-10.6c2-2,4-4,6-6
			c2.1-1.9,4.5-2.4,7.2-1.4c2.6,1,4.1,3,4.4,5.8c0.2,1.9-0.3,3.7-1.7,5.1c-5.6,5.7-11.3,11.4-17.1,17
			C124.2,215.1,122.5,215.5,121.7,215.8z"/>
		<path class="st1" d="M97.5,192.5c0-2,0.7-3.6,2.1-5c3.2-3.2,6.4-6.5,9.6-9.6c3-2.9,7.2-2.9,10-0.1c2.7,2.7,2.6,7-0.2,10
			c-3.2,3.2-6.4,6.4-9.6,9.6c-2.2,2.1-4.9,2.7-7.7,1.4C98.9,197.6,97.6,195.4,97.5,192.5z"/>
		<path class="st1" d="M138,232.2c-3.7-0.1-5.9-1.4-7.1-4c-1.2-2.5-1-5.2,0.9-7.2c3.5-3.8,7.1-7.4,10.9-10.9c2.5-2.3,6.7-2,9.1,0.4
			c2.5,2.5,2.9,6.7,0.5,9.2c-3.5,3.8-7.2,7.4-10.9,10.9C140.4,231.6,138.7,231.9,138,232.2z"/>
		<path class="st1" d="M161,242.1c-3.7-0.1-5.9-1.4-7.1-4c-1.3-2.6-1-5.1,0.9-7.3c1.3-1.5,2.7-2.9,4.2-4.3c2.7-2.3,6.7-2.1,9.2,0.4
			c2.6,2.5,2.8,6.6,0.4,9.3c-1.3,1.5-2.7,3-4.3,4.2C163.2,241.3,161.7,241.7,161,242.1z"/>
	</g>
</g>
</svg>
