<?xml version="1.0" encoding="utf-8"?>
<!-- Generator: Adobe Illustrator 27.3.1, SVG Export Plug-In . SVG Version: 6.00 Build 0)  -->
<svg version="1.1" id="Layer_1" xmlns="http://www.w3.org/2000/svg" xmlns:xlink="http://www.w3.org/1999/xlink" x="0px" y="0px"
	 viewBox="0 0 100 100" style="enable-background:new 0 0 100 100;" xml:space="preserve">
<style type="text/css">
	.st0{fill:#0000FF;}
</style>
<g>
	<path class="st0" d="M50.1,8.8c9.6,0,19.3,0,28.9,0c7.5,0,13.4,4.7,15,11.8c0.3,1.3,0.4,2.6,0.4,3.9c0,11.3,0,22.6,0,33.9
		c0,9.1-6.6,15.8-15.8,15.8c-9.6,0-19.3,0-28.9,0c-0.7,0-1.1,0.2-1.5,0.9c-2.6,4.6-5.3,9.2-7.9,13.8c-1.7,3-4.8,3-6.5,0
		c-2.7-4.6-5.3-9.3-8-13.9c-0.4-0.6-0.8-0.9-1.5-0.9c-2.2-0.1-4.4,0-6.5-0.4c-7-1.3-12.2-7.6-12.3-14.7c-0.1-11.7-0.1-23.5,0-35.2
		c0-8.5,6.8-15.1,15.3-15.1C30.7,8.8,40.4,8.8,50.1,8.8z M37.1,80.9c2.2-3.8,4.3-7.4,6.3-11.1c0.9-1.7,2.2-2.5,4.2-2.4
		c10.3,0.1,20.7,0,31,0c5.4,0,9-3.6,9-9c0-11.3,0-22.5,0-33.8c0-1-0.1-2.1-0.4-3.1c-1.1-3.7-4.3-5.9-8.5-5.9c-18.5,0-37.1,0-55.6,0
		c-0.9,0-1.7,0-2.6,0c-4.3,0.2-8,3.7-8,8c-0.1,11.8-0.1,23.7,0,35.5c0,4.1,3.3,7.6,7.3,8c2.3,0.2,4.7,0.2,7,0.1
		c1.5,0,2.6,0.6,3.4,1.8c1.5,2.5,3,5.1,4.5,7.6C35.5,78.1,36.2,79.4,37.1,80.9z"/>
	<path class="st0" d="M50.1,30.4c4.8,0,9.5,0,14.3,0c1.6,0,2.9,1,3.3,2.4c0.4,1.5-0.1,3-1.5,3.8c-0.6,0.3-1.3,0.6-2,0.6
		c-9.4,0-18.9,0-28.3,0c-2.1,0-3.6-1.5-3.6-3.4c0-2,1.5-3.4,3.6-3.4C40.6,30.4,45.3,30.4,50.1,30.4C50.1,30.4,50.1,30.4,50.1,30.4z"
		/>
	<path class="st0" d="M40.7,45.8c1.6,0,3.1,0,4.7,0c2.1,0,3.6,1.5,3.6,3.4c0,1.9-1.5,3.4-3.6,3.4c-3.2,0-6.4,0-9.6,0
		c-2.1,0-3.6-1.5-3.6-3.4c0-1.9,1.5-3.3,3.6-3.4c0.1,0,0.1,0,0.2,0C37.6,45.8,39.2,45.8,40.7,45.8z"/>
	<path class="st0" d="M63.1,45.7c0.6,0,1.1,0,1.7,0.1c1.6,0.2,2.9,1.6,2.9,3.3c0,1.6-1.2,3.2-2.8,3.4c-1.1,0.1-2.3,0.1-3.4,0
		c-1.8-0.2-3.1-1.7-3-3.4c0-1.7,1.4-3.2,3.1-3.3C62.1,45.7,62.6,45.8,63.1,45.7C63.1,45.8,63.1,45.8,63.1,45.7z"/>
</g>
</svg>
