<?xml version="1.0" encoding="utf-8"?>
<!-- Generator: Adobe Illustrator 27.3.1, SVG Export Plug-In . SVG Version: 6.00 Build 0)  -->
<svg version="1.1" id="Layer_1" xmlns="http://www.w3.org/2000/svg" xmlns:xlink="http://www.w3.org/1999/xlink" x="0px" y="0px"
	 viewBox="0 0 100 100" style="enable-background:new 0 0 100 100;" xml:space="preserve">
<style type="text/css">
	.st0{fill:#0000FF;}
</style>
<g>
	<path class="st0" d="M88.3,94.7c-20.6,0-41.1,0-61.7,0c0,0-0.1-0.1-0.1-0.1c-4.3-1.1-6.3-3.7-6.3-8.2c0-4.3,0-8.5,0-12.8
		c0-0.4-0.2-1-0.5-1.3c-3.6-3.6-7.1-7.2-10.7-10.7c-1.7-1.6-3.2-3.3-3.6-5.7c0-0.7,0-1.4,0-2.1c0.5-2.4,2-4,3.6-5.7
		C22.1,35.1,35.2,21.9,48.3,8.8c1.6-1.6,3.3-3.1,5.6-3.5c0.7,0,1.4,0,2.1,0c2,0.4,3.6,1.4,5,2.9c2.2,2.3,4.5,4.5,6.7,6.7
		c6.2,6.2,12.5,12.5,18.7,18.7c2.4,2.4,2.9,5.2,1.8,8.4c-0.1,0.2-0.1,0.4-0.1,0.5c3.2,0.5,5.3,2.1,6.4,5.1c0.2,0.4,0.3,0.9,0.4,1.3
		c0,13.1,0,26.2,0,39.3c-0.1,0.2-0.1,0.5-0.2,0.7c-0.7,2.4-2.1,4.2-4.4,5.2C89.5,94.4,88.9,94.6,88.3,94.7z M57.4,91.8
		c9.8,0,19.5,0,29.3,0c3.3,0,5.1-1.8,5.1-5.1c0-12,0-24,0-36c0-3.4-1.8-5.1-5.1-5.1c-19.5,0-39,0-58.4,0c-3.3,0-5.1,1.8-5.1,5.1
		c0,12,0,24.1,0,36.1c0,3.3,1.8,5.1,5.1,5.1C37.9,91.8,47.7,91.8,57.4,91.8z M42.1,42.5c0.3,0,0.5,0,0.7,0c13.6,0,27.1,0,40.7,0
		c0.4,0,0.9-0.2,1.2-0.5c1.6-1.8,1.4-4.4-0.4-6.2C78.6,30.1,73,24.5,67.4,18.9c-0.3-0.3-0.5-0.6-0.7-0.9
		C58.4,26.2,50.3,34.3,42.1,42.5z M9.6,58c3.8-3.8,7.6-7.6,11.4-11.4c0.8-0.8,1.4-1.7,2.2-2.5c0.5-0.5,1.2-0.9,1.7-1.4
		c10.8-10.8,21.6-21.6,32.4-32.4c0.2-0.2,0.5-0.4,0.9-0.6c-0.3-0.2-0.4-0.3-0.5-0.4c-1.9-1.5-4.4-1.2-6.2,0.6
		C37.6,23.7,23.7,37.6,9.8,51.5c-0.3,0.3-0.5,0.5-0.7,0.9C7.8,54.1,8,56.5,9.6,58z M60.2,11.9C50,22.1,39.8,32.3,29.6,42.5
		c0.2,0,0.5,0,0.8,0c2.1,0,4.3,0,6.4,0c0.7,0,1.2-0.2,1.7-0.7c8.4-8.5,16.9-16.9,25.3-25.3c0.2-0.2,0.4-0.4,0.6-0.6
		C62.9,14.5,61.5,13.2,60.2,11.9z M11.8,60.2c1.3,1.3,2.7,2.7,4.1,4.1c1.3-1.3,2.7-2.7,4-4c0.2-0.2,0.2-0.6,0.2-0.9
		c0-2.3,0-4.6,0-6.9c0-0.2,0-0.4-0.1-0.5C17.3,54.7,14.5,57.5,11.8,60.2z M20.1,68.5c0-1.3,0-2.6,0-3.8c-0.7,0.6-1.4,1.2-2,1.8
		C18.8,67.1,19.4,67.8,20.1,68.5z"/>
	<path class="st0" d="M33.6,61.9c-1.5,0-2.9,0-4.4,0c-1.8,0-3-1.2-3-2.9c-0.1-2-0.1-4,0-6c0.1-1.8,1.3-3,3.1-3c2.9,0,5.8,0,8.6,0
		c1.9,0,3.1,1.2,3.2,3.1c0,1.9,0,3.8,0,5.7c0,1.9-1.2,3.1-3.1,3.1C36.5,61.9,35,61.9,33.6,61.9z M38,58.9c0-2,0-3.9,0-5.9
		c-3,0-5.9,0-8.8,0c0,2,0,3.9,0,5.9C32.2,58.9,35.1,58.9,38,58.9z"/>
	<path class="st0" d="M54.5,73.9c0.9,0,1.9,0,2.8,0c1,0,1.6,0.6,1.6,1.5c0,0.9-0.6,1.5-1.6,1.5c-1.9,0-3.8,0-5.8,0
		c-1,0-1.6-0.7-1.6-1.5c0-0.8,0.6-1.4,1.6-1.5C52.6,73.9,53.6,73.9,54.5,73.9z"/>
	<path class="st0" d="M42.5,82.8c-0.9,0-1.9,0-2.8,0c-1,0-1.7-0.6-1.7-1.5c0-0.9,0.6-1.4,1.7-1.5c1.8,0,3.7,0,5.5,0
		c1.1,0,1.7,0.6,1.7,1.4c0,0.9-0.7,1.5-1.8,1.5C44.4,82.8,43.5,82.8,42.5,82.8z"/>
	<path class="st0" d="M42.6,73.9c0.9,0,1.9,0,2.8,0c1,0,1.6,0.6,1.6,1.4c0,0.9-0.6,1.5-1.7,1.5c-1.9,0-3.8,0-5.7,0
		c-1,0-1.6-0.6-1.6-1.5c0-0.9,0.6-1.4,1.6-1.5c0.1,0,0.1,0,0.2,0C40.8,73.9,41.7,73.9,42.6,73.9C42.6,73.9,42.6,73.9,42.6,73.9z"/>
	<path class="st0" d="M30.7,79.8c1,0,1.9,0,2.9,0c0.9,0,1.5,0.6,1.5,1.4c0,0.8-0.6,1.5-1.5,1.5c-2,0-4,0-5.9,0
		c-0.9,0-1.5-0.7-1.5-1.5c0-0.8,0.6-1.4,1.5-1.4C28.7,79.8,29.7,79.8,30.7,79.8z"/>
	<path class="st0" d="M30.6,73.9c1,0,1.9,0,2.9,0c1,0,1.6,0.7,1.6,1.5c0,0.8-0.6,1.4-1.5,1.5c-1.9,0-3.9,0-5.9,0
		c-1,0-1.6-0.7-1.5-1.5c0-0.8,0.6-1.4,1.6-1.4C28.7,73.8,29.7,73.9,30.6,73.9z"/>
	<path class="st0" d="M26.2,67.9c0-0.5,0-1,0-1.6c0.1-0.8,0.7-1.4,1.4-1.4c0.7,0,1.4,0.5,1.5,1.3c0.1,1.1,0.1,2.2,0,3.3
		c0,0.8-0.7,1.3-1.5,1.3c-0.8,0-1.4-0.5-1.4-1.3C26.1,69,26.2,68.4,26.2,67.9z"/>
	<path class="st0" d="M53,67.9c0,0.5,0,1,0,1.6c-0.1,0.9-0.7,1.4-1.5,1.4c-0.8,0-1.4-0.6-1.5-1.4c0-1,0-2.1,0-3.1
		c0-0.8,0.7-1.4,1.5-1.4c0.7,0,1.4,0.6,1.4,1.4C53,66.8,53,67.3,53,67.9z"/>
	<path class="st0" d="M38.1,67.8c0-0.5,0-1,0-1.5c0-0.8,0.6-1.4,1.4-1.4c0.7-0.1,1.5,0.5,1.5,1.2c0.1,1.2,0.1,2.3,0,3.5
		c-0.1,0.8-0.8,1.3-1.6,1.2c-0.8-0.1-1.3-0.6-1.3-1.4C38.1,68.9,38.1,68.4,38.1,67.8z"/>
	<path class="st0" d="M44,67.9c0-0.5,0-1,0-1.5c0-0.9,0.6-1.5,1.4-1.5c0.8,0,1.5,0.5,1.5,1.4c0.1,1.1,0.1,2.2,0,3.2
		c0,0.8-0.7,1.4-1.5,1.3c-0.8,0-1.4-0.6-1.4-1.5C44,68.9,44,68.4,44,67.9z"/>
	<path class="st0" d="M64.9,67.9c0,0.6,0,1.1,0,1.7c-0.1,0.8-0.6,1.3-1.4,1.3c-0.8,0-1.4-0.4-1.5-1.1c-0.1-1.2-0.1-2.4,0-3.6
		c0.1-0.7,0.8-1.2,1.5-1.1c0.8,0.1,1.3,0.5,1.3,1.4C64.9,66.8,64.9,67.3,64.9,67.9z"/>
	<path class="st0" d="M32.1,67.9c0-0.5,0-1,0-1.6c0.1-0.8,0.6-1.3,1.3-1.4c0.7-0.1,1.5,0.4,1.5,1.1c0.1,1.2,0.1,2.4,0,3.6
		c-0.1,0.8-0.7,1.2-1.5,1.1c-0.7,0-1.3-0.6-1.4-1.3C32.1,69,32.1,68.4,32.1,67.9z"/>
	<path class="st0" d="M79.9,67.9c0-0.5,0-1,0-1.6c0-0.8,0.5-1.3,1.3-1.4c0.7-0.1,1.5,0.4,1.5,1.1c0.1,1.2,0.1,2.5,0,3.7
		c-0.1,0.8-0.7,1.2-1.5,1.1c-0.8-0.1-1.2-0.5-1.3-1.3C79.8,69,79.9,68.4,79.9,67.9C79.9,67.9,79.9,67.9,79.9,67.9z"/>
	<path class="st0" d="M73.9,67.8c0-0.6,0-1.1,0-1.7c0.1-0.7,0.7-1.3,1.4-1.3c0.7,0,1.4,0.4,1.4,1.2c0.1,1.2,0.1,2.4,0,3.6
		c-0.1,0.8-0.8,1.2-1.5,1.1c-0.8-0.1-1.2-0.5-1.3-1.3C73.9,69,73.9,68.4,73.9,67.8z"/>
	<path class="st0" d="M70.8,67.9c0,0.6,0,1.1,0,1.7c-0.1,0.8-0.6,1.2-1.3,1.3c-0.8,0.1-1.5-0.4-1.5-1.1c-0.1-1.2-0.1-2.4,0-3.6
		c0.1-0.8,0.7-1.1,1.4-1.1c0.7,0,1.3,0.5,1.4,1.3C70.9,66.8,70.8,67.4,70.8,67.9z"/>
</g>
</svg>
