<?xml version="1.0" encoding="utf-8"?>
<!-- Generator: Adobe Illustrator 27.3.1, SVG Export Plug-In . SVG Version: 6.00 Build 0)  -->
<svg version="1.1" id="Layer_1" xmlns="http://www.w3.org/2000/svg" xmlns:xlink="http://www.w3.org/1999/xlink" x="0px" y="0px"
	 viewBox="0 0 100 100" style="enable-background:new 0 0 100 100;" xml:space="preserve">
<style type="text/css">
	.st0{fill:#0000FF;}
</style>
<g>
	<path class="st0" d="M5.1,9.7c0.3-0.6,0.4-1.2,0.8-1.7c1-1.7,2.6-2.6,4.6-2.6c1.6,0,3.3,0,4.9,0c19.7,0,39.4,0,59.1,0
		c3.9,0,6,2.2,6,6c0,3.3,0,6.7,0,10c0,0.4,0,0.9-0.3,1.1c-0.4,0.3-1,0.6-1.4,0.5c-0.4-0.1-0.8-0.8-0.9-1.2c-0.1-1.4,0-2.8,0-4.2
		c0-2.2,0-4.4,0-6.7c0-1.8-1.2-2.9-2.9-2.9c-10.1,0-20.1,0-30.2,0c-0.2,0-0.3,0-0.6,0c0,0.3,0,0.6,0,0.9c0,3,0,5.9,0,8.9
		c0,1.4-0.4,1.8-1.8,1.8c-0.7,0-1.4,0-2.1,0c-2.8,0.2-4.8,2.5-4.8,5.4c0.1,2.7,2.3,4.9,5,5c0.6,0,1.2,0,1.8,0c1.4,0,1.8,0.4,1.8,1.8
		c0,3,0,5.9,0,8.9c0,0.3,0,0.6,0,1c3,0,6,0,9,0c-0.1-2.9,0.9-5.3,3.2-7c1.5-1.2,3.2-1.7,5.1-1.6c2.2,0.1,4.1,1,5.6,2.7
		c1.5,1.7,2,3.7,1.9,5.9c3,0,6,0,9,0c0-1.2,0-2.3,0-3.4c0-3.3,0-6.7,0-10c0-1.1,0.5-1.7,1.3-1.7c0.8,0,1.3,0.6,1.3,1.7
		c0,4.8,0,9.6,0,14.5c0,1.1-0.5,1.6-1.6,1.6c-3.7,0-7.4,0-11.1,0c-1.1,0-1.5-0.5-1.6-1.6c0-0.7,0-1.5,0-2.2c-0.1-2.8-2.4-5-5.2-4.9
		c-2.7,0-5,2.3-5.1,5c0,0.7,0,1.3,0,2c0,1.2-0.5,1.7-1.7,1.7c-3,0-5.9,0-8.9,0c-0.3,0-0.6,0-1,0c0,3,0,6,0,9c2.7-0.1,5,0.7,6.8,2.8
		c1.3,1.5,1.9,3.3,1.9,5.2c-0.1,4.4-3.1,7.1-8.7,7.7c0,0.3,0,0.6,0,0.9c0,2.9,0,5.8,0,8.8c0,1.6-0.4,1.9-1.9,1.9
		c-4.6,0-9.3,0-13.9,0c-0.3,0-0.5,0-0.8,0c-0.7-0.2-1.1-0.6-1.1-1.4c0-0.7,0.5-1.1,1.2-1.2c0.3,0,0.5,0,0.8,0c4,0,8.1,0,12.1,0
		c0.3,0,0.6,0,1,0c0-0.8,0-1.6,0-2.3c0-2.5,0-5,0-7.5c0-1.4,0.4-1.8,1.8-1.8c0.7,0,1.4,0,2.1,0c2.8-0.2,4.9-2.5,4.8-5.3
		c-0.1-2.7-2.3-5-5-5.1c-0.6,0-1.3,0-1.9,0c-1.3,0-1.7-0.4-1.8-1.7c0-3,0-5.9,0-8.9c0-0.3,0-0.6,0-1c-3,0-6,0-9,0
		c0.1,2.8-0.8,5.2-3.1,7c-1.5,1.2-3.3,1.7-5.2,1.6c-4.1-0.2-6.8-3.2-7.5-8.6c-2.9,0-5.9,0-8.9,0c0,0.3,0,0.6,0,0.9
		c0,9.9,0,19.8,0,29.6c0,2.1,1.1,3.1,3.1,3.1c3.4,0,6.8,0,10.3,0c1.1,0,1.7,0.4,1.7,1.3c0,0.9-0.6,1.3-1.7,1.3c-3.4,0-6.8,0-10.3,0
		c-2.9,0-4.8-1.4-5.6-4.2c0-0.1-0.1-0.1-0.1-0.2C5.1,54.1,5.1,31.9,5.1,9.7z M41.4,7.9c-0.4,0-0.7,0-0.9,0c-9.8,0-19.7,0-29.5,0
		c-2.2,0-3.2,1.1-3.2,3.2c0,9.8,0,19.7,0,29.5c0,0.3,0,0.6,0,1c0.4,0,0.7,0,1,0c3,0,6,0,9,0c1.2,0,1.6,0.4,1.6,1.6
		c0,0.8,0,1.6,0.1,2.4c0.3,2.5,2.4,4.5,4.8,4.6c2.7,0.1,4.9-1.6,5.4-4.2c0.2-0.9,0.1-1.8,0.1-2.7c0-1.3,0.4-1.7,1.7-1.7
		c3,0,5.9,0,8.9,0c0.3,0,0.6,0,1,0c0-3.1,0-6,0-9c-5.3-0.6-8.2-3-8.6-7c-0.2-1.9,0.2-3.7,1.3-5.2c1.8-2.5,4.3-3.6,7.3-3.5
		C41.4,13.9,41.4,11,41.4,7.9z"/>
	<path class="st0" d="M83.3,55.7c1.5,0,2.9,0,4.3,0c1.8,0,3.7,0,5.5,0c1.3,0,1.7,0.4,1.7,1.8c0,10.5,0,21.1,0,31.6
		c0,3.3-2.3,5.6-5.6,5.6c-10.5,0-21.1,0-31.6,0c-1.4,0-1.8-0.4-1.8-1.8c0-3.6,0-7.2,0-10.8c0-1.3,0.4-1.7,1.7-1.7c0.7,0,1.4,0,2.1,0
		c2.8-0.2,4.8-2.4,4.8-5.2c0-2.7-2.3-5-5-5.1c-0.7,0-1.4,0-2.1,0c-1.1,0-1.6-0.5-1.6-1.5c0-3.7,0-7.4,0-11.1c0-1.2,0.4-1.6,1.7-1.6
		c3,0,6,0,8.9,0c0.3,0,0.6,0,1,0c-0.1-3,0.9-5.5,3.4-7.3c1.6-1.1,3.3-1.5,5.2-1.4C80.2,47.4,82.7,50.3,83.3,55.7z M92.3,58.3
		c-0.4,0-0.7,0-1.1,0c-3,0-5.9,0-8.9,0c-1.3,0-1.7-0.4-1.7-1.7c0-0.8,0-1.6-0.1-2.4c-0.3-2.5-2.3-4.4-4.8-4.6
		c-2.6-0.1-4.9,1.5-5.4,4c-0.2,0.9-0.2,1.9-0.2,2.8c0,1.5-0.4,1.9-1.9,1.9c-2.9,0-5.8,0-8.7,0c-0.3,0-0.6,0-1,0c0,3.1,0,6,0,9
		c5.1,0.5,8.3,3.2,8.6,7.2c0.1,2-0.3,3.8-1.5,5.4c-1.8,2.4-4.2,3.3-7.1,3.2c0,3,0,6,0,9c0.4,0,0.7,0,1.1,0c9.8,0,19.5,0,29.3,0
		c2.3,0,3.3-1,3.3-3.3c0-9.8,0-19.6,0-29.4C92.3,59,92.3,58.7,92.3,58.3z"/>
</g>
</svg>
