<?xml version="1.0" encoding="utf-8"?>
<!-- Generator: Adobe Illustrator 27.3.1, SVG Export Plug-In . SVG Version: 6.00 Build 0)  -->
<svg version="1.1" id="Layer_1" xmlns="http://www.w3.org/2000/svg" xmlns:xlink="http://www.w3.org/1999/xlink" x="0px" y="0px"
	 viewBox="0 0 319.3 334.7" style="enable-background:new 0 0 319.3 334.7;" xml:space="preserve">
<style type="text/css">
	.st0{fill:#0000FF;}
	.st1{fill:#FFFFFF;}
</style>
<circle class="st0" cx="159.7" cy="167.3" r="141.3"/>
<g>
	<path class="st1" d="M247,161.8c0,3.6,0,7.3,0,10.9c-0.1,0.4-0.2,0.9-0.3,1.3c-1,13.5-4.9,26.2-12,37.8
		c-13.8,22.6-33.8,36.5-59.8,41.4c-3.2,0.6-6.5,0.9-9.7,1.4c-3.6,0-7.3,0-10.9,0c-0.5-0.1-1-0.3-1.5-0.3c-18.4-1.5-34.9-7.9-48.8-20
		c-26.2-22.8-36.3-51.6-29.4-85.7c7.8-38.7,43.1-67.7,82.5-68.6c18.4-0.4,35.3,4.1,50.6,14.4c20.7,13.9,33.5,33.2,38,57.8
		C246.2,155.4,246.5,158.6,247,161.8z M211.7,160.1c-0.1,0.1-0.3,0.1-0.4,0.2c-0.3-0.2-0.6-0.5-0.9-0.7c-1.9-1.4-4.3-1.3-5.9,0.4
		c-1.6,1.7-1.7,4.1,0,5.9c2.9,3.1,6,6.1,9,9c1.7,1.6,4,1.6,5.7,0c3.1-2.9,6.1-6,9-9c1.7-1.8,1.6-4.3-0.1-6c-1.7-1.7-4.2-1.7-6.1,0
		c-0.5,0.4-0.9,0.9-1.5,1.4c-0.2-1.4-0.4-2.4-0.5-3.4c-3.9-27.9-28.4-50.3-56.5-51.6c-19.8-0.9-36.3,6-49.6,20.7
		c-4,4.4-7.2,9.5-9.7,15c-0.8,1.7-0.7,3.3,0.6,4.8c1.1,1.4,2.6,1.8,4.3,1.4c1.9-0.4,2.7-1.9,3.5-3.4c9.2-19.3,29-30.9,50.3-29.7
		c21.8,1.3,40.4,15.9,46.8,36.7C210.5,154.5,211,157.3,211.7,160.1z M98.8,173.3c0.2,1.3,0.4,2.3,0.5,3.3c4,28,28.2,50.2,56.5,51.7
		c17.7,0.9,33.1-4.7,46-16.8c5.7-5.3,10.1-11.7,13.4-18.8c0.8-1.7,0.7-3.3-0.4-4.8c-1.1-1.4-2.6-1.8-4.3-1.5
		c-1.8,0.3-2.7,1.6-3.5,3.2c-10,20.8-31.3,32.5-54.2,29.6c-21.1-2.7-38.8-18.5-43.8-39c-0.5-1.9-0.8-3.8-1.3-6.2
		c0.7,0.6,1,0.9,1.3,1.1c1.9,1.4,4.2,1.3,5.8-0.4c1.6-1.7,1.7-4,0.1-5.7c-3-3.2-6.1-6.3-9.3-9.3c-1.5-1.4-3.8-1.5-5.3-0.1
		c-3.2,3-6.4,6.2-9.4,9.4c-1.5,1.6-1.3,4.2,0.2,5.7c1.6,1.6,4.1,1.7,5.9,0.2C97.6,174.4,98.1,174,98.8,173.3z M151,154.2
		c0.8,0,1.4,0,2,0c6.1,0,12.3,0,18.4,0c0.7,0,1.5,0,2.2-0.2c2.1-0.4,3.5-2.1,3.5-4.2c0-2.5-1.8-4.3-4.5-4.4c-2.8,0-5.6,0-8.5,0
		c0-1.5,0-2.7,0-4c-0.1-2.8-1.8-4.7-4.3-4.7c-2.5,0-4.4,1.9-4.5,4.8c0,1.3,0,2.6,0,3.9c-2.7,0-5.2,0-7.7,0c-3.7,0-5.3,1.5-5.3,5.2
		c0,5.2,0,10.5,0,15.7c0,3.7,1.6,5.3,5.3,5.3c6.3,0,12.6,0,18.9,0c0.6,0,1.2,0,1.9,0c0,2.9,0,5.7,0,8.7c-0.7,0-1.3,0-1.9,0
		c-6.3,0-12.6-0.1-18.9,0.1c-1.4,0-2.9,0.6-4,1.4c-1.4,1.1-1.6,2.8-0.9,4.5c0.7,1.8,2.2,2.8,4.1,2.8c2.8,0,5.6,0,8.6,0
		c0,1.5,0,2.8,0,4c0.1,2.7,1.9,4.7,4.4,4.7c2.5,0,4.3-1.9,4.4-4.7c0-1.3,0-2.6,0-4c2.7,0,5.3,0,7.8,0c3.6,0,5.2-1.6,5.2-5.1
		c0-5.3,0-10.6,0-15.8c0-3.6-1.6-5.2-5.2-5.2c-6.4,0-12.7,0-19.1,0c-0.6,0-1.2-0.1-1.9-0.1C151,159.9,151,157.2,151,154.2z"/>
</g>
</svg>
