<?xml version="1.0" encoding="utf-8"?>
<!-- Generator: Adobe Illustrator 27.3.1, SVG Export Plug-In . SVG Version: 6.00 Build 0)  -->
<svg version="1.1" id="Layer_1" xmlns="http://www.w3.org/2000/svg" xmlns:xlink="http://www.w3.org/1999/xlink" x="0px" y="0px"
	 viewBox="0 0 60 60" style="enable-background:new 0 0 60 60;" xml:space="preserve">
<style type="text/css">
	.st0{fill:#0000FF;}
	.st1{fill:#FFFFFF;}
</style>
<path class="st0" d="M52.4,40.7c-0.7,6-5.7,10.9-11.7,11.7c-3.6,0.5-7-0.5-9.6-2.5c-1.5-1.1-1.1-3.4,0.7-4
	c6.8-2.1,12.1-7.4,14.2-14.2c0.5-1.8,2.9-2.1,4-0.7C51.9,33.7,52.8,37.1,52.4,40.7z"/>
<path class="st0" d="M25.5,7.5c-9.9,0-18,8.1-18,18c0,9.9,8.1,18,18,18c9.9,0,18-8.1,18-18C43.5,15.6,35.4,7.5,25.5,7.5z M23.4,23
	l5.4,1.9c2,0.7,2.9,2.1,2.9,4.2c0,2.4-1.9,4.4-4.3,4.4h-0.2v0.1c0,0.9-0.8,1.7-1.7,1.7s-1.7-0.8-1.7-1.7v-0.1
	c-2.5-0.1-4.5-2.2-4.5-4.8c0-0.9,0.8-1.7,1.7-1.7c0.9,0,1.7,0.8,1.7,1.7c0,0.8,0.6,1.5,1.3,1.5h3.4c0.5,0,0.9-0.5,0.9-1.1
	c0-0.8-0.1-0.8-0.7-1l-5.4-1.9c-1.9-0.7-2.9-2.1-2.9-4.2c0-2.4,1.9-4.4,4.3-4.4h0.2v-0.1c0-0.9,0.8-1.7,1.7-1.7s1.7,0.8,1.7,1.7v0.1
	c2.5,0.1,4.5,2.2,4.5,4.8c0,0.9-0.8,1.7-1.7,1.7c-0.9,0-1.7-0.8-1.7-1.7c0-0.8-0.6-1.5-1.3-1.5h-3.4c-0.5,0-0.9,0.5-0.9,1.1
	C22.7,22.8,22.8,22.8,23.4,23z"/>
<path class="st1" d="M23.4,23l5.4,1.9c2,0.7,2.9,2.1,2.9,4.2c0,2.4-1.9,4.4-4.3,4.4h-0.2v0.1c0,0.9-0.8,1.7-1.7,1.7
	s-1.7-0.8-1.7-1.7v-0.1c-2.5-0.1-4.5-2.2-4.5-4.8c0-0.9,0.8-1.7,1.7-1.7c0.9,0,1.7,0.8,1.7,1.7c0,0.8,0.6,1.5,1.3,1.5h3.4
	c0.5,0,0.9-0.5,0.9-1.1c0-0.8-0.1-0.8-0.7-1l-5.4-1.9c-1.9-0.7-2.9-2.1-2.9-4.2c0-2.4,1.9-4.4,4.3-4.4h0.2v-0.1
	c0-0.9,0.8-1.7,1.7-1.7s1.7,0.8,1.7,1.7v0.1c2.5,0.1,4.5,2.2,4.5,4.8c0,0.9-0.8,1.7-1.7,1.7s-1.7-0.8-1.7-1.7c0-0.8-0.6-1.5-1.3-1.5
	h-3.4c-0.5,0-0.9,0.5-0.9,1.1C22.7,22.8,22.8,22.8,23.4,23z"/>
</svg>
