<svg width="121" height="121" viewBox="0 0 121 121" fill="none" xmlns="http://www.w3.org/2000/svg">
<ellipse cx="60.1514" cy="60.3641" rx="60" ry="60.3641" fill="#0000FF"/>
<path d="M120.151 60.3675C120.151 27.0225 93.2864 -0.00750732 60.1514 -0.00750732C27.0014 -7.32447e-06 0.136353 27.0225 0.136353 60.375C0.136353 90.5025 22.0814 115.477 50.7614 120.007V77.82H35.5364V60.375H50.7764V47.0625C50.7764 31.935 59.7389 23.58 73.4414 23.58C80.0114 23.58 86.8738 24.7575 86.8738 24.7575V39.6075H79.3064C71.8589 39.6075 69.5339 44.265 69.5339 49.0425V60.3675H86.1689L83.5139 77.8125H69.5264V120C98.2064 115.47 120.151 90.495 120.151 60.3675Z" fill="white"/>
</svg>
