<?xml version="1.0" encoding="utf-8"?>
<!-- Generator: Adobe Illustrator 27.3.1, SVG Export Plug-In . SVG Version: 6.00 Build 0)  -->
<svg version="1.1" id="Layer_1" xmlns="http://www.w3.org/2000/svg" xmlns:xlink="http://www.w3.org/1999/xlink" x="0px" y="0px"
	 viewBox="0 0 381.3 364.4" style="enable-background:new 0 0 381.3 364.4;" xml:space="preserve">
<style type="text/css">
	.st0{fill:#FFFFFF;}
</style>
<g>
	<path class="st0" d="M255.2,208c-6.5,6.2-13.1,12.4-19.5,18.8c-0.7,0.7-1.1,2.2-1.1,3.3c-0.1,10-0.1,20,0,30.1c0,1,0.3,2.1,0.8,3
		c1.5,2.8,3.1,5.4,4.9,8.6c0.7-0.3,1.8-0.9,2.9-1.5c13.8-8,27.6-16.1,41.5-24c11-6.2,24.2-3,30.7,7.2c6.3,9.9,4.2,23.4-5.9,29.5
		c-29.7,18.1-59.2,36.6-90.9,51.2c-12.1,5.6-24.5,6.2-37.5,4.9c-18.7-2-37.4-4.1-56.3-2.7c-3.6,0.3-7.2,0.8-10.7,1.2
		c-1.8,13-3.8,14.7-16.8,14.7c-3.7,0-7.3,0.1-11,0c-7.3-0.2-11.6-4.5-11.6-11.8c0-24.3,0-48.7,0-73c0-6.9,4.2-11.2,11.1-11.5
		c4.9-0.2,9.8-0.1,14.7-0.1c7.9,0,10.7,2,13.5,9.5c10.8-0.2,21.3-1.8,31-7.1c0.8-0.5,1.7-1.8,1.7-2.7c0.1-8.7,0.1-17.4,0-26
		c0-0.9-0.3-2-0.9-2.6c-6.6-6.4-13.2-12.7-19.8-19c-26.9,22.5-62.9,17-82.6-5.5c-19.6-22.5-19.3-56.2,0.8-78
		c20.5-22.3,54-25.4,78.2-7.4c23.2,17.3,33.4,53.3,10.8,83.5c6.7,6.4,13.3,12.9,20.1,19.1c2.8,2.5,3.9,5.2,3.8,8.9
		c-0.2,7.8-0.1,15.6-0.1,24c9.2-4.1,17.9-8.2,28.1-6.4c0-39.1,0-77.9,0-117.1c-20.1-2.6-35.8-12.4-45.8-30.4
		c-7.1-12.7-8.8-26.3-5.9-40.4c5.6-27.2,31.7-47.4,59.2-46c28.9,1.5,52.5,23.4,56,50.8c3.7,29-16.1,62.1-52.7,66.3
		c0,39.4,0,78.9,0,118.4c9.2,2.4,18.5,4.9,28.3,7.5c0-2.6,0-5.3,0-8c0-6.6,0.1-13.2-0.1-19.8c-0.1-2.9,1-5.1,3.1-7.1
		c7-6.5,13.8-13.1,20.9-19.9c-11.7-16-15.8-33.5-10.4-52.6c3.9-14,12.2-24.9,24.3-32.9c24.2-16,56.7-11.4,75.8,10.4
		c19.3,22.1,19.3,54.6,0.2,76.9C319.8,223.5,283.9,231.6,255.2,208z M114,276c0,17.2,0,33.9,0,50.9c3.8-0.3,7.3-0.7,10.8-0.9
		c19.2-1.4,38.3,0.8,57.4,2.6c10.4,1,20.4,1.4,30.5-3.1c31.8-14.4,61.2-33,91-51c7.2-4.3,6.6-14.5-0.4-19.1
		c-4.7-3.1-9.4-2.6-14.1,0.1c-15.5,9-31,18-46.6,27c-3.2,1.8-6.6,3.4-9.4,5.7c-5.8,4.7-12.3,6.1-19.6,5.3c-5-0.6-10-0.9-15-1.3
		c-8.8-0.7-17.5-1.4-26.3-2.2c-3.4-0.3-5.3-2.4-5.1-5.4c0.2-3,2.4-4.8,5.8-4.8c1.3,0,2.7,0.2,4,0.3c13.3,1.1,26.5,2.2,39.8,3.2
		c4,0.3,7.5-0.8,10.3-3.7c3.2-3.3,3.2-7.9-0.5-10.5c-2.7-2-5.8-3.8-9-4.7c-9.6-2.7-19.4-5-29.1-7.4c-7.4-1.9-14.5-1-21.4,2.3
		c-4.7,2.3-9.5,4.5-14.2,6.7c-7.8,3.7-15.7,7.4-24.5,8.4C123.6,275,118.9,275.5,114,276z M190.8,119c26.4-0.1,48.2-22.1,48.1-48.5
		c-0.2-26.4-21.9-47.9-48.2-48c-26.5,0-48.3,21.8-48.3,48.3C142.5,97.3,164.3,119.1,190.8,119z M39.2,164
		c0.1,26.6,22,48.3,48.4,48.1c26.5-0.2,48.1-22,48-48.5c-0.1-26.3-21.9-48-48.3-47.9C60.8,115.7,39.1,137.5,39.2,164z M342.1,163.7
		c-0.1-26.6-22-48.3-48.5-48c-26.6,0.2-48.1,22.1-47.9,48.6c0.2,26.3,22,47.9,48.3,47.9C320.6,212,342.3,190.2,342.1,163.7z
		 M85.3,266.5c0,25.2,0,50.1,0,75.1c6.2,0,12.1,0,18,0c0-25.2,0-50,0-75.1C97.2,266.5,91.3,266.5,85.3,266.5z"/>
	<path class="st0" d="M170.2,70.5c0-8.2,0-16.4,0-24.5c0-6.4,3.7-8.6,9.3-5.4c14.4,8.3,28.8,16.5,43.1,24.9
		c5.6,3.2,5.5,7.4-0.1,10.7c-14.3,8.3-28.7,16.6-43.1,24.9c-5.4,3.1-9.1,0.9-9.2-5.2C170.2,87.4,170.2,78.9,170.2,70.5z M180.7,88.4
		c10.3-5.9,20.1-11.6,30.6-17.7c-10.5-6-20.3-11.7-30.6-17.6C180.7,65.1,180.7,76.4,180.7,88.4z"/>
	<path class="st0" d="M120.3,156.2c-1.4,4.4-2.2,9-4.2,13.1c-5.2,11.2-13.7,19.4-24.5,25.4c-2.8,1.6-5.4,1.8-8.3,0.1
		c-14.3-8.2-25-19.2-28-36c-1.5-8.1,1.5-15,8.2-19.9c6.6-4.7,13.8-5.4,21.1-1.9c2,1,3.4,0.9,5.3,0
		C104,130.4,119.8,140.5,120.3,156.2z M109.3,157.6c-0.1-6.2-2-9.6-6.1-11.4c-4-1.7-7.8-1.2-11.3,1.7c-3.9,3.4-5.3,3.4-9.1,0.2
		c-3.6-3.1-8.3-3.7-12.2-1.5c-3.9,2.2-6,6.5-5,11.2c2.5,12.1,10.4,20.2,20.3,26.5c0.8,0.5,2.6,0.2,3.5-0.4
		c7.1-4.4,12.8-10.3,16.6-17.7C107.8,163.1,108.7,159.5,109.3,157.6z"/>
	<path class="st0" d="M305.1,146.2c11.2,0.6,19.3,5.2,23.5,15.3c6.3,15.2-4.5,32.4-21,33c-11.6,0.4-23.2,0.2-34.8,0.1
		c-3.7,0-5.7-2-5.7-5.7c-0.1-12.2-0.1-24.4,0-36.7c0-3.9,2-5.7,6-5.9c1.5-0.1,2.9,0,4.9,0c0-2.6,0-5,0-7.3
		c0.2-7.7,5.9-13.6,13.4-13.7c7.6-0.1,13.6,5.8,13.7,13.7C305.1,141.4,305.1,143.7,305.1,146.2z M277.5,184.3
		c10.3,0,20.3,0.3,30.3-0.1c6.8-0.3,11.9-6.1,12.2-12.9c0.4-6.8-4-12.8-10.8-14.1c-2.8-0.6-5.8-0.4-8.7-0.5
		c-3.8-0.2-5.6-1.9-5.7-5.7c-0.1-3.7,0-7.3,0-11c0-2.4-0.8-4.3-3.4-4.2c-2.5,0.1-3.2,1.9-3.2,4.1c0,3.5,0,7.1,0,10.6
		c-0.1,4.2-1.8,6-6,6.1c-1.5,0-3.1,0-4.7,0C277.5,166.1,277.5,174.9,277.5,184.3z"/>
</g>
</svg>
