<svg width="120" height="120" viewBox="0 0 120 120" fill="none" xmlns="http://www.w3.org/2000/svg">
<g clip-path="url(#clip0_4_3)">
<rect width="120" height="120" fill="white"/>
<circle cx="60" cy="60" r="60" fill="#0000FF"/>
<path d="M60 24.6846C50.4163 24.6846 49.2112 24.7288 45.4457 24.8965C41.6802 25.0731 39.1154 25.6646 36.8684 26.5387C34.5105 27.423 32.3752 28.8139 30.6132 30.6132C28.8139 32.3752 27.423 34.5105 26.5387 36.8684C25.6646 39.111 25.0687 41.6802 24.8965 45.4324C24.7288 49.2067 24.6846 50.4075 24.6846 60.0044C24.6846 69.5925 24.7288 70.7933 24.8965 74.5588C25.0731 78.3198 25.6646 80.8846 26.5387 83.1315C27.4437 85.4535 28.6488 87.4224 30.6132 89.3868C32.5732 91.3512 34.542 92.5607 36.864 93.4613C39.1154 94.3353 41.6757 94.9313 45.4368 95.1035C49.2067 95.2712 50.4075 95.3153 60 95.3153C69.5925 95.3153 70.7888 95.2712 74.5588 95.1035C78.3154 94.9269 80.889 94.3353 83.136 93.4613C85.4924 92.5764 87.6261 91.1856 89.3868 89.3868C91.3512 87.4224 92.5563 85.4535 93.4613 83.1315C94.3309 80.8846 94.9269 78.3198 95.1035 74.5588C95.2712 70.7933 95.3153 69.5925 95.3153 60C95.3153 50.4075 95.2712 49.2067 95.1035 45.4368C94.9269 41.6802 94.3309 39.111 93.4613 36.8684C92.577 34.5105 91.1861 32.3752 89.3868 30.6132C87.6248 28.8139 85.4895 27.423 83.1315 26.5387C80.8802 25.6646 78.311 25.0687 74.5543 24.8965C70.7844 24.7288 69.5881 24.6846 59.9912 24.6846H60ZM56.8349 31.0502H60.0044C69.4336 31.0502 70.5505 31.0811 74.2718 31.2533C77.7151 31.4078 79.5868 31.9861 80.8316 32.4673C82.4782 33.1074 83.6569 33.8755 84.8929 35.1115C86.1289 36.3475 86.8926 37.5218 87.5327 39.1728C88.0183 40.4132 88.5922 42.2849 88.7467 45.7282C88.9189 49.4495 88.9542 50.5664 88.9542 59.9912C88.9542 69.416 88.9189 70.5372 88.7467 74.2586C88.5922 77.7018 88.0139 79.5691 87.5327 80.814C86.9625 82.3454 86.0594 83.731 84.8885 84.8708C83.6524 86.1069 82.4782 86.8706 80.8272 87.5107C79.5912 87.9962 77.7195 88.5701 74.2718 88.729C70.5505 88.8968 69.4336 88.9365 60.0044 88.9365C50.5752 88.9365 49.454 88.8968 45.7326 88.729C42.2893 88.5701 40.422 87.9962 39.1772 87.5107C37.6446 86.9423 36.2575 86.0407 35.1159 84.8708C33.9429 83.7302 33.0382 82.3429 32.4673 80.8096C31.9861 79.5691 31.4078 77.6974 31.2533 74.2542C31.0856 70.5328 31.0502 69.416 31.0502 59.9823C31.0502 50.5487 31.0856 49.4407 31.2533 45.7194C31.4122 42.2761 31.9861 40.4044 32.4717 39.1595C33.1118 37.5129 33.8799 36.3343 35.1159 35.0983C36.352 33.8622 37.5262 33.0985 39.1772 32.4584C40.422 31.9729 42.2893 31.399 45.7326 31.2401C48.9904 31.09 50.253 31.0458 56.8349 31.0414V31.0502ZM78.854 36.9126C78.2975 36.9126 77.7464 37.0222 77.2322 37.2352C76.7181 37.4481 76.2509 37.7603 75.8574 38.1538C75.4639 38.5473 75.1517 39.0145 74.9387 39.5287C74.7257 40.0428 74.6161 40.5939 74.6161 41.1504C74.6161 41.7069 74.7257 42.258 74.9387 42.7722C75.1517 43.2863 75.4639 43.7535 75.8574 44.147C76.2509 44.5406 76.7181 44.8527 77.2322 45.0657C77.7464 45.2787 78.2975 45.3883 78.854 45.3883C79.9779 45.3883 81.0558 44.9418 81.8506 44.147C82.6453 43.3523 83.0918 42.2744 83.0918 41.1504C83.0918 40.0265 82.6453 38.9486 81.8506 38.1538C81.0558 37.3591 79.9779 36.9126 78.854 36.9126ZM60.0044 41.8656C57.5989 41.828 55.2099 42.2694 52.9766 43.164C50.7432 44.0586 48.7102 45.3886 46.9958 47.0764C45.2814 48.7643 43.9199 50.7764 42.9905 52.9955C42.0612 55.2146 41.5826 57.5964 41.5826 60.0022C41.5826 62.408 42.0612 64.7898 42.9905 67.0089C43.9199 69.228 45.2814 71.2401 46.9958 72.928C48.7102 74.6158 50.7432 75.9458 52.9766 76.8404C55.2099 77.735 57.5989 78.1764 60.0044 78.1388C64.7655 78.0646 69.3065 76.1211 72.6472 72.7279C75.9879 69.3347 77.8603 64.7639 77.8603 60.0022C77.8603 55.2405 75.9879 50.6697 72.6472 47.2765C69.3065 43.8833 64.7655 41.9398 60.0044 41.8656ZM60.0044 48.2267C61.5505 48.2267 63.0814 48.5313 64.5098 49.1229C65.9382 49.7146 67.2361 50.5818 68.3294 51.675C69.4226 52.7683 70.2898 54.0662 70.8815 55.4946C71.4731 56.923 71.7777 58.4539 71.7777 60C71.7777 61.5461 71.4731 63.077 70.8815 64.5054C70.2898 65.9338 69.4226 67.2317 68.3294 68.3249C67.2361 69.4182 65.9382 70.2854 64.5098 70.8771C63.0814 71.4687 61.5505 71.7733 60.0044 71.7733C56.882 71.7732 53.8874 70.5329 51.6795 68.3249C49.4715 66.117 48.2312 63.1225 48.2312 60C48.2312 56.8775 49.4715 53.883 51.6795 51.675C53.8874 49.4671 56.882 48.2267 60.0044 48.2267Z" fill="white"/>
</g>
<defs>
<clipPath id="clip0_4_3">
<rect width="120" height="120" fill="white"/>
</clipPath>
</defs>
</svg>
