<svg width="120" height="120" viewBox="0 0 120 120" fill="none" xmlns="http://www.w3.org/2000/svg">
<circle cx="60" cy="59.9925" r="60" fill="white"/>
<path d="M60 24.6771C50.4163 24.6771 49.2112 24.7213 45.4457 24.889C41.6802 25.0656 39.1154 25.6571 36.8684 26.5312C34.5105 27.4155 32.3752 28.8064 30.6132 30.6057C28.8139 32.3677 27.423 34.5029 26.5387 36.8609C25.6646 39.1035 25.0687 41.6726 24.8965 45.4249C24.7288 49.1992 24.6846 50.4 24.6846 59.9969C24.6846 69.585 24.7288 70.7857 24.8965 74.5512C25.0731 78.3123 25.6646 80.8771 26.5387 83.124C27.4437 85.446 28.6488 87.4149 30.6132 89.3793C32.5732 91.3437 34.542 92.5532 36.864 93.4538C39.1154 94.3278 41.6757 94.9238 45.4368 95.0959C49.2067 95.2637 50.4075 95.3078 60 95.3078C69.5925 95.3078 70.7888 95.2637 74.5588 95.0959C78.3154 94.9194 80.889 94.3278 83.136 93.4538C85.4924 92.5689 87.6261 91.1781 89.3868 89.3793C91.3512 87.4149 92.5563 85.446 93.4613 83.124C94.3309 80.8771 94.9269 78.3123 95.1035 74.5512C95.2712 70.7857 95.3153 69.585 95.3153 59.9925C95.3153 50.4 95.2712 49.1992 95.1035 45.4293C94.9269 41.6727 94.3309 39.1035 93.4613 36.8609C92.577 34.5029 91.1861 32.3677 89.3868 30.6057C87.6248 28.8064 85.4895 27.4155 83.1315 26.5312C80.8802 25.6571 78.311 25.0612 74.5543 24.889C70.7844 24.7213 69.5881 24.6771 59.9912 24.6771H60ZM56.8349 31.0427H60.0044C69.4336 31.0427 70.5505 31.0736 74.2718 31.2458C77.7151 31.4003 79.5868 31.9786 80.8316 32.4598C82.4782 33.0999 83.6569 33.868 84.8929 35.104C86.1289 36.34 86.8926 37.5143 87.5327 39.1653C88.0183 40.4057 88.5922 42.2774 88.7467 45.7207C88.9189 49.442 88.9542 50.5589 88.9542 59.9837C88.9542 69.4084 88.9189 70.5297 88.7467 74.2511C88.5922 77.6943 88.0139 79.5616 87.5327 80.8065C86.9625 82.3378 86.0594 83.7235 84.8885 84.8633C83.6525 86.0994 82.4782 86.8631 80.8272 87.5031C79.5912 87.9887 77.7195 88.5626 74.2718 88.7215C70.5505 88.8893 69.4336 88.929 60.0044 88.929C50.5752 88.929 49.454 88.8893 45.7326 88.7215C42.2893 88.5626 40.422 87.9887 39.1772 87.5031C37.6446 86.9348 36.2575 86.0332 35.1159 84.8633C33.9429 83.7226 33.0382 82.3354 32.4673 80.8021C31.9861 79.5616 31.4078 77.6899 31.2533 74.2466C31.0856 70.5253 31.0502 69.4084 31.0502 59.9748C31.0502 50.5412 31.0856 49.4332 31.2533 45.7118C31.4122 42.2686 31.9861 40.3969 32.4717 39.152C33.1118 37.5054 33.8799 36.3268 35.1159 35.0908C36.352 33.8547 37.5262 33.091 39.1772 32.4509C40.422 31.9653 42.2893 31.3915 45.7326 31.2326C48.9904 31.0825 50.253 31.0383 56.8349 31.0339V31.0427ZM78.854 36.9051C78.2975 36.9051 77.7464 37.0147 77.2322 37.2277C76.7181 37.4406 76.2509 37.7528 75.8574 38.1463C75.4639 38.5398 75.1517 39.007 74.9387 39.5212C74.7257 40.0353 74.6161 40.5864 74.6161 41.1429C74.6161 41.6994 74.7257 42.2505 74.9387 42.7647C75.1517 43.2788 75.4639 43.746 75.8574 44.1395C76.2509 44.533 76.7181 44.8452 77.2322 45.0582C77.7464 45.2711 78.2975 45.3808 78.854 45.3808C79.9779 45.3808 81.0558 44.9343 81.8506 44.1395C82.6453 43.3448 83.0918 42.2669 83.0918 41.1429C83.0918 40.019 82.6453 38.9411 81.8506 38.1463C81.0558 37.3516 79.9779 36.9051 78.854 36.9051ZM60.0044 41.8581C57.5989 41.8205 55.2099 42.2619 52.9766 43.1565C50.7432 44.0511 48.7102 45.3811 46.9958 47.0689C45.2814 48.7568 43.9199 50.7689 42.9905 52.988C42.0612 55.2071 41.5826 57.5889 41.5826 59.9947C41.5826 62.4005 42.0612 64.7823 42.9905 67.0014C43.9199 69.2205 45.2814 71.2326 46.9958 72.9205C48.7102 74.6083 50.7432 75.9383 52.9766 76.8329C55.2099 77.7275 57.5989 78.1689 60.0044 78.1313C64.7655 78.0571 69.3065 76.1136 72.6472 72.7204C75.9879 69.3272 77.8603 64.7564 77.8603 59.9947C77.8603 55.233 75.9879 50.6622 72.6472 47.269C69.3065 43.8758 64.7655 41.9323 60.0044 41.8581ZM60.0044 48.2192C61.5505 48.2192 63.0814 48.5238 64.5098 49.1154C65.9382 49.7071 67.2361 50.5743 68.3294 51.6675C69.4226 52.7608 70.2898 54.0587 70.8815 55.4871C71.4731 56.9155 71.7777 58.4464 71.7777 59.9925C71.7777 61.5386 71.4731 63.0695 70.8815 64.4979C70.2898 65.9263 69.4226 67.2242 68.3294 68.3174C67.2361 69.4107 65.9382 70.2779 64.5098 70.8696C63.0814 71.4612 61.5505 71.7657 60.0044 71.7657C56.882 71.7657 53.8874 70.5253 51.6795 68.3174C49.4715 66.1095 48.2312 63.1149 48.2312 59.9925C48.2312 56.87 49.4715 53.8755 51.6795 51.6675C53.8874 49.4596 56.882 48.2192 60.0044 48.2192Z" fill="#0000FF"/>
</svg>
