<svg width="121" height="120" viewBox="0 0 121 120" fill="none" xmlns="http://www.w3.org/2000/svg">
<circle cx="60.424" cy="59.9925" r="60" fill="white"/>
<circle cx="60.424" cy="59.9925" r="60" fill="white"/>
<path d="M42.2874 37.0364C42.2865 38.7761 41.5946 40.4441 40.3639 41.6736C39.1332 42.9031 37.4644 43.5934 35.7248 43.5925C33.9851 43.5916 32.3171 42.8997 31.0876 41.669C29.8581 40.4383 29.1678 38.7695 29.1687 37.0299C29.1696 35.2902 29.8615 33.6222 31.0922 32.3927C32.3229 31.1632 33.9917 30.4729 35.7313 30.4738C37.471 30.4747 39.139 31.1666 40.3685 32.3973C41.598 33.6281 42.2883 35.2968 42.2874 37.0364ZM42.4842 48.4497H29.3655V89.5112H42.4842V48.4497ZM63.2117 48.4497H50.1586V89.5112H63.0805V67.9638C63.0805 55.9602 78.7246 54.8451 78.7246 67.9638V89.5112H91.6793V63.5034C91.6793 43.2678 68.5248 44.0221 63.0805 53.9596L63.2117 48.4497Z" fill="#0000FF"/>
</svg>
