<svg width="121" height="120" viewBox="0 0 121 120" fill="none" xmlns="http://www.w3.org/2000/svg">
<g clip-path="url(#clip0_4_4)">
<rect width="120" height="120" transform="translate(0.423996)" fill="white"/>
<circle cx="60.424" cy="60" r="60" fill="white"/>
<circle cx="60.424" cy="60" r="60" fill="#0000FF"/>
<path d="M42.2874 37.044C42.2865 38.7836 41.5946 40.4517 40.3639 41.6812C39.1332 42.9107 37.4644 43.6009 35.7248 43.6C33.9851 43.5992 32.3171 42.9072 31.0876 41.6765C29.8581 40.4458 29.1678 38.777 29.1687 37.0374C29.1696 35.2977 29.8615 33.6297 31.0922 32.4002C32.3229 31.1707 33.9917 30.4805 35.7313 30.4813C37.471 30.4822 39.139 31.1741 40.3685 32.4048C41.598 33.6356 42.2883 35.3043 42.2874 37.044ZM42.4842 48.4572H29.3655V89.5187H42.4842V48.4572ZM63.2117 48.4572H50.1586V89.5187H63.0805V67.9713C63.0805 55.9677 78.7246 54.8526 78.7246 67.9713V89.5187H91.6793V63.5109C91.6793 43.2753 68.5248 44.0297 63.0805 53.9671L63.2117 48.4572Z" fill="white"/>
</g>
<defs>
<clipPath id="clip0_4_4">
<rect width="120" height="120" fill="white" transform="translate(0.423996)"/>
</clipPath>
</defs>
</svg>
