<?xml version="1.0" encoding="utf-8"?>
<!-- Generator: Adobe Illustrator 28.0.0, SVG Export Plug-In . SVG Version: 6.00 Build 0)  -->
<svg version="1.1" id="Layer_1" xmlns="http://www.w3.org/2000/svg" xmlns:xlink="http://www.w3.org/1999/xlink" x="0px" y="0px"
	 viewBox="0 0 100 100" style="enable-background:new 0 0 100 100;" xml:space="preserve">
<style type="text/css">
	.st0{fill:#E3FDDF;}
	.st1{fill:none;stroke:#04CA02;stroke-width:5;stroke-linecap:round;stroke-linejoin:round;}
</style>
<rect class="st0" width="100" height="100"/>
<g>
	<g>
		<path class="st1" d="M57.49,32.5l10,10"/>
		<path class="st1" d="M52.5,37.5L41.75,26.75c-2.35-2.34-6.15-2.34-8.5,0l-6.5,6.5c-2.34,2.35-2.34,6.15,0,8.5L37.5,52.5"/>
		<path class="st1" d="M40,35l5-5"/>
		<path class="st1" d="M25,74.99l13.75-3.75l34.16-34.16c2.76-2.76,2.76-7.24,0-10c-2.76-2.76-7.24-2.76-10,0L28.75,61.24L25,74.99z
			"/>
		<path class="st1" d="M64.99,59.99l5-5"/>
		<path class="st1" d="M62.49,47.5l10.75,10.75c2.35,2.35,2.35,6.15,0,8.5l-6.5,6.5c-2.35,2.35-6.15,2.35-8.5,0L47.5,62.49"/>
	</g>
</g>
</svg>
