<?xml version="1.0" encoding="utf-8"?>
<!-- Generator: Adobe Illustrator 28.0.0, SVG Export Plug-In . SVG Version: 6.00 Build 0)  -->
<svg version="1.1" id="Layer_1" xmlns="http://www.w3.org/2000/svg" xmlns:xlink="http://www.w3.org/1999/xlink" x="0px" y="0px"
	 viewBox="0 0 100 100" style="enable-background:new 0 0 100 100;" xml:space="preserve">
<style type="text/css">
	.st0{fill:#E4E4FD;}
	.st1{fill:none;stroke:#0000FD;stroke-width:5;stroke-linecap:round;stroke-linejoin:round;}
</style>
<rect class="st0" width="100" height="100"/>
<g>
	<path class="st1" d="M34.5,74V29c0-2.76,2.24-5,5-5h20c2.76,0,5,2.24,5,5v45H34.5z"/>
	<path class="st1" d="M34.5,49h-5c-2.76,0-5,2.24-5,5v15c0,2.76,2.24,5,5,5h5"/>
	<path class="st1" d="M64.5,41.5h5c2.76,0,5,2.24,5,5V69c0,2.76-2.24,5-5,5h-5"/>
	<path class="st1" d="M44.5,34h10"/>
	<path class="st1" d="M44.5,44h10"/>
	<path class="st1" d="M44.5,54h10"/>
	<path class="st1" d="M44.5,64h10"/>
</g>
</svg>
