<?xml version="1.0" encoding="utf-8"?>
<!-- Generator: Adobe Illustrator 28.0.0, SVG Export Plug-In . SVG Version: 6.00 Build 0)  -->
<svg version="1.1" id="Layer_1" xmlns="http://www.w3.org/2000/svg" xmlns:xlink="http://www.w3.org/1999/xlink" x="0px" y="0px"
	 viewBox="0 0 100 100" style="enable-background:new 0 0 100 100;" xml:space="preserve">
<style type="text/css">
	.st0{fill:#FFF8BB;}
	.st1{fill:none;stroke:#3A2C00;stroke-width:5;stroke-linecap:round;stroke-linejoin:round;}
</style>
<rect class="st0" width="100" height="100"/>
<g>
	<path class="st1" d="M35,25h30c2.76,0,5,2.24,5,5v40c0,2.76-2.24,5-5,5H35c-2.76,0-5-2.24-5-5V30C30,27.24,32.24,25,35,25z"/>
	<path class="st1" d="M42.5,75V65h15v10"/>
	<path class="st1" d="M40,35h0.03"/>
	<path class="st1" d="M60,35h0.03"/>
	<path class="st1" d="M50,35h0.03"/>
	<path class="st1" d="M50,45h0.03"/>
	<path class="st1" d="M50,55h0.03"/>
	<path class="st1" d="M60,45h0.03"/>
	<path class="st1" d="M60,55h0.03"/>
	<path class="st1" d="M40,45h0.03"/>
	<path class="st1" d="M40,55h0.03"/>
</g>
</svg>
