<?xml version="1.0" encoding="utf-8"?>
<!-- Generator: Adobe Illustrator 27.3.1, SVG Export Plug-In . SVG Version: 6.00 Build 0)  -->
<svg version="1.1" id="Layer_1" xmlns="http://www.w3.org/2000/svg" xmlns:xlink="http://www.w3.org/1999/xlink" x="0px" y="0px"
	 viewBox="0 0 319.3 334.7" style="enable-background:new 0 0 319.3 334.7;" xml:space="preserve">
<style type="text/css">
	.st0{fill:#0000FF;}
	.st1{fill:#FFFFFF;}
</style>
<g>
	<circle class="st0" cx="159.7" cy="167.3" r="141.3"/>
	<g>
		<path class="st1" d="M159.5,102.2c2.7,0.7,5.4,1.1,7.9,2.1c24.8,10.4,49.6,20.9,74.4,31.5c8.3,3.5,9.8,13.8,3,19.3
			c-1.1,0.9-2.4,1.5-3.7,2c-24.3,10.3-48.7,20.6-73,31c-5.7,2.4-11.2,2.4-16.8,0c-24.5-10.4-49-20.8-73.5-31.2
			c-4.7-2-7.2-5.4-7.4-10.5c-0.2-4.7,2.7-8.6,7.4-10.6c24.6-10.4,49.2-20.9,73.9-31.2C154.1,103.4,156.8,102.9,159.5,102.2z"/>
		<path class="st1" d="M103.5,175.9c2.9,1.2,5.6,2.3,8.3,3.5c12.3,5.2,24.5,10.4,36.8,15.6c7.3,3.1,14.5,3.2,21.8,0.1
			c14.5-6.1,29-12.3,43.6-18.4c0.5-0.2,1.1-0.4,1.8-0.7c0,0.6,0.1,1.1,0.1,1.6c0,8.5,0,17.1,0,25.6c0,7.6-3.3,13.3-10,16.9
			c-30.9,16.6-61.9,16.5-92.8-0.3c-6.3-3.4-9.5-9.1-9.6-16.3C103.4,194.5,103.5,185.4,103.5,175.9z"/>
		<path class="st1" d="M236.4,196.8c3.2,2.5,3.9,5.7,3.7,9.4c-0.1,2.4,0,4.8,0,7.2c-0.1,2.4-1.4,3.9-3.8,3.9c-3.7,0.1-7.4,0.1-11,0
			c-2.4-0.1-3.8-1.6-3.8-3.9c0-3.2-0.1-6.3,0-9.5c0.1-2.9,1.4-5.1,3.6-7.1c-0.6-0.8-1.3-1.5-1.9-2.2c-3.1-4.4-1.9-10.4,2.7-13.3
			c0.9-0.5,1.2-1.1,1.2-2.1c-0.1-2.3,0-4.6,0-6.8c0-1.1,0.3-1.6,1.3-1.9c2-0.8,4-1.6,6.2-2.6c0,3.9,0,7.7,0,11.4
			c0,0.6,0.3,1.4,0.8,1.7C241.3,185.3,241.8,191.4,236.4,196.8z"/>
	</g>
</g>
</svg>
