<?xml version="1.0" encoding="utf-8"?>
<!-- Generator: Adobe Illustrator 27.3.1, SVG Export Plug-In . SVG Version: 6.00 Build 0)  -->
<svg version="1.1" id="Layer_1" xmlns="http://www.w3.org/2000/svg" xmlns:xlink="http://www.w3.org/1999/xlink" x="0px" y="0px"
	 viewBox="0 0 319.3 334.7" style="enable-background:new 0 0 319.3 334.7;" xml:space="preserve">
<style type="text/css">
	.st0{fill:#0000FF;}
	.st1{fill:#FFFFFF;}
</style>
<g>
	<circle class="st0" cx="159.7" cy="167.3" r="141.3"/>
	<g>
		<path class="st1" d="M223.5,168.9c-1.2,35.7-30.7,63.6-65.9,62.3c-35.3-1.2-63.1-30.9-62-65.9c1.2-35.2,30.9-63.1,65.7-61.9
			C196.8,104.6,224.7,134.1,223.5,168.9z M153.2,135.6c-0.7,0.2-1.4,0.5-2.2,0.7c-8.1,2.9-13.5,11-12.8,19.2
			c0.8,9.1,7.2,16.3,16,17.7c2.4,0.4,4.9,0.3,7.4,0.4c4,0.1,6.8,2.9,6.9,6.7c0,3.9-2.8,6.6-6.8,6.7c-1.6,0-3.3,0-4.9,0
			c-3.1,0.1-5.3-1.1-6.9-3.8c-1.9-3.2-5.7-4-8.6-2.2c-2.9,1.8-3.8,5.4-2.1,8.5c2.2,4,5.4,6.8,9.6,8.5c1.5,0.6,3.1,1,4.6,1.4
			c0.4,4.4,2.5,6.8,6,7c3.8,0.2,5.6-1.8,6.9-7.4c0.4-0.1,0.7-0.2,1.1-0.4c8.6-2.8,14.4-10.9,13.7-19.3c-0.7-9.4-7.1-16.5-16.3-18
			c-2.5-0.4-5.1-0.2-7.6-0.3c-3.6-0.2-6.3-3.1-6.3-6.7c0-3.6,2.5-6.4,6-6.7c1.8-0.1,3.6,0,5.5-0.1c3.2-0.1,5.6,1.1,7.3,3.9
			c1.8,3,5.4,3.8,8.3,2.2c3-1.7,4.2-5.4,2.3-8.4c-1.3-2.1-2.9-4-4.7-5.7c-2.6-2.5-6-3.7-9.5-4.4c-0.5-4.6-2.7-7.1-6.3-7.2
			C155.9,128,153.8,130.4,153.2,135.6z"/>
		<path class="st1" d="M103.9,91.5c4.6-2.7,8.7-5.5,13-7.7c15.6-8.1,32.2-11.5,49.6-9.9c36.2,3.4,62.5,21.7,78.2,54.4
			c15.8,33.1,9.5,73.9-15.1,101.2c-16.2,18-36.5,28.3-60.6,31c-41.9,4.7-83-21-97.3-60.7c-6.7-18.5-7.7-37.2-2.8-56.2
			c1-3.7,4.2-5.9,7.5-5c3.6,0.9,5.5,4.1,4.6,8c-1.9,7.7-2.9,15.5-2.7,23.4c1.1,37.7,28.9,70.2,66,77.1c43.8,8.2,85.4-19.5,94.8-63.1
			c9.3-43.1-18.7-86.7-61.9-95.9c-28.2-6-52.9,1.3-74.1,20.8c-1.1,1-2.3,2.1-3.6,2.5c-3.9,1.3-7.9-1.5-7.9-5.6
			c-0.1-6.6-0.1-13.3,0-19.9c0-3.3,2.7-5.8,5.8-6c3.3-0.2,6.1,2.1,6.5,5.5C104.1,87.3,103.9,89.3,103.9,91.5z"/>
	</g>
</g>
</svg>
