<?xml version="1.0" encoding="utf-8"?>
<!-- Generator: Adobe Illustrator 27.3.1, SVG Export Plug-In . SVG Version: 6.00 Build 0)  -->
<svg version="1.1" id="Layer_1" xmlns="http://www.w3.org/2000/svg" xmlns:xlink="http://www.w3.org/1999/xlink" x="0px" y="0px"
	 viewBox="0 0 330.7 390.2" style="enable-background:new 0 0 330.7 390.2;" xml:space="preserve">
<style type="text/css">
	.st0{fill:#FFFFFF;}
</style>
<g>
	<path class="st0" d="M261.2,144.7h-12v1.8c0,65.5,0,131,0,196.5c0,12.5-7.3,19.8-19.7,19.8c-42.7,0-85.4,0-128,0
		c-12.7,0-20-7.2-20-19.9c0-26.2,0-52.4,0-78.6v-0.1h-12c0,26.5,0,52.9,0,79.4c0,18.5,12.9,31.3,31.3,31.3c43,0,86.1,0,129.2,0
		c18.2,0,31-12.7,31.2-30.7V156.5h0C261.2,152.5,261.2,148.6,261.2,144.7z"/>
	<path class="st0" d="M93.5,75.3c-46.2,0-83.8,37.5-83.9,83.7c-0.1,46.4,37.5,84,83.8,84c45.6,0.5,83.9-37.3,83.9-83.9
		C177.3,112.9,139.7,75.4,93.5,75.3z M47.9,214.2c3.5-10.7,14.3-18.8,26.1-19c13-0.2,25.9-0.2,38.9,0c11.8,0.2,22.6,8.4,26.1,19
		C114.5,235.9,72.3,235.9,47.9,214.2z M148.4,205.2c-6.3-10.9-15.3-18.1-27.3-20.8c-3.4-0.8-6.9-1.1-10.4-1.2
		c-11.5-0.1-22.9-0.1-34.4,0c-15.8,0.1-28,6.9-36.5,20.2c-0.3,0.4-0.6,0.8-0.9,1.2c-0.1,0.1-0.2,0.1-0.3,0.2
		c-19.5-20.7-26-62.6,1.1-93.2c26.6-30,72.3-32.6,101.7-6C172.2,133.5,171.8,178.3,148.4,205.2z"/>
	<path class="st0" d="M296.4,75.3c-23.4,0-46.9,0-70.3,0c-14.1,0-24.8,10.4-24.8,24c0,13.5,10.7,23.9,24.8,23.9
		c11.7,0,23.4,0,35.2,0c11.7,0,23.4,0,35.2,0c13.9-0.1,24.6-10.4,24.6-23.8C321.2,85.9,310.5,75.4,296.4,75.3z M295.6,111.3
		c-11.6,0-23.2,0-34.8,0c-11.4,0-22.7,0-34.1,0c-8,0-13.4-4.8-13.5-11.9c0-7.1,5.4-12.1,13.3-12.1c23.1,0,46.2,0,69.2,0
		c7.9,0,13.3,5,13.3,12.1C309,106.4,303.6,111.2,295.6,111.3z"/>
	<path class="st0" d="M261.2,56.5L261.2,56.5l-11.9,0.1c0-0.1,0-0.2,0-0.2c-0.1-3.7,0.1-7.5,0-11.2c-0.3-9.8-7.9-17.6-17.7-17.6
		c-44-0.1-88.1-0.1-132.2,0c-10,0-17.6,7.9-17.8,17.9c-0.1,3.7,0,7.5,0,11.2H69.5c0-5-0.4-10,0.3-14.9c2-15.5,14.5-26.1,30.2-26.2
		c21.8-0.1,43.7,0,65.5,0c21.3,0,42.7,0,64,0c19,0,31.6,12.7,31.7,31.7C261.2,50.2,261.2,53.4,261.2,56.5z"/>
	<path class="st0" d="M219.1,267v12c-0.8,0-1.7,0-2.5,0c-17.1,0-34.2,0-51.3,0c-17.1,0-34.2,0-51.3,0c-0.5,0-1.1,0-1.6,0v-12
		c0.7,0,1.3,0,2,0h101.8C217.2,267,218.2,266.9,219.1,267z"/>
	<path class="st0" d="M191.8,314.9v12c-12.9,0-25.7,0-38.6,0c-13.4,0-26.7,0-40.1,0c-0.2,0-0.5,0-0.7,0v-11.9c0.2,0,0.4,0,0.6,0
		C139.3,314.9,165.6,314.9,191.8,314.9z"/>
	<path class="st0" d="M157.8,291v12c-7.5,0-15,0-22.4,0s-15,0-22.5,0c-0.1,0-0.3,0-0.5,0V291c0.2,0,0.3,0,0.5,0
		C127.9,290.9,142.8,290.9,157.8,291z"/>
	<path class="st0" d="M165,51.4c-5.5,0-11,0-16.5,0c-4.4,0-7.1-2.3-7.1-6c0-3.6,2.7-6,7.1-6c11.2,0,22.5,0,33.7,0
		c4.4,0,7.1,2.3,7.1,6c0,3.6-2.7,6-7.1,6C176.5,51.4,170.7,51.4,165,51.4z"/>
	<path class="st0" d="M33.6,272.1c0.1-3.6,2.7-6.3,6-6.3c3.2,0,5.9,2.8,5.9,6c0,3.6-3,6.5-6.4,6.4C35.6,278.1,33.5,275.8,33.6,272.1
		z"/>
	<path class="st0" d="M33.6,296.1c0.1-3.6,2.7-6.3,6-6.3c3.2,0,5.9,2.8,5.9,6c0,3.6-3,6.5-6.4,6.4C35.6,302.1,33.5,299.7,33.6,296.1
		z"/>
	<path class="st0" d="M39.5,313.7c3.2,0,6,2.7,6,5.9c0,3.6-2.9,6.6-6.3,6.5c-3.5-0.1-5.7-2.4-5.6-6.1
		C33.6,316.5,36.1,313.8,39.5,313.7z"/>
	<path class="st0" d="M93.7,111.3c-16.5-0.1-30.1,13.3-30.2,29.8c-0.1,16.5,13.4,30.1,29.9,30.1c16.4,0,29.9-13.3,30-29.6
		C123.5,125,110.2,111.4,93.7,111.3z M93.6,159.2c-9.9,0.1-18.1-8.1-18.1-18c0-9.9,8.2-18,18.2-17.9c9.8,0.1,17.7,8.2,17.7,18
		C111.4,151,103.4,159.1,93.6,159.2z"/>
</g>
</svg>
