<?xml version="1.0" encoding="utf-8"?>
<!-- Generator: Adobe Illustrator 27.3.1, SVG Export Plug-In . SVG Version: 6.00 Build 0)  -->
<svg version="1.1" id="Layer_1" xmlns="http://www.w3.org/2000/svg" xmlns:xlink="http://www.w3.org/1999/xlink" x="0px" y="0px"
	 viewBox="0 0 319.3 334.7" style="enable-background:new 0 0 319.3 334.7;" xml:space="preserve">
<style type="text/css">
	.st0{fill:#0000FF;}
	.st1{fill:#FFFFFF;}
</style>
<g>
	<circle class="st0" cx="159.7" cy="167.3" r="141.3"/>
	<g>
		<path class="st1" d="M162.7,92.8c1.4,0.3,2.7,0.5,4.1,0.9c14.5,3.6,23.9,16.4,23.2,31.2c-0.9,18.6-19.2,32.2-37.3,27.6
			c-20.6-5.2-29.8-28.4-18.2-46.1c4.9-7.5,12.1-11.9,21-13.3c0.4-0.1,0.9-0.2,1.3-0.3C158.7,92.8,160.7,92.8,162.7,92.8z"/>
		<path class="st1" d="M159.6,241.9c-15.7,0-31.4,0-47.1,0c-5.7,0-9.9-3.1-11.4-8.4c-0.3-1.2-0.5-2.6-0.5-3.8c0-13.3-0.1-26.7,0-40
			c0-8.9,3.2-16.5,10.3-22.1c3.6-2.9,8-4.1,12.4-4.8c3.8-0.6,7.6-1.2,11.4-1.8c2.3-0.3,3.1,0.2,3.9,2.5
			c5.8,15.9,11.6,31.8,17.4,47.7c0.1,0.3,0.2,0.6,0.3,0.8c0.7,1.9,1.7,2.7,3.4,2.7c1.5,0,2.5-0.8,3.2-2.7c1.5-4.1,3-8.3,4.5-12.4
			c4.4-12,8.8-24,13.1-36c0.9-2.6,1.7-3,4.4-2.5c4.1,0.7,8.2,1.3,12.3,2c8.7,1.5,14.8,6.6,18.8,14.4c1.9,3.7,2.7,7.7,2.7,11.9
			c0,13.5,0,27.1,0,40.6c0,7.2-4.8,12-12.1,12C191,241.9,175.3,241.9,159.6,241.9z"/>
		<path class="st1" d="M159.6,158.8c1.3,0,2.6,0,3.9,0c1.5,0,2.7,0.6,3.5,1.9c0.8,1.4,0.6,2.8-0.3,4.1c-1.1,1.7-2.3,3.4-3.4,5.1
			c-0.3,0.5-0.5,1.3-0.4,1.9c0.5,5,1.2,10,1.7,15c0.1,0.5,0,1.1-0.2,1.6c-1.1,3-2.2,6-3.4,9c-0.2,0.6-0.9,1-1.4,1.5
			c-0.5-0.5-1.1-1-1.4-1.6c-1.2-2.9-2.3-5.9-3.3-8.8c-0.2-0.5-0.3-1.2-0.2-1.7c0.5-4.9,1.2-9.8,1.7-14.7c0.1-0.8-0.2-1.7-0.6-2.5
			c-0.9-1.6-1.9-3-2.9-4.5c-0.9-1.4-1.4-2.8-0.5-4.3c0.8-1.6,2.2-2,3.9-2C157.3,158.8,158.5,158.8,159.6,158.8z"/>
	</g>
</g>
</svg>
