<?xml version="1.0" encoding="utf-8"?>
<!-- Generator: Adobe Illustrator 27.3.1, SVG Export Plug-In . SVG Version: 6.00 Build 0)  -->
<svg version="1.1" id="Layer_1" xmlns="http://www.w3.org/2000/svg" xmlns:xlink="http://www.w3.org/1999/xlink" x="0px" y="0px"
	 viewBox="0 0 319.3 334.7" style="enable-background:new 0 0 319.3 334.7;" xml:space="preserve">
<style type="text/css">
	.st0{fill:#0000FF;}
	.st1{fill:#FFFFFF;}
</style>
<g>
	<circle class="st0" cx="159.7" cy="167.3" r="141.3"/>
	<g>
		<path class="st1" d="M59.7,163c0.4-1.8,0.7-3.7,1.1-5.5c4.2-16.6,14.4-27.9,30.7-32.9c16.5-5.1,31.3-1.3,44.2,10.2
			c3.7,3.3,7.5,6.7,11.3,10.1c-4.2,3.8-8.3,7.4-12.6,11.2c-3.5-3.1-6.9-6.1-10.3-9.2c-16-14.8-41.8-7.3-46.9,13.6
			c-2.9,12.1,2.3,24.6,12.9,31c10.7,6.4,24.2,5.1,33.5-3.3c19.6-17.4,39.3-34.7,58.8-52.3c6.8-6.1,14.2-10.6,23.2-12.5
			c25.6-5.4,50.9,12.8,53.7,38.8c2.7,24.7-14.8,46.9-39.5,49.6c-13.8,1.5-25.9-2.5-36.2-12c-3.1-2.9-6.3-5.6-9.5-8.4
			c-0.6-0.5-1.1-1-1.9-1.7c4.2-3.8,8.4-7.4,12.6-11.2c3.5,3.2,7,6.2,10.4,9.3c16.1,14.8,41.9,7.1,46.9-14
			c2.9-12.1-2.5-24.5-13.2-30.8c-10.6-6.2-24.2-4.8-33.4,3.5c-11.6,10.5-23.3,21-35,31.4c-8.7,7.8-17.4,15.7-26.4,23.2
			c-13.1,11.1-28.2,14-44.4,8.4c-16.2-5.7-25.9-17.4-29.4-34.3c-0.2-1.2-0.5-2.4-0.7-3.6C59.7,168.7,59.7,165.9,59.7,163z"/>
	</g>
</g>
</svg>
