<?xml version="1.0" encoding="UTF-8"?>
<svg xmlns="http://www.w3.org/2000/svg" width="115" height="16" viewBox="0 0 115 16" fill="none">
  <path d="M3.27942 15.4247C2.92859 15.6228 2.53135 15.2766 2.60198 14.8342L3.35524 10.1162L0.157519 6.7677C-0.141325 6.45476 0.0133716 5.8826 0.41372 5.8201L4.86076 5.12592L6.8436 0.809905C7.02221 0.421113 7.50606 0.421113 7.68468 0.809905L9.66751 5.12592L14.1146 5.8201C14.5149 5.8826 14.6696 6.45476 14.3708 6.7677L11.173 10.1162L11.9263 14.8342C11.9969 15.2766 11.5997 15.6228 11.2489 15.4247L7.26414 13.1742L3.27942 15.4247Z" fill="#FF8B20"></path>
  <path d="M28.1803 15.4247C27.8295 15.6228 27.4322 15.2766 27.5029 14.8342L28.2561 10.1162L25.0584 6.7677C24.7596 6.45476 24.9143 5.8826 25.3146 5.8201L29.7616 5.12592L31.7445 0.809905C31.9231 0.421113 32.4069 0.421113 32.5856 0.809905L34.5684 5.12592L39.0154 5.8201C39.4158 5.8826 39.5705 6.45476 39.2716 6.7677L36.0739 10.1162L36.8272 14.8342C36.8978 15.2766 36.5006 15.6228 36.1497 15.4247L32.165 13.1742L28.1803 15.4247Z" fill="#FF8B20"></path>
  <path d="M53.0809 15.4247C52.7301 15.6228 52.3329 15.2766 52.4035 14.8342L53.1568 10.1162L49.959 6.7677C49.6602 6.45476 49.8149 5.8826 50.2152 5.8201L54.6623 5.12592L56.6451 0.809905C56.8237 0.421113 57.3076 0.421113 57.4862 0.809905L59.469 5.12592L63.9161 5.8201C64.3164 5.8826 64.4711 6.45476 64.1723 6.7677L60.9746 10.1162L61.7278 14.8342C61.7984 15.2766 61.4012 15.6228 61.0504 15.4247L57.0657 13.1742L53.0809 15.4247Z" fill="#FF8B20"></path>
  <path d="M77.9821 15.4247C77.6312 15.6228 77.234 15.2766 77.3046 14.8342L78.0579 10.1162L74.8602 6.7677C74.5613 6.45476 74.716 5.8826 75.1164 5.8201L79.5634 5.12592L81.5462 0.809905C81.7248 0.421113 82.2087 0.421113 82.3873 0.809905L84.3702 5.12592L88.8172 5.8201C89.2175 5.8826 89.3722 6.45476 89.0734 6.7677L85.8757 10.1162L86.6289 14.8342C86.6996 15.2766 86.3023 15.6228 85.9515 15.4247L81.9668 13.1742L77.9821 15.4247Z" fill="#FF8B20"></path>
  <path d="M102.882 15.4247C102.532 15.6228 102.134 15.2766 102.205 14.8342L102.958 10.1162L99.7605 6.7677C99.4617 6.45476 99.6164 5.8826 100.017 5.8201L104.464 5.12592L106.447 0.809905C106.625 0.421113 107.109 0.421113 107.288 0.809905L109.271 5.12592L113.718 5.8201C114.118 5.8826 114.273 6.45476 113.974 6.7677L110.776 10.1162L111.529 14.8342C111.6 15.2766 111.203 15.6228 110.852 15.4247L106.867 13.1742L102.882 15.4247Z" fill="#FF8B20"></path>
</svg>
