<?xml version="1.0" encoding="utf-8"?>
<!-- Generator: Adobe Illustrator 27.3.1, SVG Export Plug-In . SVG Version: 6.00 Build 0)  -->
<svg version="1.1" id="Layer_1" xmlns="http://www.w3.org/2000/svg" xmlns:xlink="http://www.w3.org/1999/xlink" x="0px" y="0px"
	 viewBox="0 0 319.3 334.7" style="enable-background:new 0 0 319.3 334.7;" xml:space="preserve">
<style type="text/css">
	.st0{fill:#0000FF;}
	.st1{fill:#FFFFFF;}
</style>
<g>
	<circle class="st0" cx="159.7" cy="167.3" r="141.3"/>
	<g>
		<path class="st1" d="M105.1,163.9c3.2,0,6.2,0,9.1,0c4.7,0,6.9,3.9,4.5,7.9c-5.6,9.4-11.3,18.7-17,28.1c-2.2,3.5-6.6,3.6-8.7,0.1
			c-5.8-9.4-11.5-18.8-17.1-28.2c-2.2-3.7,0.2-7.7,4.5-7.8c2.6,0,5.2,0,7.8,0c0.5-3.6,0.9-7.1,1.5-10.5
			c5.3-28.3,28.1-51.1,56.5-56.1c21.7-3.8,41.4,1,58.6,15c2.4,1.9,2.5,3.5,0.4,5.7c-2,2.2-4.1,4.4-6.2,6.6c-1.9,2-3.2,2.1-5.4,0.4
			c-10.5-8.3-22.4-12.4-35.7-12.1c-25.3,0.5-47.4,19.4-51.9,44.3C105.7,159.2,105.5,161.4,105.1,163.9z"/>
		<path class="st1" d="M214.4,170.8c-3.3,0-6.3,0-9.2,0c-4.6,0-6.9-4.1-4.5-8c5.6-9.3,11.2-18.6,16.9-27.9c2.2-3.6,6.6-3.6,8.8,0
			c5.7,9.3,11.3,18.6,16.9,27.9c2.3,3.8,0.1,7.7-4.4,7.8c-2.6,0.1-5.2,0-7.9,0c-0.4,2.8-0.6,5.6-1.1,8.3
			c-5,30.2-28.3,53.8-58.4,58.7c-21.3,3.5-40.4-1.6-57.2-15.2c-2.2-1.8-2.3-3.4-0.3-5.6c2.1-2.2,4.2-4.4,6.4-6.7
			c1.9-2,3.2-2.1,5.4-0.3c10.6,8.4,22.6,12.4,36.1,12.1c25.2-0.6,47.4-19.8,51.6-44.7C213.9,175.2,214.1,173.1,214.4,170.8z"/>
	</g>
</g>
</svg>
