<?xml version="1.0" encoding="utf-8"?>
<!-- Generator: Adobe Illustrator 27.3.1, SVG Export Plug-In . SVG Version: 6.00 Build 0)  -->
<svg version="1.1" id="Layer_1" xmlns="http://www.w3.org/2000/svg" xmlns:xlink="http://www.w3.org/1999/xlink" x="0px" y="0px"
	 viewBox="0 0 100 100" style="enable-background:new 0 0 100 100;" xml:space="preserve">
<style type="text/css">
	.st0{fill:#0000FF;}
</style>
<g>
	<path class="st0" d="M1.7,48.5c0.3-2.1,0.5-4.2,0.9-6.2c1.9-9.1,6.2-16.8,12.9-23.3c0.8-0.8,1.7-0.9,2.3-0.2
		c0.6,0.6,0.5,1.5-0.3,2.2C11.3,27,7,34.2,5.4,42.8C2.5,58.7,7,72.2,18.9,83.1c6.1,5.6,13.4,8.9,21.6,10
		c15.8,2.3,32.6-4.1,42.1-19.7c3-4.9,5-10.2,6.2-15.8c0.1-0.5,0.5-1.1,0.9-1.3c0.3-0.2,1.1-0.1,1.4,0.1c0.3,0.3,0.6,1,0.5,1.5
		c-0.1,0.9-0.4,1.7-0.7,2.6c1.8,0.4,3.1-0.1,3.9-1.3c0.9-1.3,0.7-2.6-0.4-4.1c-3-3.8-6.1-7.6-9.1-11.3c-1.9-2.4-4.3-2.4-6.2,0
		c-3.1,3.8-6.1,7.6-9.2,11.4c-0.9,1.1-1.2,2.3-0.6,3.7c0.6,1.4,1.8,1.9,3.2,1.8c1.2,0,2.3,0,3.5,0c1.5,0,2.1,0.9,1.5,2.2
		c-4.4,10.9-12.2,18-23.7,20.6c-18.2,4.1-35.8-7.4-39.6-25.7c-3.8-18,8.6-36.1,26.8-39c4.6-0.8,9.2-0.6,13.7,0.6
		c1.3,0.4,2.4,0.1,3.3-0.9c1.4-1.5,2.9-2.9,4.4-4.4c0.9-0.9,0.8-1.6-0.5-2c-13.5-4.9-26.3-3.7-38.4,4c-0.3,0.2-0.6,0.4-0.9,0.6
		c-0.8,0.5-1.6,0.3-2-0.3c-0.5-0.7-0.3-1.5,0.5-2c2-1.2,3.9-2.5,6-3.5c11.8-5.5,23.8-5.9,36-1.3c3,1.1,3.7,4.3,1.4,6.6
		c-1.5,1.5-3,3-4.5,4.5c-1.6,1.7-3.5,2.1-5.8,1.6c-12-2.7-22.2,0.4-30.4,9.5c-10.8,12-9.5,31.2,2.5,42c6.3,5.6,13.6,8.4,21.9,7.8
		c11.8-0.8,20.4-6.8,25.7-17.4c0.1-0.1,0.1-0.3,0.2-0.6c-0.7,0-1.3,0-1.9,0c-2.6,0-4.5-1.2-5.6-3.5c-1.1-2.3-0.8-4.5,0.8-6.4
		c3.1-3.8,6.2-7.7,9.3-11.5c3.1-3.8,7.6-3.8,10.7,0c3.1,3.8,6.1,7.7,9.2,11.5c1.7,2,2,4.3,0.8,6.6c-1.1,2.3-3.1,3.4-5.6,3.4
		c-1.8,0-1.8,0-2.4,1.8c-5.9,16.4-17.3,26.8-34.4,30.3c-21.1,4.3-41.7-7.1-50.1-26.8c-1.9-4.4-3-9-3.3-13.8c0-0.3-0.1-0.5-0.2-0.8
		C1.7,52.2,1.7,50.4,1.7,48.5z"/>
	<path class="st0" d="M49.3,44.1c1.8,1.8,3.7,3.7,5.7,5.7c0.1-0.1,0.4-0.4,0.6-0.6c6.5-6.5,13.1-13.1,19.6-19.6
		c0.2-0.2,0.5-0.5,0.8-0.7c0.6-0.4,1.3-0.3,1.8,0.2c0.5,0.5,0.5,1.1,0.1,1.7c-0.2,0.3-0.4,0.5-0.6,0.7C69.5,39.3,61.8,47,54,54.8
		c-1.2,1.2-2.5,2-4.1,2.3c-2.7,0.6-5.3,1.3-7.9,2c-0.5,0.1-1,0.2-1.5,0.2c-4.8,0-9.6,0-14.4,0c-0.3,0-0.5,0-0.8,0
		c-0.8-0.1-1.3-0.6-1.3-1.4c0-0.8,0.5-1.3,1.3-1.4c0.3,0,0.7,0,1,0c4.3,0,8.6,0,12.8,0c0.6,0,0.9-0.2,1.1-0.8
		c0.5-2.1,1.1-4.2,1.6-6.3c0.4-1.8,1.3-3.3,2.6-4.5C57.4,31.8,70.5,18.7,83.6,5.6c2.8-2.8,7.2-2.8,9.9,0c2.7,2.7,2.7,7.1-0.1,9.8
		C89.9,19,86.3,22.5,82.8,26c-1,1-1.6,1-2.6,0c-1.9-1.9-3.8-3.8-5.7-5.7c-0.2-0.2-0.4-0.5-0.6-0.8C65.6,27.8,57.4,36,49.3,44.1z
		 M86.1,18.7c1.8-1.8,3.7-3.6,5.5-5.5c1.5-1.6,1.4-4.1-0.1-5.6c-1.6-1.6-4-1.7-5.7-0.1c-1,0.9-2,2-3,2.9C82,11.2,81,12,80.2,12.8
		C82.3,14.8,84.2,16.7,86.1,18.7z M46.9,46.1c-0.7,0.9-1.6,1.7-2,2.8c-0.8,2.2-1.2,4.5-1.8,6.8c0,0,0.1,0.1,0.1,0.2
		c1.9-0.5,3.8-1,5.8-1.4c1.6-0.4,2.7-1.3,3.7-2.5C50.9,50,49,48.2,46.9,46.1z M78.4,15.3c-0.8,0.8-1.7,1.6-2.4,2.3
		c1.9,1.9,3.8,3.7,5.6,5.6c0.8-0.7,1.6-1.5,2.4-2.3C82,18.9,80.1,17,78.4,15.3z"/>
	<path class="st0" d="M39.2,65.6c-3,0-6.1,0-9.1,0c-0.4,0-0.8,0-1.1-0.1c-0.6-0.2-0.9-0.7-0.9-1.4c0.1-0.7,0.4-1.1,1.1-1.2
		c0.3-0.1,0.6,0,0.8,0c6.2,0,12.3,0,18.5,0c0.3,0,0.5,0,0.8,0c0.7,0.1,1.1,0.6,1.2,1.3c0,0.7-0.3,1.2-1,1.4c-0.3,0.1-0.7,0.1-1,0.1
		C45.3,65.6,42.3,65.6,39.2,65.6z"/>
	<path class="st0" d="M57.4,62.8c0.6,0,1.2,0,1.8,0c0.8,0,1.3,0.5,1.3,1.3c0,0.8-0.4,1.4-1.2,1.4c-1.3,0.1-2.6,0.1-3.9,0
		c-0.8-0.1-1.2-0.6-1.2-1.4c0-0.8,0.5-1.3,1.3-1.3C56.2,62.8,56.8,62.8,57.4,62.8z"/>
</g>
</svg>
