<?xml version="1.0" encoding="utf-8"?>
<!-- Generator: Adobe Illustrator 27.3.1, SVG Export Plug-In . SVG Version: 6.00 Build 0)  -->
<svg version="1.1" id="Layer_1" xmlns="http://www.w3.org/2000/svg" xmlns:xlink="http://www.w3.org/1999/xlink" x="0px" y="0px"
	 viewBox="0 0 121 120" style="enable-background:new 0 0 121 120;" xml:space="preserve">
<style type="text/css">
	.st0{fill:none;}
	.st1{fill:#FFFFFF;}
	.st2{fill:#0000FF;}
</style>
<rect x="0.4" class="st0" width="120" height="120"/>
<circle class="st1" cx="60.4" cy="60" r="60"/>
<circle class="st1" cx="60.4" cy="60" r="60"/>
<g>
	<path class="st2" d="M50.6,67.5c3.3-3.3,6.6-6.6,9.9-9.9c7.5-7.5,15-15,22.5-22.5c4-4,10.3-3.3,13.1,1.6c1.6,3,1.4,6.8-0.9,9.6
		c-0.2,0.2-0.5,0.5-0.7,0.7C82,59.5,69.3,72.2,56.9,84.6c-2.3,2.3-4.9,3.3-8.2,2.6c-1.4-0.5-2.8-1.2-3.8-2.3
		c-6.3-6.3-12.4-12.4-18.8-18.8c-3.3-3.3-3.3-8.4,0-11.7s8.4-3.3,11.5,0c4.2,4.2,8.2,8.2,12.4,12.4C50.1,67,50.3,67.3,50.6,67.5z"/>
</g>
</svg>
