<svg xmlns="http://www.w3.org/2000/svg" width="1500" height="477" viewBox="0 0 1500 477">
<g>
<path d="M 118.00,291.00 L 118.00,182.00 L 100.42,182.00 L 98.00,182.00 L 93.62,181.93 L 92.57,181.91 L 90.66,181.85 L 89.74,181.82 L 88.10,181.75 L 87.31,181.71 L 85.99,181.62 L 85.38,181.58 L 84.42,181.48 L 84.00,181.42 L 83.46,181.31 L 83.17,181.14 L 83.19,181.08 L 83.50,180.53 L 83.69,180.18 L 84.32,179.10 L 84.67,178.50 L 85.58,176.95 L 86.06,176.13 L 87.22,174.18 L 87.82,173.16 L 89.18,170.87 L 89.88,169.69 L 91.42,167.11 L 96.49,158.64 L 109.47,137.00 L 144.74,137.00 L 180.00,137.00 L 180.00,145.61 L 180.00,146.42 L 180.01,147.84 L 180.03,148.52 L 180.06,149.67 L 180.11,150.76 L 180.27,152.23 L 180.37,152.86 L 180.66,153.50 L 181.25,153.67 L 185.70,151.72 L 194.13,148.36 L 198.27,146.77 L 206.15,144.11 L 210.03,142.87 L 217.44,140.89 L 221.09,139.98 L 228.14,138.67 L 231.62,138.10 L 238.38,137.44 L 241.73,137.20 L 248.30,137.18 L 251.57,137.25 L 258.05,137.85 L 267.74,139.45 L 270.96,140.12 L 277.33,141.94 L 280.46,142.92 L 286.33,145.19 L 287.75,145.78 L 290.41,147.01 L 291.71,147.64 L 294.11,148.92 L 295.26,149.57 L 297.33,150.88 L 300.00,152.86 L 303.23,155.56 L 294.31,164.58 L 293.21,165.69 L 290.90,168.23 L 289.72,169.55 L 287.30,172.43 L 284.86,175.39 L 280.01,181.87 L 277.64,185.14 L 273.38,191.62 L 272.38,193.19 L 270.60,196.20 L 268.34,200.37 L 267.98,201.07 L 267.31,202.39 L 266.99,203.02 L 266.43,204.09 L 266.17,204.58 L 265.79,205.29 L 265.47,205.82 L 265.43,205.87 L 265.06,205.75 L 264.83,205.66 L 264.14,205.32 L 261.34,203.63 L 259.91,202.69 L 256.86,201.28 L 255.28,200.65 L 251.76,199.81 L 249.92,199.46 L 245.67,199.16 L 244.55,199.11 L 242.13,199.11 L 238.20,199.24 L 235.40,199.38 L 229.91,200.19 L 227.20,200.68 L 221.94,202.15 L 219.34,202.96 L 214.38,205.05 L 211.95,206.16 L 207.36,208.81 L 205.12,210.20 L 200.97,213.37 L 198.96,215.01 L 195.33,218.66 L 193.59,220.54 L 190.55,224.62 L 186.72,231.18 L 185.87,232.94 L 184.47,235.92 L 183.82,237.38 L 182.79,240.32 L 182.56,241.09 L 182.14,242.77 L 181.94,243.63 L 181.60,245.57 L 181.44,246.58 L 181.16,248.88 L 181.03,250.08 L 180.81,252.84 L 180.71,254.29 L 180.54,257.60 L 180.46,259.34 L 180.34,263.31 L 180.29,265.39 L 180.20,270.12 L 180.16,272.59 L 180.11,278.17 L 180.08,281.08 L 180.05,287.61 L 180.05,289.31 L 180.04,292.90 L 180.03,294.73 L 180.03,298.59 L 180.02,300.56 L 180.02,304.70 L 180.02,306.81 L 180.02,311.25 L 180.02,313.51 L 180.02,318.26 L 180.01,325.75 L 180.00,400.00 L 149.00,400.00 L 118.00,400.00 L 118.00,291.00 M 374.55,398.44 L 371.42,397.86 L 365.25,396.35 L 362.18,395.54 L 356.14,393.59 L 353.15,392.57 L 347.28,390.21 L 344.38,388.98 L 338.71,386.22 L 335.91,384.79 L 330.48,381.64 L 327.80,380.02 L 322.62,376.50 L 320.07,374.69 L 315.18,370.81 L 308.21,364.60 L 305.33,361.84 L 300.23,356.33 L 297.78,353.56 L 293.40,347.84 L 291.28,344.93 L 287.42,338.74 L 281.99,328.62 L 280.46,325.47 L 277.77,319.09 L 276.48,315.89 L 274.30,309.42 L 273.27,306.18 L 271.59,299.63 L 270.82,296.35 L 269.65,289.73 L 269.13,286.42 L 268.47,279.74 L 268.21,276.39 L 268.06,269.66 L 268.05,266.29 L 268.42,259.52 L 269.55,249.32 L 270.08,245.77 L 271.50,238.85 L 272.27,235.42 L 274.16,228.74 L 275.17,225.44 L 277.52,219.03 L 278.75,215.86 L 281.55,209.73 L 283.00,206.70 L 286.23,200.87 L 287.90,197.99 L 291.53,192.47 L 293.40,189.75 L 297.44,184.56 L 299.50,182.00 L 303.92,177.16 L 306.18,174.78 L 310.96,170.29 L 313.40,168.10 L 318.53,163.99 L 321.14,161.99 L 326.61,158.27 L 329.38,156.47 L 335.17,153.17 L 338.11,151.57 L 344.20,148.69 L 347.28,147.31 L 353.66,144.88 L 356.89,143.72 L 363.54,141.75 L 373.82,139.33 L 375.33,139.03 L 378.94,138.55 L 380.82,138.32 L 385.00,137.98 L 387.15,137.83 L 391.68,137.64 L 393.97,137.57 L 398.63,137.53 L 400.96,137.52 L 405.54,137.63 L 407.79,137.70 L 412.06,137.96 L 414.14,138.10 L 417.88,138.51 L 422.66,139.28 L 425.65,139.92 L 431.52,141.47 L 434.44,142.29 L 440.14,144.19 L 442.96,145.18 L 448.49,147.42 L 451.22,148.58 L 456.55,151.15 L 459.19,152.48 L 464.32,155.37 L 466.85,156.85 L 471.77,160.05 L 474.19,161.69 L 478.88,165.19 L 481.19,166.97 L 485.64,170.76 L 487.83,172.69 L 492.02,176.75 L 494.09,178.82 L 498.02,183.16 L 499.95,185.35 L 503.61,189.95 L 505.41,192.27 L 508.78,197.11 L 510.43,199.56 L 513.51,204.64 L 515.01,207.21 L 517.77,212.51 L 519.12,215.19 L 521.57,220.71 L 524.86,229.23 L 526.05,232.61 L 527.88,238.98 L 528.71,242.15 L 529.87,248.46 L 530.38,251.65 L 530.97,258.38 L 531.09,260.12 L 531.22,263.75 L 531.29,269.50 L 531.28,272.11 L 531.06,277.20 L 530.91,279.72 L 530.41,284.65 L 530.12,287.10 L 529.32,291.91 L 528.88,294.30 L 527.78,299.01 L 527.20,301.36 L 525.79,306.01 L 525.05,308.33 L 523.33,312.96 L 522.43,315.27 L 520.39,319.90 L 516.95,326.87 L 514.62,331.30 L 509.40,339.64 L 506.70,343.71 L 500.76,351.32 L 497.71,355.03 L 491.07,361.90 L 487.67,365.23 L 480.36,371.34 L 476.62,374.29 L 468.66,379.61 L 464.60,382.17 L 456.01,386.70 L 451.64,388.86 L 442.45,392.56 L 428.00,397.19 L 427.36,397.36 L 425.85,397.68 L 425.06,397.83 L 423.26,398.12 L 421.41,398.39 L 417.01,398.85 L 414.73,399.06 L 409.72,399.37 L 407.18,399.51 L 401.88,399.67 L 399.23,399.73 L 393.96,399.74 L 391.37,399.72 L 386.45,399.57 L 384.07,399.47 L 379.82,399.14 L 378.82,399.04 L 376.99,398.82 L 376.11,398.71 M 416.26,336.56 L 417.19,336.28 L 419.24,335.51 L 420.29,335.10 L 422.55,334.10 L 424.84,333.06 L 429.69,330.50 L 432.10,329.17 L 436.73,326.29 L 437.84,325.57 L 439.92,324.12 L 442.72,321.99 L 444.79,320.32 L 448.64,316.63 L 450.52,314.74 L 453.95,310.67 L 455.61,308.60 L 458.60,304.22 L 460.03,302.00 L 462.53,297.39 L 463.72,295.06 L 465.69,290.28 L 466.61,287.88 L 468.03,283.01 L 468.66,280.57 L 469.47,275.68 L 469.98,268.41 L 469.99,266.94 L 469.79,263.96 L 469.66,262.47 L 469.20,259.48 L 468.68,256.49 L 466.90,250.51 L 465.89,247.53 L 463.20,241.68 L 461.74,238.78 L 458.22,233.17 L 456.36,230.41 L 452.08,225.17 L 449.85,222.61 L 444.91,217.86 L 442.36,215.56 L 436.83,211.42 L 427.96,206.04 L 425.54,204.78 L 420.89,202.82 L 418.57,201.93 L 413.90,200.65 L 411.53,200.08 L 406.55,199.41 L 398.41,199.01 L 396.01,199.01 L 391.32,199.36 L 388.99,199.59 L 384.45,200.39 L 382.21,200.85 L 377.85,202.08 L 375.69,202.75 L 371.53,204.40 L 369.48,205.27 L 365.53,207.30 L 363.59,208.36 L 359.89,210.76 L 358.08,212.01 L 354.64,214.75 L 352.95,216.17 L 349.80,219.24 L 348.26,220.81 L 345.42,224.18 L 344.03,225.90 L 341.51,229.55 L 340.30,231.41 L 338.12,235.31 L 337.08,237.30 L 335.28,241.44 L 334.43,243.54 L 333.02,247.89 L 332.36,250.10 L 331.36,254.65 L 330.92,256.94 L 330.35,261.66 L 330.01,268.91 L 330.02,271.45 L 330.37,276.40 L 330.60,278.85 L 331.41,283.60 L 331.87,285.95 L 333.13,290.50 L 333.82,292.75 L 335.53,297.09 L 336.44,299.23 L 338.60,303.36 L 339.74,305.40 L 342.34,309.31 L 343.70,311.24 L 346.75,314.92 L 351.82,320.19 L 354.38,322.60 L 359.82,326.76 L 362.59,328.72 L 368.40,331.95 L 371.35,333.45 L 377.47,335.72 L 386.93,338.00 L 387.85,338.15 L 390.07,338.36 L 391.23,338.44 L 393.80,338.54 L 396.44,338.60 L 402.15,338.42 L 404.98,338.28 L 410.22,337.73 L 411.44,337.57 L 413.60,337.20 L 414.62,337.01 M 711.00,392.00 L 711.00,390.90 L 710.96,388.89 L 710.94,387.94 L 710.86,386.35 L 710.82,385.62 L 710.72,384.63 L 710.53,384.00 L 710.47,384.00 L 709.86,384.27 L 709.48,384.45 L 708.36,385.01 L 707.75,385.32 L 706.26,386.10 L 703.78,387.44 L 701.55,388.66 L 696.73,390.83 L 694.27,391.87 L 689.07,393.66 L 686.43,394.51 L 680.96,395.90 L 678.19,396.55 L 672.53,397.53 L 669.69,397.97 L 663.95,398.53 L 661.08,398.76 L 655.35,398.88 L 652.50,398.88 L 646.89,398.54 L 638.71,397.51 L 635.58,396.96 L 629.70,395.65 L 626.81,394.96 L 621.35,393.32 L 618.67,392.46 L 613.55,390.45 L 611.03,389.40 L 606.19,386.99 L 603.80,385.72 L 599.16,382.87 L 596.85,381.38 L 592.34,378.04 L 590.09,376.30 L 585.62,372.43 L 578.90,366.00 L 577.08,364.14 L 573.60,360.27 L 571.90,358.30 L 568.69,354.23 L 567.12,352.16 L 564.17,347.91 L 562.74,345.76 L 560.07,341.34 L 558.78,339.11 L 556.41,334.56 L 555.26,332.26 L 553.20,327.59 L 552.20,325.24 L 550.45,320.46 L 548.20,313.21 L 545.54,303.50 L 545.23,220.24 L 544.92,136.97 L 575.71,137.24 L 606.50,137.50 L 607.00,217.50 L 607.02,219.95 L 607.04,224.62 L 607.06,226.93 L 607.09,231.31 L 607.10,233.47 L 607.13,237.58 L 607.14,239.60 L 607.17,243.45 L 607.19,247.23 L 607.25,254.02 L 607.27,257.30 L 607.32,263.15 L 607.35,265.97 L 607.41,270.95 L 607.43,273.34 L 607.50,277.54 L 607.53,279.55 L 607.60,283.04 L 607.63,284.70 L 607.71,287.56 L 607.75,288.92 L 607.85,291.22 L 607.89,292.31 L 608.00,294.14 L 608.06,295.00 L 608.18,296.43 L 608.25,297.10 L 608.39,298.21 L 608.54,299.26 L 608.92,300.72 L 609.60,302.60 L 610.79,305.51 L 613.85,310.95 L 615.48,313.60 L 619.31,318.45 L 621.30,320.79 L 625.74,324.97 L 628.02,326.96 L 632.94,330.36 L 635.44,331.96 L 640.69,334.50 L 643.34,335.66 L 648.77,337.25 L 650.13,337.58 L 652.86,338.05 L 654.23,338.25 L 656.96,338.45 L 658.33,338.52 L 661.04,338.44 L 665.06,337.99 L 667.54,337.57 L 672.46,336.07 L 674.90,335.22 L 679.64,332.92 L 681.99,331.68 L 686.46,328.69 L 688.65,327.11 L 692.75,323.52 L 694.74,321.66 L 698.35,317.56 L 700.09,315.46 L 703.11,310.97 L 704.54,308.68 L 706.87,303.89 L 709.47,296.46 L 709.63,295.83 L 709.91,294.16 L 710.04,293.22 L 710.26,290.66 L 710.31,289.95 L 710.40,288.29 L 710.45,287.42 L 710.53,285.42 L 710.57,284.37 L 710.64,281.97 L 710.67,280.72 L 710.73,277.88 L 710.75,276.41 L 710.80,273.08 L 710.82,271.36 L 710.86,267.50 L 710.88,265.51 L 710.91,261.07 L 710.92,258.78 L 710.95,253.73 L 710.96,251.12 L 710.97,245.39 L 710.98,242.44 L 710.99,236.01 L 710.99,232.69 L 711.00,225.49 L 711.00,213.79 L 711.00,137.00 L 741.50,137.00 L 772.00,137.00 L 772.00,268.50 L 772.00,400.00 L 741.50,400.00 L 711.00,400.00 L 711.00,392.00 M 892.00,398.51 L 889.37,397.98 L 884.15,396.61 L 881.54,395.88 L 876.38,394.11 L 873.80,393.18 L 868.71,391.03 L 866.18,389.91 L 861.19,387.40 L 858.71,386.10 L 853.85,383.25 L 851.44,381.78 L 846.72,378.61 L 844.38,376.99 L 839.84,373.51 L 837.59,371.74 L 833.23,367.99 L 831.08,366.08 L 826.94,362.07 L 824.90,360.03 L 821.00,355.78 L 819.08,353.62 L 815.44,349.15 L 813.66,346.89 L 810.30,342.21 L 808.66,339.86 L 805.60,335.00 L 804.12,332.56 L 801.39,327.54 L 800.07,325.02 L 797.70,319.87 L 794.56,312.01 L 794.18,310.94 L 793.49,309.03 L 793.15,308.11 L 792.55,306.38 L 791.97,304.69 L 791.06,301.36 L 790.85,300.49 L 790.48,298.64 L 790.30,297.68 L 790.00,295.54 L 789.85,294.43 L 789.60,291.91 L 789.48,290.59 L 789.28,287.56 L 789.19,285.97 L 789.03,282.32 L 788.96,280.41 L 788.84,276.02 L 788.78,273.73 L 788.69,268.49 L 788.65,265.76 L 788.58,259.55 L 788.56,257.94 L 788.53,254.50 L 788.52,252.75 L 788.49,249.03 L 788.48,247.14 L 788.45,243.13 L 788.44,241.08 L 788.42,236.76 L 788.41,234.56 L 788.39,229.92 L 788.37,227.55 L 788.35,222.57 L 788.34,220.03 L 788.32,214.69 L 788.28,206.27 L 787.91,121.05 L 771.15,120.77 L 754.39,120.50 L 767.09,99.00 L 779.79,77.50 L 814.90,77.24 L 850.00,76.97 L 850.00,107.48 L 850.00,137.98 L 893.75,138.24 L 937.50,138.50 L 937.50,169.00 L 937.50,199.50 L 893.68,199.76 L 849.87,200.02 L 850.22,243.76 L 850.25,246.38 L 850.29,251.17 L 850.31,253.49 L 850.35,257.71 L 850.37,259.75 L 850.41,263.44 L 850.43,265.23 L 850.47,268.44 L 850.49,269.98 L 850.54,272.75 L 850.57,274.09 L 850.63,276.46 L 850.66,277.60 L 850.73,279.62 L 850.76,280.58 L 850.84,282.29 L 850.93,283.93 L 851.14,286.46 L 851.25,287.63 L 851.54,289.47 L 852.79,294.12 L 853.39,295.91 L 854.94,299.49 L 855.77,301.28 L 857.75,304.82 L 858.79,306.57 L 861.15,310.00 L 862.37,311.69 L 865.05,314.94 L 866.42,316.54 L 869.36,319.55 L 870.86,321.02 L 874.02,323.73 L 875.62,325.05 L 878.93,327.40 L 884.02,330.44 L 885.59,331.27 L 888.26,332.63 L 889.54,333.27 L 891.81,334.31 L 892.91,334.79 L 895.02,335.55 L 896.07,335.90 L 898.24,336.44 L 899.36,336.68 L 901.84,337.04 L 903.15,337.20 L 906.18,337.44 L 907.79,337.54 L 911.61,337.71 L 912.63,337.75 L 914.85,337.82 L 918.50,337.94 L 937.50,338.50 L 937.76,369.25 L 938.03,400.00 L 918.26,399.91 L 915.30,399.89 L 909.70,399.77 L 906.99,399.70 L 902.15,399.48 L 901.00,399.42 L 898.90,399.28 L 897.88,399.21 L 896.08,399.05 L 895.22,398.97 L 893.76,398.79 L 893.08,398.70 M 1049.75,397.51 L 1045.99,396.90 L 1038.54,395.13 L 1034.84,394.16 L 1027.53,391.70 L 1023.90,390.38 L 1016.80,387.27 L 1013.28,385.64 L 1006.46,381.92 L 1003.09,379.99 L 996.62,375.69 L 993.43,373.48 L 987.37,368.65 L 984.40,366.18 L 978.82,360.86 L 971.07,352.37 L 969.45,350.41 L 966.39,346.40 L 964.90,344.37 L 962.09,340.22 L 960.72,338.13 L 958.17,333.87 L 956.92,331.72 L 954.63,327.34 L 953.51,325.13 L 951.47,320.65 L 950.49,318.40 L 948.71,313.83 L 947.86,311.54 L 946.35,306.88 L 945.62,304.55 L 944.38,299.83 L 943.79,297.46 L 942.81,292.68 L 942.35,290.28 L 941.65,285.45 L 941.33,283.03 L 940.90,278.16 L 940.72,275.72 L 940.56,270.82 L 940.52,268.36 L 940.64,263.44 L 940.74,260.98 L 941.14,256.05 L 941.38,253.59 L 942.07,248.66 L 943.42,241.27 L 943.93,238.90 L 945.15,234.21 L 945.79,231.87 L 947.28,227.26 L 948.06,224.97 L 949.81,220.46 L 950.72,218.21 L 952.73,213.81 L 953.76,211.62 L 956.01,207.33 L 957.16,205.20 L 959.64,201.04 L 960.91,198.98 L 963.62,194.97 L 965.00,192.98 L 967.92,189.11 L 969.41,187.20 L 972.54,183.50 L 974.13,181.68 L 977.46,178.15 L 979.14,176.42 L 982.66,173.08 L 984.44,171.44 L 988.14,168.31 L 990.01,166.77 L 993.87,163.85 L 995.83,162.41 L 999.85,159.72 L 1001.89,158.40 L 1006.07,155.93 L 1012.50,152.52 L 1015.02,151.27 L 1019.87,149.07 L 1022.27,148.02 L 1026.93,146.19 L 1029.25,145.32 L 1033.83,143.83 L 1036.11,143.13 L 1040.69,141.98 L 1042.99,141.44 L 1047.65,140.59 L 1050.00,140.20 L 1054.85,139.64 L 1057.30,139.39 L 1062.42,139.09 L 1070.50,138.91 L 1073.10,138.91 L 1078.24,139.13 L 1080.80,139.27 L 1085.86,139.77 L 1088.39,140.06 L 1093.37,140.84 L 1095.85,141.27 L 1100.74,142.33 L 1103.17,142.90 L 1107.96,144.24 L 1110.35,144.94 L 1115.03,146.55 L 1117.36,147.39 L 1121.93,149.27 L 1124.20,150.24 L 1128.65,152.38 L 1130.86,153.49 L 1135.18,155.89 L 1137.33,157.12 L 1141.51,159.78 L 1143.59,161.14 L 1147.63,164.05 L 1149.63,165.54 L 1153.52,168.69 L 1155.44,170.30 L 1159.17,173.71 L 1161.02,175.44 L 1164.58,179.09 L 1166.34,180.94 L 1169.73,184.82 L 1174.61,190.91 L 1175.42,191.98 L 1177.27,194.72 L 1178.23,196.17 L 1180.26,199.47 L 1182.31,202.86 L 1186.32,210.12 L 1187.26,211.88 L 1188.93,215.16 L 1189.72,216.74 L 1190.96,219.46 L 1191.24,220.10 L 1191.70,221.20 L 1191.90,221.73 L 1192.20,222.60 L 1192.33,223.00 L 1192.45,223.60 L 1192.41,224.15 L 1192.37,224.21 L 1191.71,224.77 L 1191.28,225.12 L 1189.91,226.22 L 1189.14,226.83 L 1187.13,228.40 L 1186.05,229.24 L 1183.49,231.22 L 1182.15,232.25 L 1179.12,234.58 L 1177.56,235.78 L 1174.14,238.40 L 1172.39,239.73 L 1168.66,242.57 L 1162.81,247.01 L 1133.75,269.00 L 1087.67,269.00 L 1084.04,269.00 L 1077.37,268.98 L 1074.13,268.97 L 1068.28,268.94 L 1065.46,268.91 L 1060.47,268.86 L 1058.08,268.83 L 1053.99,268.75 L 1052.06,268.71 L 1048.90,268.61 L 1047.44,268.56 L 1045.26,268.45 L 1044.29,268.39 L 1043.12,268.26 L 1042.55,268.05 L 1042.58,268.02 L 1042.84,267.82 L 1042.99,267.71 L 1043.48,267.35 L 1044.03,266.95 L 1045.78,265.71 L 1046.76,265.02 L 1049.30,263.24 L 1050.66,262.29 L 1053.89,260.04 L 1055.57,258.87 L 1059.38,256.22 L 1061.35,254.86 L 1065.63,251.89 L 1067.83,250.38 L 1072.49,247.16 L 1079.81,242.12 L 1116.11,217.14 L 1110.99,213.09 L 1109.47,211.89 L 1106.38,209.75 L 1104.82,208.73 L 1101.62,206.94 L 1100.01,206.08 L 1096.68,204.63 L 1095.00,203.94 L 1091.50,202.82 L 1089.73,202.29 L 1086.04,201.48 L 1084.17,201.12 L 1080.25,200.62 L 1078.26,200.41 L 1074.09,200.21 L 1067.50,200.23 L 1065.09,200.32 L 1060.56,200.72 L 1058.34,200.96 L 1054.16,201.70 L 1052.11,202.11 L 1048.21,203.20 L 1046.29,203.79 L 1042.62,205.27 L 1040.80,206.06 L 1037.29,207.95 L 1035.55,208.94 L 1032.14,211.27 L 1030.44,212.48 L 1027.07,215.27 L 1022.00,220.00 L 1019.89,222.11 L 1016.36,226.14 L 1014.69,228.15 L 1011.89,232.22 L 1010.56,234.30 L 1008.29,238.74 L 1005.23,246.17 L 1004.80,247.35 L 1004.07,250.14 L 1003.73,251.58 L 1003.16,254.79 L 1002.90,256.43 L 1002.50,259.91 L 1002.33,261.67 L 1002.11,265.30 L 1001.94,268.93 L 1002.16,276.01 L 1002.27,277.72 L 1002.63,280.91 L 1003.40,285.24 L 1003.81,287.00 L 1004.93,290.57 L 1005.54,292.36 L 1007.04,295.94 L 1007.83,297.72 L 1009.65,301.24 L 1010.60,302.99 L 1012.71,306.39 L 1013.79,308.07 L 1016.14,311.28 L 1017.35,312.86 L 1019.90,315.83 L 1021.20,317.27 L 1023.92,319.92 L 1028.12,323.47 L 1030.28,325.11 L 1034.74,327.96 L 1037.00,329.31 L 1041.61,331.60 L 1043.94,332.68 L 1048.68,334.42 L 1051.05,335.22 L 1055.87,336.42 L 1058.28,336.95 L 1063.14,337.62 L 1065.57,337.89 L 1070.43,338.03 L 1072.85,338.04 L 1077.68,337.67 L 1080.08,337.41 L 1084.83,336.53 L 1087.19,336.03 L 1091.82,334.65 L 1094.12,333.89 L 1098.60,332.02 L 1100.82,331.02 L 1105.12,328.67 L 1107.23,327.43 L 1111.30,324.60 L 1113.30,323.12 L 1117.10,319.82 L 1118.96,318.11 L 1122.45,314.36 L 1124.15,312.42 L 1127.30,308.21 L 1131.59,301.40 L 1135.17,295.00 L 1166.59,295.00 L 1168.35,295.00 L 1171.60,295.00 L 1173.17,295.00 L 1176.05,295.01 L 1177.45,295.01 L 1179.98,295.02 L 1181.21,295.03 L 1183.42,295.05 L 1184.49,295.06 L 1186.40,295.08 L 1187.32,295.10 L 1188.95,295.13 L 1190.52,295.16 L 1192.90,295.26 L 1193.98,295.32 L 1195.52,295.47 L 1196.20,295.55 L 1197.07,295.75 L 1197.44,295.86 L 1197.81,296.13 L 1198.00,296.62 L 1198.00,296.87 L 1197.90,297.60 L 1197.84,298.00 L 1197.62,298.98 L 1197.37,300.02 L 1196.57,302.73 L 1196.12,304.16 L 1195.00,307.45 L 1194.41,309.15 L 1193.07,312.76 L 1191.70,316.40 L 1188.73,323.50 L 1188.00,325.17 L 1186.62,328.13 L 1184.75,331.74 L 1182.34,335.94 L 1177.05,343.80 L 1174.33,347.64 L 1168.41,354.77 L 1165.38,358.24 L 1158.87,364.62 L 1155.55,367.72 L 1148.47,373.33 L 1144.86,376.04 L 1137.24,380.87 L 1133.37,383.18 L 1125.23,387.20 L 1121.10,389.10 L 1112.47,392.30 L 1099.00,396.14 L 1097.57,396.47 L 1094.10,397.04 L 1092.28,397.31 L 1088.20,397.75 L 1086.10,397.95 L 1081.61,398.26 L 1079.33,398.40 L 1074.66,398.56 L 1072.32,398.63 L 1067.67,398.65 L 1065.37,398.64 L 1060.98,398.51 L 1058.83,398.42 L 1054.89,398.13 L 1053.00,397.97 M 1290.50,397.92 L 1288.00,397.58 L 1283.16,396.74 L 1280.77,396.31 L 1276.15,395.28 L 1273.87,394.75 L 1269.45,393.53 L 1267.27,392.90 L 1263.06,391.48 L 1260.98,390.75 L 1256.97,389.13 L 1254.99,388.30 L 1251.18,386.48 L 1249.30,385.54 L 1245.68,383.52 L 1243.89,382.48 L 1240.46,380.24 L 1238.76,379.10 L 1235.51,376.65 L 1233.91,375.40 L 1230.84,372.74 L 1229.33,371.38 L 1226.43,368.50 L 1225.01,367.03 L 1222.28,363.93 L 1220.94,362.36 L 1218.38,359.03 L 1217.12,357.34 L 1214.73,353.79 L 1213.55,351.99 L 1211.31,348.21 L 1208.13,342.28 L 1207.70,341.42 L 1206.91,339.74 L 1206.54,338.92 L 1205.92,337.44 L 1205.64,336.73 L 1205.25,335.61 L 1205.00,334.53 L 1205.00,334.36 L 1205.25,334.08 L 1205.43,333.94 L 1206.16,333.72 L 1206.61,333.62 L 1208.02,333.45 L 1208.82,333.38 L 1211.07,333.26 L 1211.69,333.23 L 1213.13,333.19 L 1213.88,333.17 L 1215.58,333.13 L 1216.47,333.11 L 1218.47,333.08 L 1219.51,333.07 L 1221.83,333.05 L 1223.03,333.04 L 1225.68,333.03 L 1227.06,333.02 L 1230.07,333.01 L 1231.62,333.01 L 1235.02,333.00 L 1240.57,333.00 L 1276.14,333.00 L 1280.59,336.06 L 1282.16,337.14 L 1285.28,339.05 L 1286.85,339.96 L 1289.96,341.55 L 1291.52,342.30 L 1294.63,343.55 L 1296.19,344.14 L 1299.29,345.07 L 1300.85,345.50 L 1303.95,346.10 L 1305.50,346.36 L 1308.60,346.64 L 1310.16,346.74 L 1313.26,346.69 L 1317.91,346.25 L 1320.84,345.83 L 1326.11,344.48 L 1328.64,343.73 L 1333.07,341.78 L 1335.18,340.74 L 1338.72,338.26 L 1340.38,336.97 L 1342.98,334.04 L 1343.57,333.28 L 1344.56,331.69 L 1345.02,330.89 L 1345.76,329.21 L 1346.09,328.36 L 1346.57,326.60 L 1346.77,325.72 L 1346.98,323.89 L 1347.04,322.96 L 1346.97,321.07 L 1346.90,320.12 L 1346.55,318.17 L 1346.34,317.19 L 1345.70,315.20 L 1344.40,312.18 L 1343.80,310.97 L 1342.43,308.82 L 1341.70,307.78 L 1339.93,305.90 L 1338.98,304.98 L 1336.61,303.27 L 1335.33,302.43 L 1332.16,300.80 L 1331.31,300.39 L 1329.42,299.57 L 1328.45,299.16 L 1326.29,298.33 L 1325.18,297.91 L 1322.74,297.06 L 1321.48,296.62 L 1318.71,295.73 L 1317.29,295.28 L 1314.19,294.34 L 1312.59,293.86 L 1309.12,292.86 L 1307.34,292.35 L 1303.48,291.27 L 1297.23,289.57 L 1293.94,288.68 L 1288.14,287.09 L 1285.35,286.31 L 1280.44,284.91 L 1278.09,284.23 L 1273.93,282.97 L 1271.94,282.36 L 1268.39,281.19 L 1266.68,280.62 L 1263.59,279.50 L 1262.09,278.95 L 1259.32,277.83 L 1251.50,274.24 L 1248.55,272.76 L 1243.09,269.59 L 1240.43,267.96 L 1235.57,264.51 L 1233.21,262.75 L 1228.94,259.03 L 1226.88,257.13 L 1223.22,253.14 L 1221.46,251.11 L 1218.41,246.86 L 1216.96,244.71 L 1214.53,240.21 L 1213.39,237.93 L 1211.58,233.18 L 1209.57,225.79 L 1209.33,224.60 L 1208.93,222.43 L 1208.75,221.37 L 1208.48,219.40 L 1208.23,217.48 L 1208.10,213.95 L 1208.10,212.19 L 1208.44,208.59 L 1209.50,202.50 L 1209.83,200.90 L 1210.71,197.74 L 1211.19,196.17 L 1212.33,193.07 L 1212.94,191.53 L 1214.35,188.52 L 1215.08,187.02 L 1216.74,184.08 L 1218.46,181.16 L 1222.62,175.62 L 1224.82,172.90 L 1229.87,167.79 L 1232.51,165.29 L 1238.39,160.68 L 1241.43,158.44 L 1248.07,154.40 L 1251.48,152.46 L 1258.81,149.05 L 1270.50,144.71 L 1273.55,143.76 L 1280.06,142.19 L 1283.37,141.47 L 1290.28,140.37 L 1293.77,139.88 L 1300.94,139.25 L 1304.55,138.99 L 1311.84,138.83 L 1315.49,138.80 L 1322.76,139.10 L 1326.38,139.31 L 1333.48,140.08 L 1337.00,140.52 L 1343.80,141.75 L 1353.50,144.13 L 1357.49,145.30 L 1365.03,148.27 L 1368.73,149.85 L 1375.64,153.58 L 1379.02,155.54 L 1385.24,159.97 L 1388.26,162.27 L 1393.71,167.35 L 1396.34,169.97 L 1400.98,175.62 L 1403.18,178.51 L 1406.92,184.67 L 1407.80,186.24 L 1409.37,189.46 L 1410.13,191.09 L 1411.45,194.41 L 1412.09,196.09 L 1413.16,199.51 L 1414.47,204.75 L 1415.16,208.00 L 1379.58,208.00 L 1377.13,208.00 L 1372.43,207.98 L 1370.12,207.97 L 1365.76,207.94 L 1363.64,207.92 L 1359.72,207.86 L 1357.83,207.83 L 1354.45,207.77 L 1352.84,207.73 L 1350.10,207.65 L 1348.82,207.60 L 1346.81,207.51 L 1345.90,207.46 L 1344.73,207.36 L 1344.00,207.20 L 1344.00,206.93 L 1343.60,206.16 L 1343.34,205.74 L 1342.50,204.72 L 1342.03,204.19 L 1340.84,203.01 L 1340.21,202.41 L 1338.76,201.16 L 1337.28,199.90 L 1333.96,197.50 L 1333.13,196.94 L 1331.51,195.94 L 1329.23,194.73 L 1327.91,194.11 L 1325.62,193.20 L 1324.49,192.78 L 1322.24,192.20 L 1321.08,191.94 L 1318.43,191.59 L 1313.52,191.23 L 1312.15,191.15 L 1309.62,191.10 L 1308.38,191.09 L 1306.08,191.17 L 1303.82,191.27 L 1299.87,191.90 L 1297.96,192.28 L 1294.50,193.49 L 1289.61,196.03 L 1288.16,196.95 L 1285.66,199.14 L 1284.48,200.29 L 1282.58,202.86 L 1281.71,204.18 L 1280.47,207.05 L 1279.40,211.59 L 1279.28,212.61 L 1279.23,214.30 L 1279.24,215.11 L 1279.48,216.61 L 1279.65,217.37 L 1280.26,219.02 L 1281.67,222.00 L 1282.29,223.21 L 1283.38,225.00 L 1283.92,225.83 L 1285.13,227.12 L 1285.78,227.74 L 1287.49,228.87 L 1287.96,229.16 L 1289.06,229.78 L 1291.00,230.78 L 1291.46,231.01 L 1292.92,231.62 L 1293.73,231.95 L 1295.83,232.73 L 1296.95,233.14 L 1299.60,234.06 L 1300.99,234.53 L 1304.11,235.56 L 1305.72,236.09 L 1309.23,237.21 L 1311.02,237.77 L 1314.83,238.95 L 1327.00,242.56 L 1329.08,243.16 L 1332.95,244.28 L 1334.83,244.82 L 1338.31,245.84 L 1340.01,246.34 L 1343.15,247.27 L 1344.67,247.72 L 1347.50,248.57 L 1348.87,248.98 L 1351.41,249.76 L 1352.65,250.15 L 1354.93,250.87 L 1357.16,251.58 L 1360.99,252.88 L 1362.82,253.52 L 1366.05,254.73 L 1367.61,255.34 L 1370.49,256.55 L 1379.00,260.61 L 1381.32,261.80 L 1385.62,264.34 L 1387.71,265.63 L 1391.57,268.41 L 1393.44,269.83 L 1396.88,272.87 L 1398.55,274.43 L 1401.59,277.77 L 1403.06,279.48 L 1405.74,283.14 L 1407.03,285.02 L 1409.36,289.04 L 1410.48,291.10 L 1412.49,295.50 L 1415.17,302.57 L 1415.65,303.98 L 1416.33,306.51 L 1416.64,307.77 L 1417.04,310.39 L 1417.21,311.76 L 1417.39,314.96 L 1417.43,315.83 L 1417.47,317.75 L 1417.49,321.00 L 1417.49,322.24 L 1417.47,324.41 L 1417.45,325.44 L 1417.39,327.27 L 1417.32,329.02 L 1417.00,331.88 L 1416.81,333.27 L 1416.17,335.93 L 1414.74,340.50 L 1414.02,342.60 L 1412.19,346.76 L 1411.21,348.83 L 1408.89,352.89 L 1407.68,354.90 L 1404.91,358.82 L 1403.47,360.76 L 1400.29,364.51 L 1398.65,366.35 L 1395.08,369.88 L 1393.25,371.61 L 1389.34,374.88 L 1387.35,376.48 L 1383.13,379.46 L 1376.49,383.55 L 1375.44,384.13 L 1373.06,385.32 L 1371.83,385.92 L 1369.13,387.13 L 1366.36,388.34 L 1360.19,390.66 L 1357.06,391.79 L 1350.66,393.79 L 1341.50,396.16 L 1340.84,396.30 L 1339.31,396.57 L 1338.52,396.70 L 1336.74,396.95 L 1334.91,397.20 L 1330.65,397.62 L 1328.45,397.81 L 1323.67,398.13 L 1321.25,398.27 L 1316.23,398.47 L 1313.72,398.56 L 1308.76,398.64 L 1306.32,398.67 L 1301.70,398.61 L 1299.46,398.57 L 1295.46,398.38 L 1293.57,398.26 Z" fill="rgba(0,0,254,1)"/>
</g>
</svg>