<?xml version="1.0" encoding="utf-8"?>
<!-- Generator: Adobe Illustrator 27.3.1, SVG Export Plug-In . SVG Version: 6.00 Build 0)  -->
<svg version="1.1" id="Layer_1" xmlns="http://www.w3.org/2000/svg" xmlns:xlink="http://www.w3.org/1999/xlink" x="0px" y="0px"
	 viewBox="0 0 319.3 334.7" style="enable-background:new 0 0 319.3 334.7;" xml:space="preserve">
<style type="text/css">
	.st0{fill:#0000FF;}
	.st1{fill:#FFFFFF;}
</style>
<g>
	<circle class="st0" cx="159.7" cy="167.3" r="141.3"/>
	<g>
		<path class="st1" d="M162,222.8c16.5,0,33,0,49.5,0c5.4,0,9.2-2.3,11.6-7.2c2.9-6,5.9-11.9,8.9-17.9c4-8.1,8.1-16.2,12.1-24.3
			c2.4-4.8,1.6-9.8-2.1-13.3c-2.6-2.5-5.8-3.4-9.3-3.4c-31.1,0-62.1,0-93.2,0c-5.7,0-9.8,2.5-12.3,7.8c-7.9,16.8-15.9,33.5-24,50.2
			c-0.6,1.2-0.5,2.2,0.1,3.2c1.9,3.4,4.8,4.9,8.6,4.9C128.7,222.8,145.3,222.8,162,222.8z"/>
		<path class="st1" d="M102.4,119.1c0.8-2.7,2.1-5.1,4.9-6.3c1.3-0.6,2.9-1,4.3-1c11-0.1,22.1,0,33.1,0c3.5,0,6.2,1.4,8.2,4.3
			c2.7,3.8,5.4,7.6,8.1,11.4c0.6,0.9,1.3,1.1,2.3,1.1c16.7,0,33.4,0,50.1,0c3.7,0,6.7,1.3,8.4,4.7c0.6,1.1,0.9,2.4,1,3.6
			c0.1,3.6,0.1,7.3,0.1,10.9c0,0.2-0.1,0.4-0.1,0.8c-0.7,0-1.3,0-2,0c-28.7,0-57.4,0-86.1,0c-4.4,0-8.3,1.3-11,5
			c-0.6,0.8-1.1,1.7-1.5,2.7c-6.3,13.3-12.7,26.5-19,39.8c-0.2,0.5-0.6,0.9-0.8,1.4C102.4,171.3,102.4,145.2,102.4,119.1z"/>
		<path class="st1" d="M162,222.8c-16.7,0-33.3,0-50,0c-3.8,0-6.7-1.5-8.6-4.9c-0.6-1.1-0.7-2-0.1-3.2c8-16.7,16-33.5,24-50.2
			c2.5-5.3,6.5-7.8,12.3-7.8c31.1,0,62.1,0,93.2,0c3.5,0,6.7,0.9,9.3,3.4c3.7,3.6,4.5,8.5,2.1,13.3c-4,8.1-8.1,16.2-12.1,24.3
			c-3,6-6,11.9-8.9,17.9c-2.4,4.8-6.2,7.2-11.6,7.2C195,222.8,178.5,222.8,162,222.8z"/>
	</g>
</g>
</svg>
