<svg width="18" height="18" viewBox="0 0 18 18" fill="none" xmlns="http://www.w3.org/2000/svg">
<path d="M8.734 1.21153C8.90479 0.800881 9.48652 0.800881 9.65732 1.21153L11.3464 5.27251C11.4184 5.44563 11.5812 5.56391 11.7681 5.5789L16.1522 5.93037C16.5956 5.96591 16.7753 6.51917 16.4376 6.8085L13.0973 9.6698C12.9549 9.79178 12.8927 9.98317 12.9362 10.1655L13.9567 14.4438C14.0599 14.8764 13.5893 15.2183 13.2097 14.9865L9.45628 12.6939C9.29627 12.5961 9.09504 12.5961 8.93503 12.6939L5.18157 14.9865C4.80202 15.2183 4.33139 14.8764 4.43458 14.4438L5.45509 10.1655C5.4986 9.98317 5.43641 9.79178 5.29402 9.6698L1.95374 6.8085C1.61597 6.51917 1.79574 5.96591 2.23906 5.93037L6.62323 5.5789C6.81013 5.56391 6.97293 5.44563 7.04494 5.27251L8.734 1.21153Z" fill="#D7BE5F"/>
</svg>
