<?xml version="1.0" encoding="utf-8"?>
<!-- Generator: Adobe Illustrator 27.3.1, SVG Export Plug-In . SVG Version: 6.00 Build 0)  -->
<svg version="1.1" id="Layer_1" xmlns="http://www.w3.org/2000/svg" xmlns:xlink="http://www.w3.org/1999/xlink" x="0px" y="0px"
	 viewBox="0 0 306.7 353.8" style="enable-background:new 0 0 306.7 353.8;" xml:space="preserve">
<style type="text/css">
	.st0{fill:#FFFFFF;}
</style>
<g>
	<path class="st0" d="M182.4,11.2c6.5,1,13,1.8,19.4,3.2c13.6,2.8,26.3,8.2,38,15.6c20.6,13,36.1,30.6,46.2,52.7
		c10.4,22.6,14,46.3,9.9,70.9c-5.8,34.6-23.3,61.9-52,82c-7.4,5.2-13.9,11.2-18.4,19.2c-0.3,0.6-0.7,1.3-1.2,2.2c4.9,0,9.4,0,14.1,0
		c0,3.6,0,6.9,0,10.7c-5.3,0-10.6,0.1-15.8,0c-2.1-0.1-3.1,0.6-3.4,2.7c-0.4,2.5-1,5-1.5,7.9c3.5,0,6.7,0,10.2,0c0,3.7,0,7,0,10.7
		c-3.4,0-6.8,0-10.5,0c0,4.5,0,8.6,0,12.8c0,7.3-1.1,8.4-8.3,8.6c-0.6,0-1.3,0.1-1.9,0.2c-0.8,3.4-1.2,6.9-2.3,10.1
		c-4.6,12.8-13.9,20-27.2,21.7c-12,1.5-25.1-5.3-30.5-16c-2.1-4.1-3.2-8.8-4.2-13.4c-0.5-2.1-1.2-2.6-3.1-2.6
		c-6.6-0.1-7.9-1.5-7.9-8.1c0-4.1,0-8.2-0.1-12.3c0-0.2-0.1-0.4-0.3-0.9c-3.2,0-6.5,0-10,0c0-3.7,0-7.1,0-10.7c3.2,0,6.3,0,10.1,0
		c-0.8-3.5-1.4-6.7-2.3-9.8c-0.1-0.5-1.5-0.9-2.4-0.9c-5.3-0.1-10.6,0-16.1,0c0-3.5,0-6.9,0-10.5c4.5,0,9,0,13.9,0
		c-3.7-7.4-8.5-13.2-14.6-17.9c-9-6.8-18.2-13.4-25.9-21.9c-19-21-29.9-45.5-32-73.9c-0.3-4.3-0.4-8.5-0.6-12.9c3.8,0,7.2,0,10.6,0
		c0.4,5.8,0.4,11.2,1.1,16.7c4,32.3,19.1,58.2,45.3,77.4c10.2,7.5,19.8,15.5,25.2,27.1c2.1,4.5,4.7,5.4,9.3,5.4
		c22-0.2,44-0.2,66-0.1c2.4,0,3.6-0.6,4.6-2.8c5-10.8,12.5-19.6,22.4-26.3c19.3-13,33.9-30,42.4-51.7c12-30.5,11.3-60.9-2.8-90.6
		c-13.1-27.4-34.3-46.3-62.7-57c-11.9-4.5-24.3-6.7-37-6.6c-2.7,0-5.4,0-8.5,0c-0.2-3.7-0.4-7.3-0.7-10.9
		C172.1,11.2,177.2,11.2,182.4,11.2z M208.6,267.8c-22.9,0-45.4,0-68.1,0c0.6,3.6,1.2,7.1,1.8,10.4c21.8,0,43.2,0,64.7,0
		C207.5,274.8,208,271.5,208.6,267.8z M153.6,310.6c-0.4,11.7,9.7,21.5,21.5,21.2c11.7-0.3,21.6-10.4,20.6-21.2
		C181.7,310.6,167.8,310.6,153.6,310.6z M206.8,299.6c0-2.5-0.2-4.9,0-7.2c0.2-2.7-0.7-3.5-3.4-3.5c-19.1,0.1-38.2,0.1-57.3,0.1
		c-1,0-2.1,0-3.3,0c0,3.8,0,7.1,0,10.6C164.2,299.6,185.3,299.6,206.8,299.6z"/>
	<path class="st0" d="M75,11.2c2.7,1.7,3.5,4.4,3.8,7.4c1.1,10.8,8.8,18.2,19.7,19.2c0.2,0,0.4,0,0.6,0.1c3.9,0.5,6.1,2.5,6,5.5
		c0,3-2.2,5.1-6.1,5.4c-4.9,0.3-9.2,1.9-13,5.1c-4.2,3.6-6.7,8.1-7.3,13.6c-0.1,1.1-0.3,2.1-0.5,3.2c-0.6,2.9-2.6,4.7-5.3,4.6
		c-2.7-0.1-4.8-1.9-5.1-4.9c-0.5-5.2-1.7-10-5.2-14c-3.8-4.5-8.6-7-14.5-7.6c-1.2-0.1-2.4-0.2-3.5-0.6c-2.5-0.8-3.6-2.6-3.5-5.2
		c0.1-2.4,1.3-4.1,3.7-4.7c2-0.5,4.1-0.5,6-1c9.5-2.3,15.6-9.2,16.7-19.4c0.3-3.1,1.3-5.3,4.1-6.7C72.8,11.2,73.9,11.2,75,11.2z
		 M80.2,43.3c-2.1-2.2-4.9-5-7-7.1c-2.3,2.2-5.2,5-7.4,7c2.4,2.4,5.2,5.2,7.3,7.3C75.3,48.3,78.1,45.4,80.2,43.3z"/>
	<path class="st0" d="M220.6,49.9c16.5-5.4,32.9,8.5,27.8,27.2c6.9,3.1,12.4,7.9,15.2,15.3c2.8,7.3,2.3,14.5-1,21.5
		c18.3,8.7,17.7,32.2,0,40.3c3.2,6.7,3.8,13.6,1.3,20.6c-2.4,6.8-6.9,11.9-13.4,15c-1.8,0.8-2.2,1.6-1.7,3.7
		c3.5,15.5-10.4,29-25.8,25.3c-1.4-0.3-2.4-0.7-3.5,0.9c-6,8.9-14.9,12.3-24.2,9.5c-9.6-2.9-15.4-10.9-15.4-21.8
		c-0.1-27.4,0-54.7,0-82.1c0-21.4,0-42.9,0-64.3c0-8.4,3-15.4,10.4-19.9c10.2-6.2,22.6-3.1,29.1,7C219.8,48.7,220.1,49.2,220.6,49.9
		z M217.2,198.4c0.1,0.5,0.2,1,0.3,1.4c1.5,6,5.7,9.5,11.2,9.1c5.2-0.3,9.4-4.3,10-9.4c0.6-5.7-2.6-9.9-8.8-11.7
		c-0.7-0.2-1.6-0.9-1.6-1.5c-0.2-3.1-0.1-6.2-0.1-10.4c4.4,1.8,8,3.3,11.7,4.7c1.3,0.5,2.9,1,4.1,0.7c7-2.1,11.7-9.7,10.7-16.9
		c-1.1-8-7.4-13.8-15.3-14.1c-8.3-0.2-14.8,5.1-16.4,13.5c-0.2,0.9-0.9,2.3-1.5,2.3c-3,0.2-6.1,0.1-9.4,0.1
		c0.5-10.1,4.6-17.8,12.9-22.7c9-5.3,18.2-5.4,27.3,0c2.5,1.5,4.6,1.4,7,0.4c4.8-2.2,7.3-7.7,5.8-12.7c-1.9-6.3-7.8-8.7-13.6-5.7
		c-9.4,4.9-18.8,4.5-27.6-1.3c-7.6-5.1-11.5-12.5-11.7-22.1c2.8,0,5.2,0.1,7.7,0c2.2-0.2,2.9,0.7,3.2,2.8
		c1.2,7.6,7.7,13.1,15.3,13.2c7.7,0.1,14.2-5,15.9-12.5c1.7-7.5-2.2-14.9-9.2-18c-2-0.9-3.6-1.1-5.6,0.4c-3.2,2.4-7,3.6-11.4,3.4
		c0-1.9,0-3.7,0-5.4c0-1.7,0-3.4,0-4.9c7.1-1.5,10.7-5.4,10.6-11.1c-0.1-5.1-3.7-9.5-8.8-10.1c-2.2-0.3-4.8,0.2-6.8,1
		c-3.9,1.6-5.2,5.4-5.9,9.1c-3.6,0-6.9,0-10.2,0c-0.2-4.4,1.4-8,3.4-11.5c0.6-1.1,0.7-2.9,0.2-4c-2-4-5.6-5.9-10.1-5.5
		c-4.4,0.3-7.5,2.7-8.9,6.9c-0.6,1.9-0.7,4-0.7,6c0,48.3,0,96.6,0,144.9c0,1.2,0,2.4,0.1,3.6c0.5,4.5,3.8,8.2,8.3,9.2
		c4.1,0.9,8.9-1.2,11.2-4.8c1-1.7,1.3-3.1-0.1-4.9c-2.3-3.3-3.7-7-3.2-11.2C210.5,198.4,213.7,198.4,217.2,198.4z"/>
	<path class="st0" d="M86.8,114.1c-3.3-7.2-3.9-14.4-1-21.7c2.5-6.4,6.9-11.1,13.1-14.1c1.3-0.6,2.4-1,1.9-3
		c-4.4-16.8,11.8-30.7,27.2-25.4c0.2,0.1,0.4,0,0.7,0c0.2-0.2,0.5-0.3,0.6-0.6c5.8-9.2,14.9-13.1,24.2-10.5
		c9.9,2.8,15.9,10.8,15.9,21.7c0.1,14.9,0,29.8,0,44.6c0,34,0,67.9,0,101.9c0,8.4-2.9,15.5-10.2,20c-10.2,6.3-22.6,3.3-29.2-6.8
		c-0.4-0.6-0.8-1.2-1.3-2c-6.2,2.1-12.1,1.7-17.8-1.4c-8.3-4.6-12.5-14-10.2-23.4c0.4-1.7,0.2-2.4-1.4-3.3
		c-13.7-7.2-18.6-20.7-12.9-34.9c0.1-0.3,0.2-0.6,0.3-1.2c-8.3-4-13.4-10.5-13.4-19.9C73.2,124.8,78.2,118.2,86.8,114.1z
		 M143.5,198.4c-1.6,4.2-2.7,7.9-4.5,11.2c-1.1,2-1,3.3,0,5c2.7,4.4,8.6,6.3,13.3,4.1c4.8-2.3,6.3-6.3,6.3-11.4
		c-0.1-48.7,0-97.4,0-146.2c0-1,0-1.9-0.1-2.9c-0.4-4.6-4-8.5-8.6-9.3c-4.3-0.8-9.3,1.5-11.1,5.4c-0.5,1.1-0.4,2.9,0.2,4
		c2,3.6,3.7,7.2,3.3,11.7c-3.5,0-6.8,0-10.1,0c-2-7.5-6-11-11.8-10.5c-5.2,0.5-9.3,4.5-9.8,9.6c-0.6,5.9,2.9,10,10.4,12
		c0,3.3,0,6.7,0,10.1c-4.3,0.2-7.6-0.7-11.3-3.4c-1.8-1.3-3.3-1.2-5.1-0.5c-7.1,2.9-11.2,10.3-9.7,17.8c1.5,7.7,8,13.1,15.8,13
		c7.6-0.1,14.1-5.5,15.5-13c0.2-0.9,0.4-1.9,0.6-2.8c3.5,0,6.8,0,10.3,0c0,0.8,0,1.5,0,2.1c-1.2,19.2-23.4,30.7-39.9,20.6
		c-2.8-1.7-5.2-1.5-7.8-0.1c-4.5,2.4-6.5,7.6-5,12.5c2,6.3,7.8,8.6,13.6,5.5c10.3-5.7,23.8-3.6,31.8,5c4.7,5.1,7.5,11.1,7.3,18.3
		c-3.6,0-6.9,0-10.3,0c-0.2-1-0.4-1.9-0.5-2.7c-1.4-7.6-7.8-12.9-15.5-13c-7.7-0.1-14.2,5.2-15.8,12.7c-1.6,7.5,2.3,14.9,9.4,18
		c2,0.9,3.6,0.9,5.6-0.5c3.2-2.3,7-3.5,11.3-3.3c0,2.7-0.1,5,0,7.4c0.2,2.2-0.5,3.1-2.9,3.6c-5,1.1-8.2,6.1-7.8,11.2
		c0.5,5,4.4,9,9.5,9.5c6.1,0.7,10.1-2.8,12.1-10.4C135.5,198.4,138.8,198.4,143.5,198.4z"/>
	<path class="st0" d="M41.1,64.8c3.2,0,5.1,2.1,5.4,6.3c0.5,6.6,3.3,11.9,8.6,16c3.5,2.7,7.6,3.9,12,4.3c3.8,0.4,5.8,2.1,5.9,5.1
		c0.1,3.1-1.8,5.2-5.8,5.6c-10.5,1-17.3,6.4-20.2,16.6c-0.3,1.2-0.4,2.5-0.5,3.8c-0.4,4-2.2,6.1-5.3,6.2c-3.1,0.1-5.3-2.1-5.6-6.2
		c-0.5-6.5-2.9-12.1-8.3-15.7c-3.1-2.1-7-3-10.5-4.4c-0.2-0.1-0.4,0-0.6-0.1c-4.8-0.6-7.1-2.3-7.1-5.5c-0.1-3.2,2.1-5.1,7-5.5
		c10.9-1,19.1-9.9,19.6-20.2C35.8,66.9,37.9,64.8,41.1,64.8z M41.1,89.5c-2.3,2.2-5.1,5.1-7.2,7.2c2.3,2.3,5.1,5.1,7,7.1
		c2.2-2.1,5.1-4.9,7.2-6.9C46,94.6,43.2,91.7,41.1,89.5z"/>
</g>
</svg>
