<?xml version="1.0" encoding="utf-8"?>
<!-- Generator: Adobe Illustrator 27.3.1, SVG Export Plug-In . SVG Version: 6.00 Build 0)  -->
<svg version="1.1" id="Layer_1" xmlns="http://www.w3.org/2000/svg" xmlns:xlink="http://www.w3.org/1999/xlink" x="0px" y="0px"
	 viewBox="0 0 100 100" style="enable-background:new 0 0 100 100;" xml:space="preserve">
<style type="text/css">
	.st0{fill:#0000FF;}
</style>
<g>
	<path class="st0" d="M3.4,47.5c0.4-1,1.2-1.4,2.3-1.3c6.1,0,12.2,0,18.4,0c0.7,0,1-0.2,1.2-0.8c0.8-1.8,1.6-3.6,2.4-5.4
		c0.1-0.2,0.2-0.5,0.4-0.8c-1.3,0-2.5,0-3.7,0c-2.2,0-4.3,0-6.5,0c-1.4,0-2.2-0.7-2.2-1.8c0-1.1,0.9-1.8,2.2-1.8c4,0,8,0,12,0
		c0.4,0,0.9-0.2,1.1-0.5C36.4,28.6,43,24.3,51,22.3c0.5-0.1,0.8-0.3,0.7-0.9c0-1.1,0-2.2,0-3.3c0-0.5-0.2-0.7-0.6-0.8
		c-2.9-1.2-4.6-3.9-4-6.8c0.6-3.1,3.1-5.1,6.3-5.2c4.2,0,8.3,0,12.5,0c3.4,0,5.9,2,6.5,5.1c0.6,3.1-1.1,5.8-4.3,7
		c-0.1,0-0.2,0.1-0.3,0.1c0,1.5,0,3,0,4.3c2.7,1,5.4,1.8,7.8,3c11.7,5.9,18.6,15.4,20.5,28.4c1.3,8.8-0.7,16.9-5.4,24.4
		c-0.5,0.8-1.1,1.2-2,1.1c-0.8-0.1-1.4-0.7-1.4-1.4c0-0.6,0.2-1.2,0.5-1.8c2.2-3.5,3.6-7.3,4.4-11.4c3-15.8-5.8-31.5-20.9-37.2
		c-16.1-6.1-34.3,1.4-41.6,17c-8.8,18.8,1.7,40.9,21.8,46c9.1,2.3,17.7,1,25.7-3.9c0.2-0.1,0.4-0.2,0.5-0.3c1-0.5,2-0.3,2.5,0.6
		c0.5,0.9,0.3,1.9-0.7,2.5c-3.4,2.2-7.1,3.8-11.1,4.8c-17.9,4.3-35.8-4.8-42.8-21.9c-0.3-0.6-0.6-0.8-1.2-0.8c-3.8,0-7.5,0-11.3,0
		c-0.4,0-0.8,0-1.2-0.1c-0.8-0.2-1.4-0.9-1.4-1.8c0-0.8,0.6-1.5,1.4-1.7c0.4-0.1,0.8-0.1,1.2-0.1c3.5,0,6.9,0,10.4,0
		c0.2,0,0.4,0,0.6,0c-0.4-2.3-0.7-4.5-1.1-6.9c-0.2,0-0.6,0-0.9,0c-2.3,0-4.5,0-6.8,0c-1.3,0-2.1-0.7-2.1-1.8c0-1.1,0.8-1.9,2.1-1.9
		c2.5,0,5.1,0,7.6,0c0.3-2.3,0.6-4.6,0.9-7c-0.3,0-0.7,0-1,0c-5.6,0-11.2,0-16.8,0c-1.1,0-2-0.3-2.6-1.2C3.4,48.2,3.4,47.8,3.4,47.5
		z M59.8,14.1c2,0,4.1,0,6.1,0c0.4,0,0.9,0,1.2-0.1c1.1-0.4,1.9-1.5,1.7-2.7C68.7,9.9,67.6,9,66.1,9c-4.2,0-8.4,0-12.6,0
		c-1.7,0-2.8,1.1-2.8,2.6c0,1.5,1.1,2.5,2.8,2.5C55.6,14.1,57.7,14,59.8,14.1z M64.2,17.7c-3,0-5.8,0-8.7,0c0,1.3,0,2.5,0,3.6
		c2.9,0,5.8,0,8.7,0C64.2,20.2,64.2,19,64.2,17.7z"/>
	<path class="st0" d="M3.4,68.6c0.1-0.2,0.3-0.3,0.4-0.5c0.7-0.9,2-0.9,2.7-0.2c0.7,0.8,0.7,2-0.1,2.7c-0.8,0.7-2,0.5-2.6-0.4
		c-0.1-0.2-0.2-0.4-0.3-0.5C3.4,69.3,3.4,68.9,3.4,68.6z"/>
	<path class="st0" d="M59.9,29.8C75.5,29.8,88,42.5,88,58c0,15.6-12.8,28.2-28.3,28.2c-15.6-0.1-28.2-12.8-28.1-28.3
		C31.7,42.3,44.3,29.7,59.9,29.8z M84.4,58c0-13.6-11-24.6-24.5-24.6c-13.6,0-24.6,11-24.6,24.5c0,13.5,11,24.6,24.6,24.6
		C73.3,82.6,84.4,71.5,84.4,58z"/>
	<path class="st0" d="M84.5,80.9c1,0,1.8,0.8,1.8,1.7c0,1-0.8,1.9-1.8,1.8c-1,0-1.8-0.8-1.8-1.8C82.7,81.7,83.5,80.9,84.5,80.9z"/>
	<path class="st0" d="M54.1,57.8c0.1-0.4,0-1,0.3-1.4c0.4-0.8,0.1-1.3-0.5-1.8c-1-1-2-2-3-3c-0.9-0.9-0.9-2-0.1-2.7
		c0.7-0.7,1.8-0.7,2.7,0.2c1.2,1.1,2.3,2.3,3.4,3.4c0.3,0.4,0.6,0.4,1.1,0.3c1.2-0.5,2.5-0.5,3.7,0c0.6,0.2,0.9,0.1,1.2-0.3
		c2.7-2.7,5.4-5.4,8.1-8.1c0.3-0.3,0.7-0.6,1.2-0.8c0.8-0.3,1.4,0,1.9,0.7c0.5,0.7,0.5,1.4-0.1,2.1c-0.4,0.5-1,1-1.4,1.5
		c-2.4,2.4-4.7,4.7-7.1,7.1c-0.4,0.4-0.6,0.8-0.4,1.4c0.7,2.3,0.2,4.3-1.6,5.9c-1.8,1.6-3.8,1.9-6,0.9
		C55.3,62.1,54.3,60.3,54.1,57.8z M57.8,57.9c0,1.1,0.9,2,2,2.1c1.1,0,2-0.9,2-2c0-1.1-0.9-2-1.9-2C58.7,56,57.8,56.8,57.8,57.9z"/>
	<path class="st0" d="M61.6,39.4c0,0.3,0,0.6,0,0.9c-0.1,1-0.7,1.7-1.7,1.7c-0.9,0.1-1.8-0.6-1.9-1.5c-0.1-0.7-0.1-1.4,0-2.1
		c0.1-1,0.9-1.7,1.9-1.7c1,0,1.7,0.7,1.7,1.8C61.7,38.8,61.6,39.1,61.6,39.4z"/>
	<path class="st0" d="M78.4,56.2c0.3,0,0.6,0,0.9,0c1,0.1,1.7,0.8,1.8,1.7c0.1,1-0.7,1.8-1.7,1.9c-0.7,0.1-1.3,0.1-2,0
		c-1-0.1-1.7-0.9-1.6-1.9c0.1-1,0.8-1.6,1.8-1.7C77.8,56.2,78.1,56.2,78.4,56.2z"/>
	<path class="st0" d="M61.6,76.6c0,0.4,0,0.8-0.1,1.2c-0.2,0.9-1,1.5-1.8,1.4c-0.9,0-1.6-0.8-1.7-1.7c0-0.6,0-1.2,0-1.8
		c0-1,0.8-1.8,1.8-1.8c0.9,0,1.7,0.7,1.8,1.7C61.6,75.9,61.6,76.3,61.6,76.6C61.6,76.6,61.6,76.6,61.6,76.6z"/>
	<path class="st0" d="M41.3,56.1c0.4,0,0.7,0,1.1,0.1c0.9,0.1,1.5,0.8,1.5,1.7c0,0.9-0.5,1.7-1.3,1.8c-0.8,0.1-1.6,0.1-2.4,0
		c-0.9-0.1-1.6-0.9-1.5-1.8c0.1-0.9,0.7-1.6,1.7-1.7C40.6,56.1,40.9,56.2,41.3,56.1C41.3,56.2,41.3,56.1,41.3,56.1z"/>
</g>
</svg>
