<?xml version="1.0" encoding="utf-8"?>
<!-- Generator: Adobe Illustrator 27.3.1, SVG Export Plug-In . SVG Version: 6.00 Build 0)  -->
<svg version="1.1" id="Layer_1" xmlns="http://www.w3.org/2000/svg" xmlns:xlink="http://www.w3.org/1999/xlink" x="0px" y="0px"
	 viewBox="0 0 319.3 334.7" style="enable-background:new 0 0 319.3 334.7;" xml:space="preserve">
<style type="text/css">
	.st0{fill:#0000FF;}
	.st1{fill:#FFFFFF;}
</style>
<g>
	<circle class="st0" cx="159.7" cy="167.3" r="141.3"/>
	<g>
		<path class="st1" d="M217.8,242.1c-38.9,0-77.7,0-116.6,0c-0.2-0.1-0.4-0.2-0.6-0.3c-7.3-1.4-12.1-5.6-14.7-12.5
			c-0.4-1.2-0.7-2.4-1-3.6c0-38.9,0-77.7,0-116.6c0.1-0.1,0.2-0.2,0.2-0.4c0.9-8,8.2-16.1,19.5-16c36.6,0.1,73.2,0,109.9,0.1
			c1.7,0,3.4,0.1,5.1,0.5c8.9,2,14.6,9.4,14.6,18.7c0,30.3,0,60.5,0,90.8c0,6.8,0,13.7,0,20.5c-0.1,8.2-5.1,15.1-12.7,17.7
			C220.3,241.5,219,241.8,217.8,242.1z M150.2,162.8c0-13.6,0-27.3,0-40.9c0-6.5-3.8-10.3-10.3-10.3c-8.6,0-17.3,0-25.9,0
			c-6.6,0-10.4,3.8-10.4,10.4c0,27.3,0,54.6,0,81.9c0,6.5,3.8,10.3,10.3,10.4c8.6,0,17.2,0,25.8,0c6.8,0,10.6-3.7,10.6-10.5
			C150.2,190,150.2,176.4,150.2,162.8z M215.5,144.3c0-7.6,0-15.1,0-22.7c0-6.1-3.9-10.1-10-10.1c-8.9,0-17.8,0-26.7,0
			c-6.1,0-10,3.9-10,10.1c0,15.1,0,30.1,0,45.2c0,6.2,3.9,10.1,10.1,10.1c8.8,0,17.6,0,26.4,0c6.3,0,10.1-3.9,10.1-10.2
			C215.5,159.2,215.5,151.7,215.5,144.3z"/>
	</g>
</g>
</svg>
