<svg width="85" height="22" viewBox="0 0 85 22" fill="none" xmlns="http://www.w3.org/2000/svg">
<g id="Group 427320306">
<path id="Vector" d="M22.2066 8.0144H30.7046V9.58718H27.3586V18.4532H25.5246V9.58718H22.1926L22.2066 8.0144ZM30.3406 10.8955H31.9086V12.3569H31.9366C31.9926 12.1482 32.0906 11.9533 32.2306 11.7584C32.3706 11.5636 32.5386 11.3826 32.7486 11.2295C32.9446 11.0625 33.1686 10.9373 33.4206 10.8398C33.6586 10.7424 33.9106 10.6867 34.1626 10.6867C34.3586 10.6867 34.4986 10.7006 34.5686 10.7006C34.6386 10.7146 34.7226 10.7285 34.7926 10.7285V12.3291C34.6806 12.3013 34.5546 12.2873 34.4286 12.2734C34.3026 12.2595 34.1906 12.2456 34.0646 12.2456C33.7846 12.2456 33.5186 12.3013 33.2666 12.4126C33.0146 12.524 32.8046 12.691 32.6086 12.8997C32.4266 13.1224 32.2726 13.3869 32.1606 13.707C32.0486 14.0271 31.9926 14.4029 31.9926 14.8205V18.4114H30.3126L30.3406 10.8955ZM42.4927 18.4532H40.8406V17.3954H40.8126C40.6026 17.7851 40.2946 18.0774 39.8886 18.314C39.4826 18.5506 39.0626 18.662 38.6426 18.662C37.6486 18.662 36.9206 18.4253 36.4726 17.9243C36.0246 17.4371 35.8006 16.6855 35.8006 15.6973V10.8955H37.4806V15.5303C37.4806 16.1984 37.6066 16.6716 37.8726 16.9361C38.1246 17.2144 38.4886 17.3536 38.9506 17.3536C39.3006 17.3536 39.5946 17.298 39.8326 17.1866C40.0706 17.0753 40.2666 16.9361 40.4066 16.7551C40.5606 16.5742 40.6586 16.3515 40.7286 16.101C40.7986 15.8504 40.8267 15.5721 40.8267 15.2798V10.8955H42.5067V18.4532H42.4927ZM45.3487 16.0314C45.4047 16.5185 45.5867 16.8526 45.9087 17.0613C46.2307 17.2562 46.6227 17.3536 47.0707 17.3536C47.2247 17.3536 47.4067 17.3397 47.6027 17.3119C47.7987 17.284 47.9947 17.2423 48.1627 17.1727C48.3447 17.1031 48.4847 17.0057 48.5967 16.8665C48.7087 16.7273 48.7647 16.5603 48.7507 16.3515C48.7367 16.1427 48.6667 15.9618 48.5127 15.8226C48.3587 15.6834 48.1767 15.586 47.9527 15.4886C47.7287 15.4051 47.4627 15.3355 47.1687 15.2798C46.8747 15.2241 46.5807 15.1545 46.2727 15.0849C45.9647 15.0153 45.6567 14.9318 45.3627 14.8344C45.0687 14.737 44.8167 14.6117 44.5787 14.4308C44.3547 14.2637 44.1587 14.055 44.0327 13.7905C43.8927 13.5261 43.8227 13.2199 43.8227 12.8302C43.8227 12.4126 43.9207 12.0786 44.1306 11.8002C44.3267 11.5218 44.5927 11.2991 44.9007 11.1321C45.2087 10.9651 45.5587 10.8398 45.9367 10.7702C46.3147 10.7006 46.6787 10.6728 47.0147 10.6728C47.4067 10.6728 47.7847 10.7146 48.1347 10.7981C48.4847 10.8816 48.8207 11.0069 49.1007 11.2017C49.3947 11.3826 49.6327 11.6332 49.8147 11.9255C50.0107 12.2177 50.1227 12.5796 50.1787 12.9972H48.4287C48.3447 12.5935 48.1627 12.3291 47.8827 12.1899C47.5887 12.0507 47.2667 11.9811 46.8887 11.9811C46.7767 11.9811 46.6227 11.9951 46.4687 12.009C46.3007 12.0368 46.1607 12.0646 46.0067 12.1203C45.8667 12.176 45.7407 12.2595 45.6427 12.3569C45.5447 12.4544 45.4887 12.5935 45.4887 12.7606C45.4887 12.9693 45.5587 13.1224 45.6987 13.2477C45.8387 13.373 46.0207 13.4704 46.2587 13.5678C46.4827 13.6513 46.7487 13.7209 47.0427 13.7766C47.3367 13.8323 47.6447 13.9019 47.9527 13.9715C48.2607 14.0411 48.5547 14.1246 48.8487 14.222C49.1427 14.3194 49.4087 14.4447 49.6327 14.6256C49.8567 14.7926 50.0527 15.0014 50.1927 15.252C50.3327 15.5025 50.4027 15.8226 50.4027 16.1845C50.4027 16.6299 50.3047 17.0057 50.0947 17.3258C49.8847 17.632 49.6187 17.8964 49.2967 18.0913C48.9747 18.2862 48.5967 18.4253 48.2047 18.5228C47.7987 18.6063 47.4067 18.662 47.0147 18.662C46.5387 18.662 46.0907 18.6063 45.6847 18.4949C45.2787 18.3836 44.9147 18.2166 44.6207 18.0078C44.3267 17.7851 44.0886 17.5206 43.9207 17.1866C43.7526 16.8665 43.6546 16.4768 43.6406 16.0175H45.3347V16.0314H45.3487ZM50.8787 10.8955H52.1527V8.61289H53.8327V10.8816H55.3447V12.1203H53.8327V16.1566C53.8327 16.3376 53.8467 16.4768 53.8607 16.6159C53.8747 16.7412 53.9167 16.8526 53.9587 16.9361C54.0147 17.0196 54.0987 17.0892 54.1967 17.1309C54.3087 17.1727 54.4487 17.2005 54.6447 17.2005C54.7567 17.2005 54.8827 17.2005 54.9947 17.1866C55.1067 17.1727 55.2327 17.1588 55.3447 17.1309V18.4253C55.1627 18.4532 54.9807 18.4671 54.7987 18.481C54.6167 18.5088 54.4487 18.5088 54.2527 18.5088C53.8047 18.5088 53.4547 18.4671 53.1887 18.3836C52.9227 18.3001 52.7127 18.1748 52.5587 18.0217C52.4047 17.8547 52.3067 17.6598 52.2507 17.4232C52.1947 17.1866 52.1667 16.8943 52.1527 16.5881V12.1342H50.8787V10.8677V10.8955ZM56.5207 10.8955H58.1027V11.9255H58.1307C58.3687 11.4801 58.6907 11.1739 59.1107 10.979C59.5307 10.7842 59.9787 10.6867 60.4827 10.6867C61.0847 10.6867 61.6027 10.7842 62.0507 11.0069C62.4987 11.2156 62.8627 11.494 63.1567 11.8698C63.4507 12.2317 63.6747 12.6631 63.8147 13.1503C63.9547 13.6374 64.0387 14.1663 64.0387 14.7091C64.0387 15.2241 63.9687 15.7113 63.8427 16.1845C63.7027 16.6577 63.5067 17.0892 63.2407 17.4511C62.9747 17.8129 62.6387 18.1052 62.2187 18.3279C61.7987 18.5506 61.3227 18.662 60.7627 18.662C60.5247 18.662 60.2727 18.6341 60.0347 18.5924C59.7967 18.5506 59.5587 18.481 59.3347 18.3836C59.1107 18.2862 58.9007 18.1609 58.7187 18.0078C58.5227 17.8547 58.3687 17.6737 58.2427 17.4789H58.2147V21.2508H56.5347V10.8955H56.5207ZM62.3867 14.6813C62.3867 14.3473 62.3447 14.0132 62.2467 13.6931C62.1627 13.373 62.0227 13.0946 61.8407 12.8441C61.6587 12.5935 61.4347 12.3987 61.1827 12.2456C60.9167 12.0925 60.6087 12.0229 60.2727 12.0229C59.5727 12.0229 59.0407 12.2595 58.6767 12.7466C58.3267 13.2338 58.1447 13.888 58.1447 14.6952C58.1447 15.0849 58.1867 15.4329 58.2847 15.753C58.3827 16.0731 58.5087 16.3515 58.7047 16.5881C58.8867 16.8247 59.1107 17.0057 59.3767 17.1448C59.6427 17.284 59.9367 17.3536 60.2867 17.3536C60.6787 17.3536 60.9867 17.2701 61.2527 17.117C61.5187 16.9639 61.7287 16.7551 61.9107 16.5185C62.0787 16.268 62.2047 15.9896 62.2747 15.6695C62.3447 15.3355 62.3867 15.0153 62.3867 14.6813ZM65.3407 8.0144H67.0207V9.58718H65.3407V8.0144ZM65.3407 10.8955H67.0207V18.4532H65.3407V10.8955ZM68.5187 8.0144H70.1987V18.4532H68.5187V8.0144ZM75.3227 18.662C74.7207 18.662 74.1747 18.5645 73.6987 18.3557C73.2227 18.147 72.8307 17.8825 72.4947 17.5346C72.1727 17.1866 71.9207 16.7551 71.7527 16.268C71.5847 15.7808 71.4867 15.238 71.4867 14.6674C71.4867 14.0967 71.5707 13.5678 71.7527 13.0807C71.9207 12.5935 72.1727 12.176 72.4947 11.8141C72.8167 11.4662 73.2227 11.1878 73.6987 10.9929C74.1747 10.7981 74.7207 10.6867 75.3227 10.6867C75.9247 10.6867 76.4707 10.7842 76.9467 10.9929C77.4227 11.1878 77.8147 11.4662 78.1507 11.8141C78.4727 12.1621 78.7247 12.5935 78.8927 13.0807C79.0607 13.5678 79.1587 14.0967 79.1587 14.6674C79.1587 15.252 79.0747 15.7808 78.8927 16.268C78.7107 16.7551 78.4727 17.1727 78.1507 17.5346C77.8287 17.8825 77.4227 18.1609 76.9467 18.3557C76.4707 18.5506 75.9387 18.662 75.3227 18.662ZM75.3227 17.3397C75.6867 17.3397 76.0227 17.2562 76.2887 17.1031C76.5687 16.95 76.7787 16.7412 76.9607 16.4907C77.1427 16.2402 77.2687 15.9479 77.3527 15.6417C77.4367 15.3215 77.4787 15.0014 77.4787 14.6674C77.4787 14.3473 77.4367 14.0271 77.3527 13.707C77.2687 13.3869 77.1427 13.1085 76.9607 12.858C76.7787 12.6075 76.5547 12.4126 76.2887 12.2595C76.0087 12.1064 75.6867 12.0229 75.3227 12.0229C74.9587 12.0229 74.6227 12.1064 74.3567 12.2595C74.0767 12.4126 73.8667 12.6214 73.6847 12.858C73.5027 13.1085 73.3767 13.3869 73.2927 13.707C73.2087 14.0271 73.1667 14.3473 73.1667 14.6674C73.1667 15.0014 73.2087 15.3215 73.2927 15.6417C73.3767 15.9618 73.5027 16.2402 73.6847 16.4907C73.8667 16.7412 74.0907 16.95 74.3567 17.1031C74.6367 17.2701 74.9587 17.3397 75.3227 17.3397ZM79.6627 10.8955H80.9367V8.61289H82.6167V10.8816H84.1287V12.1203H82.6167V16.1566C82.6167 16.3376 82.6307 16.4768 82.6447 16.6159C82.6587 16.7412 82.7007 16.8526 82.7427 16.9361C82.7987 17.0196 82.8827 17.0892 82.9807 17.1309C83.0927 17.1727 83.2327 17.2005 83.4287 17.2005C83.5407 17.2005 83.6667 17.2005 83.7787 17.1866C83.8907 17.1727 84.0167 17.1588 84.1287 17.1309V18.4253C83.9467 18.4532 83.7647 18.4671 83.5827 18.481C83.4007 18.5088 83.2327 18.5088 83.0367 18.5088C82.5887 18.5088 82.2387 18.4671 81.9727 18.3836C81.7067 18.3001 81.4967 18.1748 81.3427 18.0217C81.1887 17.8547 81.0907 17.6598 81.0347 17.4232C80.9787 17.1866 80.9507 16.8943 80.9367 16.5881V12.1342H79.6627V10.8677V10.8955Z" fill="#07090F"/>
<path id="Vector_2" d="M20.2467 8.01441H12.5607L10.1947 0.749023L7.81467 8.01441L0.128662 8.00049L6.34467 12.4961L3.96467 19.7615L10.1807 15.2659L16.3967 19.7615L14.0307 12.4961L20.2467 8.01441Z" fill="#00B67A"/>
<path id="Vector_3" d="M14.5626 14.1385L14.0306 12.4961L10.1946 15.2658L14.5626 14.1385Z" fill="#005128"/>
</g>
</svg>
