<?xml version="1.0" encoding="utf-8"?>
<!-- Generator: Adobe Illustrator 27.3.1, SVG Export Plug-In . SVG Version: 6.00 Build 0)  -->
<svg version="1.1" id="Layer_1" xmlns="http://www.w3.org/2000/svg" xmlns:xlink="http://www.w3.org/1999/xlink" x="0px" y="0px"
	 viewBox="0 0 100 100" style="enable-background:new 0 0 100 100;" xml:space="preserve">
<style type="text/css">
	.st0{fill:#0000FF;}
</style>
<g>
	<path class="st0" d="M45.2,95.7c-0.7-0.4-1.5-0.6-2.1-1.1c-1.2-0.9-1.8-2.1-1.9-3.6c0-0.2,0-0.4,0-0.6c0-17.7,0-35.4,0-53.1
		c0-2.8,1.6-4.8,4.2-5.2c0.3-0.1,0.7-0.1,1.1-0.1c14.4,0,28.8,0,43.1,0c3.2,0,5.3,2,5.3,5.2c0,17.8,0,35.5,0,53.3
		c0,2.8-1.5,4.4-4,5.2C75.7,95.7,60.4,95.7,45.2,95.7z M43.9,63.8c0,8.8,0,17.6,0,26.3c0,2.1,0.7,2.9,2.9,2.9c14.2,0,28.3,0,42.5,0
		c2.2,0,2.9-0.7,2.9-2.9c0-17.6,0-35.1,0-52.7c0-2.1-0.8-2.8-2.9-2.8c-14.2,0-28.3,0-42.5,0c-2.2,0-2.9,0.7-2.9,2.9
		C43.9,46.3,43.9,55.1,43.9,63.8z"/>
	<path class="st0" d="M9.1,95.7c-1.8-0.6-3.3-1.6-3.8-3.6c-0.1-0.5-0.2-1.1-0.2-1.7c0-4.3,0-8.5,0-12.8c0-3.3,2-5.3,5.3-5.3
		c1,0,2,0,3,0c1,0,1.6,0.5,1.6,1.4c0,0.8-0.6,1.3-1.6,1.3c-1.1,0-2.2,0-3.3,0c-1.5,0-2.4,0.9-2.4,2.3c0,4.4,0,8.9,0,13.3
		c0,1.5,0.9,2.4,2.4,2.4c6.7,0,13.5,0,20.2,0c1.6,0,2.5-0.9,2.5-2.4c0-4.4,0-8.7,0-13.1c0-1.6-0.9-2.5-2.5-2.5c-3.4,0-6.7,0-10.1,0
		c-0.7,0-1.2-0.2-1.5-0.9c-0.3-0.9,0.3-1.8,1.3-1.8c3.7,0,7.3-0.1,11,0c2.6,0.1,4.5,2.3,4.5,4.9c0,4.5,0,9,0,13.6
		c0,2.1-1.3,3.9-3.3,4.6c-0.2,0.1-0.4,0.2-0.6,0.3C24.1,95.7,16.6,95.7,9.1,95.7z"/>
	<path class="st0" d="M35.5,48.9c0,3.9,0,7.8,0,11.7c0,3.2-2,5.2-5.2,5.2c-6.7,0-13.4,0-20.1,0c-3.2,0-5.1-2-5.2-5.2
		c0-3.7,0-7.4,0-11.1c0-0.2,0-0.4,0-0.5c0.1-0.8,0.4-1.2,1.2-1.3c0.7-0.1,1.3,0.4,1.4,1.2c0.1,0.8,0,1.7,0,2.5c0,3.1,0,6.1,0,9.2
		c0,1.8,0.8,2.6,2.6,2.6c6.6,0,13.3,0,19.9,0c1.7,0,2.6-0.9,2.6-2.6c0-7.8,0-15.5,0-23.3c0-1.7-0.9-2.6-2.6-2.6
		c-6.6,0-13.3,0-19.9,0c-1.7,0-2.6,0.9-2.6,2.6c0,1.6,0,3.3,0,4.9c0,0.3,0,0.5-0.1,0.8c-0.2,0.7-0.6,1.1-1.3,1.1
		c-0.7,0-1.3-0.5-1.3-1.2c0-2.2-0.1-4.4,0-6.6C5.3,33.9,7.5,32,9.9,32c7,0,13.9,0,20.9,0c2.7,0,4.7,2.2,4.8,4.9
		C35.6,40.9,35.5,44.9,35.5,48.9z"/>
	<path class="st0" d="M50.1,23.4c14.2,0,28.4,0,42.7,0c0.3,0,0.5,0,0.8,0c0.8,0,1.2,0.4,1.3,1.2c0.1,0.7-0.4,1.3-1.2,1.4
		c-0.3,0-0.5,0-0.8,0c-28.6,0-57.2,0-85.8,0c-0.4,0-0.8,0-1.1-0.1c-0.6-0.2-1-0.8-0.8-1.4c0.2-0.4,0.7-0.8,1.1-1.1
		c0.2-0.2,0.6,0,1,0C21.5,23.4,35.8,23.4,50.1,23.4z"/>
	<path class="st0" d="M5.1,9.5c0-1.2,0-2.4,0-3.7c0-1,0.5-1.6,1.3-1.6c0.8,0,1.3,0.6,1.3,1.6c0,2.2,0,4.3,0,6.5
		c0,1.2,0.4,1.9,1.4,2.2c1,0.4,2,0.1,2.7-0.6c0.3-0.4,0.5-1,0.5-1.5c0.1-2.1,0-4.3,0.1-6.4c0-0.5,0.2-1.2,0.6-1.5c0.8-0.7,2,0,2,1.2
		c0,1.6,0,3.2,0,4.7c0,1,0,1.9-0.1,2.9c-0.2,2.4-2.5,4.2-5.1,4.2c-2.6-0.1-4.7-2-4.8-4.4C5.1,11.9,5.1,10.7,5.1,9.5
		C5.1,9.5,5.1,9.5,5.1,9.5z"/>
	<path class="st0" d="M34.3,9.4c0-1.2,0-2.4,0-3.6c0-0.9,0.5-1.5,1.3-1.5c0.8,0,1.4,0.6,1.4,1.5c0,2.2,0,4.5,0,6.7
		c0,1.3,1,2.3,2.3,2.3c1.4,0,2.3-0.9,2.3-2.3c0-2.2,0-4.3,0-6.5c0-1.1,0.5-1.7,1.3-1.7c0.8,0,1.3,0.6,1.3,1.7c0,2.3,0,4.5,0,6.8
		c0,2.7-2.3,4.7-5,4.7c-2.7,0-4.9-2.1-4.9-4.8C34.3,11.6,34.3,10.5,34.3,9.4z"/>
	<path class="st0" d="M51.1,12.8c-0.8,1.2-1.6,2.2-2.4,3.3c-0.2,0.2-0.3,0.5-0.5,0.7c-0.5,0.6-1.2,0.7-1.8,0.3
		c-0.6-0.4-0.8-1.2-0.3-1.9c0.8-1.3,1.7-2.5,2.6-3.7c0.3-0.4,0.5-0.7,0.8-1.1c-0.9-1.3-1.8-2.6-2.7-3.8c-0.6-0.8-0.5-1.6,0.1-2.1
		c0.7-0.5,1.4-0.3,2,0.6c0.7,1,1.4,1.9,2.2,3c0.7-1.1,1.4-2.1,2.1-3c0.3-0.4,0.7-0.8,1.2-0.8c0.4-0.1,1,0.2,1.2,0.6
		c0.2,0.4,0.2,1.1,0,1.5c-0.7,1.2-1.5,2.2-2.3,3.3c-0.4,0.6-0.5,1,0,1.6c0.9,1.2,1.8,2.5,2.6,3.7c0.7,0.9,0.6,1.7-0.1,2.2
		c-0.7,0.5-1.4,0.3-2.1-0.6C52.9,15.4,52,14.1,51.1,12.8z"/>
	<path class="st0" d="M20.3,85.4c-1.9,0-3.7,0-5.6,0c-1,0-1.6-0.5-1.6-1.3c0-0.8,0.6-1.4,1.6-1.4c3.8,0,7.5,0,11.3,0
		c1,0,1.7,0.5,1.6,1.3c0,0.8-0.6,1.3-1.7,1.3C24.1,85.4,22.2,85.4,20.3,85.4z"/>
	<path class="st0" d="M31.2,5.7c-0.1,0.2-0.1,0.4-0.2,0.6c-1.4,3.4-2.8,6.7-4.3,10.1c-0.3,0.6-0.7,1.1-1.4,1
		c-0.4-0.1-0.9-0.5-1.2-0.9c-0.2-0.2-0.1-0.7,0.1-1c1.4-3.4,2.9-6.8,4.3-10.2c0.3-0.7,0.8-1.1,1.5-0.9C30.9,4.5,31.2,5,31.2,5.7z"/>
	<path class="st0" d="M18,10.8c0-1.6,0-3.3,0-4.9c0-1,0.5-1.6,1.3-1.6c0.8,0,1.4,0.6,1.4,1.6c0,3.3,0,6.6,0,9.9c0,1-0.5,1.7-1.3,1.7
		c-0.8,0-1.3-0.6-1.3-1.7C18,14.1,18,12.5,18,10.8z"/>
	<path class="st0" d="M88.9,7c-1.5,0-3,0-4.5,0c-0.9,0-1.5-0.5-1.5-1.3c0-0.8,0.6-1.4,1.5-1.4c3,0,6,0,9,0c0.9,0,1.5,0.5,1.5,1.3
		c0,0.8-0.5,1.3-1.5,1.3C91.8,7,90.4,7,88.9,7z"/>
	<path class="st0" d="M88.9,12.2c-1.5,0-3,0-4.5,0c-1,0-1.6-0.6-1.6-1.3c0-0.8,0.6-1.3,1.6-1.3c2.9,0,5.9,0,8.8,0
		c1,0,1.6,0.5,1.6,1.3c0,0.9-0.5,1.3-1.6,1.4C91.8,12.2,90.3,12.2,88.9,12.2z"/>
	<path class="st0" d="M88.9,14.8c1.5,0,2.9,0,4.4,0c1,0,1.6,0.5,1.6,1.3c0,0.9-0.5,1.4-1.6,1.4c-2.9,0-5.8,0-8.7,0
		c-1,0-1.7-0.5-1.6-1.3c0-0.8,0.6-1.3,1.7-1.3C86,14.7,87.5,14.8,88.9,14.8z"/>
	<path class="st0" d="M23.9,43.1c-1.2,0-2.3,0-3.5,0c-0.9,0-1.5-0.6-1.5-1.3c0-0.7,0.6-1.3,1.4-1.3c2.4,0,4.8,0,7.1,0
		c0.9,0,1.4,0.6,1.4,1.4c0,0.7-0.6,1.2-1.4,1.3C26.3,43.1,25.1,43.1,23.9,43.1z"/>
	<path class="st0" d="M23.9,50.2c-1.2,0-2.3,0-3.5,0c-0.9,0-1.5-0.6-1.5-1.3c0-0.7,0.6-1.3,1.4-1.3c2.4,0,4.8,0,7.1,0
		c0.9,0,1.4,0.6,1.4,1.4c0,0.8-0.6,1.3-1.5,1.3C26.2,50.2,25.1,50.2,23.9,50.2z"/>
	<path class="st0" d="M23.9,57.4c-1.2,0-2.3,0-3.5,0c-0.9,0-1.5-0.6-1.5-1.3c0-0.8,0.6-1.3,1.5-1.3c2.3,0,4.7,0,7.1,0
		c0.9,0,1.5,0.6,1.4,1.4c0,0.7-0.6,1.3-1.4,1.3C26.3,57.4,25.1,57.4,23.9,57.4z"/>
	<path class="st0" d="M13.4,50.2c-1.1,0-1.7-0.5-1.7-1.4c0-0.8,0.6-1.3,1.7-1.3c1.1,0,1.7,0.5,1.7,1.4
		C15.2,49.7,14.5,50.2,13.4,50.2z"/>
	<path class="st0" d="M13.4,57.4c-1.1,0-1.7-0.5-1.7-1.4c0-0.8,0.6-1.3,1.7-1.3c1.1,0,1.7,0.5,1.7,1.3
		C15.2,56.9,14.5,57.4,13.4,57.4z"/>
	<path class="st0" d="M13.4,43.1c-1.1,0-1.7-0.5-1.7-1.4c0-0.8,0.6-1.3,1.7-1.3c1.1,0,1.7,0.5,1.8,1.3
		C15.2,42.6,14.5,43.1,13.4,43.1z"/>
	<path class="st0" d="M66.9,41.7c8.6,0,14.7,5.8,15.2,13.4c0.5,7.1-4.9,13.6-12.1,14.6c-6.9,1-13.5-3.2-15.5-10
		c-0.1-0.5-0.1-1.1,0.1-1.5c0.2-0.3,0.8-0.6,1.2-0.6c0.7,0,1.1,0.4,1.2,1.1c0.5,2,1.5,3.7,3,5.2c3.5,3.4,8.9,4.3,13.2,2
		c4.4-2.3,6.9-7.2,6-12.1c-0.8-4.8-4.8-8.6-9.6-9.3c-5.6-0.8-10.9,2.6-12.5,8c-0.1,0.2-0.1,0.3-0.2,0.5c-0.3,0.8-0.9,1.2-1.7,0.9
		c-0.7-0.2-1.1-0.9-0.9-1.7c0.6-2.4,1.7-4.4,3.4-6.2C60.7,43.2,64.1,41.8,66.9,41.7z"/>
	<path class="st0" d="M68,75.4c3.9,0,7.7,0,11.6,0c2.9,0,5.3,2.1,5.5,4.8c0.3,3-1.5,5.5-4.3,6.2c-0.3,0.1-0.7,0.1-1.1,0.1
		c-7.8,0-15.7,0-23.5,0c-2.7,0-5-2.1-5.4-4.7c-0.4-2.7,1.1-5.3,3.7-6.1c0.6-0.2,1.3-0.3,2-0.3C60.4,75.3,64.2,75.4,68,75.4z M68,78
		c-3.8,0-7.5,0-11.3,0c-0.4,0-0.8,0-1.2,0.1c-1.4,0.4-2.2,1.7-2,3.2c0.2,1.4,1.4,2.4,3,2.4c7.6,0,15.2,0,22.9,0
		c1.9,0,3.2-1.2,3.2-2.9c0-1.7-1.3-2.9-3.2-2.9C75.6,78,71.8,78,68,78z"/>
</g>
</svg>
