<?xml version="1.0" encoding="utf-8"?>
<!-- Generator: Adobe Illustrator 27.3.1, SVG Export Plug-In . SVG Version: 6.00 Build 0)  -->
<svg version="1.1" id="Layer_1" xmlns="http://www.w3.org/2000/svg" xmlns:xlink="http://www.w3.org/1999/xlink" x="0px" y="0px"
	 viewBox="0 0 60 60" style="enable-background:new 0 0 60 60;" xml:space="preserve">
<style type="text/css">
	.st0{fill:#0000FF;}
</style>
<path class="st0" d="M22.6,21.2c0-4.1,3.3-7.4,7.4-7.4s7.4,3.3,7.4,7.4s-3.3,7.4-7.4,7.4S22.6,25.2,22.6,21.2z"/>
<path class="st0" d="M16.8,38.8c0-4.1,3.3-7.4,7.4-7.4h11.8c4.1,0,7.4,3.3,7.4,7.4s-3.3,7.4-7.4,7.4H24.1
	C20,46.2,16.8,42.9,16.8,38.8z"/>
<path class="st0" d="M43.5,44.2c1.1-1.5,1.7-3.4,1.7-5.4c0-5.1-4.2-9.3-9.3-9.3h9.8c4.1,0,7.4,3.3,7.4,7.4s-3.3,7.4-7.4,7.4H43.5z"
	/>
<path class="st0" d="M39.3,21.2c0-2.6-1.1-4.9-2.7-6.6c1-0.5,2.1-0.7,3.2-0.7c4.1,0,7.4,3.3,7.4,7.4s-3.3,7.4-7.4,7.4
	c-1.2,0-2.3-0.3-3.2-0.7C38.3,26.1,39.3,23.8,39.3,21.2z"/>
<path class="st0" d="M20.7,21.2c0,2.6,1.1,4.9,2.7,6.6c-1,0.5-2.1,0.7-3.2,0.7c-4.1,0-7.4-3.3-7.4-7.4s3.3-7.4,7.4-7.4
	c1.2,0,2.3,0.3,3.2,0.7C21.7,16.2,20.7,18.6,20.7,21.2z"/>
<path class="st0" d="M14.3,29.5c-4.1,0-7.4,3.3-7.4,7.4s3.3,7.4,7.4,7.4h2.2c-1.1-1.5-1.7-3.4-1.7-5.4c0-5.1,4.2-9.3,9.3-9.3H14.3z"
	/>
</svg>
