<svg width="495" height="120" viewBox="0 0 495 120" fill="none" xmlns="http://www.w3.org/2000/svg">
<g clip-path="url(#clip0_18_2)">
<path d="M58.41 22.39C70.26 22 78.32 26.01 81.57 29.26C76.15 33.48 71.03 40.43 67.46 47.84C66.18 46.56 62.64 44.34 56.22 45.16C54.26 45.41 48.41 46.07 42.21 51.6C40.08 53.5 38.64 56.05 37.48 58.83C36.32 61.61 35.74 64.62 35.74 67.87V119.75H12.94V38.66H0L9.74 22.39H35.75V28.93C37.33 28.09 39.09 27.28 41.04 26.5C42.99 25.71 44.98 25.02 47.02 24.41C49.06 23.81 51.05 23.32 53 22.95C54.95 22.58 56.76 22.45 58.43 22.39" fill="white"/>
<path d="M166.08 71.12C166.08 77.6 164.76 83.79 162.11 89.66C159.47 95.54 155.92 100.71 151.47 105.15C147.02 109.6 141.83 113.14 135.89 115.78C129.96 118.42 123.74 119.74 117.26 119.74C109.93 119.74 103.28 118.42 97.3 115.78C91.32 113.14 86.2 109.6 81.93 105.15C77.67 100.7 74.37 95.54 72.06 89.66C69.74 83.78 68.58 77.6 68.58 71.12C68.58 64.64 69.74 58.43 72.06 52.51C74.37 46.58 77.67 41.4 81.93 36.95C86.19 32.5 91.32 28.96 97.3 26.32C103.28 23.68 109.93 22.36 117.26 22.36C123.75 22.36 129.96 23.68 135.89 26.32C141.83 28.96 147.02 32.5 151.47 36.95C155.92 41.39 159.47 46.58 162.11 52.51C164.75 58.44 166.08 64.64 166.08 71.12ZM143.41 71.12C143.41 67.79 142.67 64.57 141.18 61.46C139.7 58.36 137.73 55.58 135.27 53.13C132.81 50.68 130.03 48.71 126.92 47.23C123.81 45.75 120.59 45.01 117.25 45.01C113.17 45.01 109.53 45.75 106.33 47.23C103.13 48.71 100.42 50.68 98.19 53.13C95.96 55.59 94.25 58.36 93.04 61.46C91.84 64.56 91.23 67.78 91.23 71.12C91.23 74.46 91.83 77.56 93.04 80.7C94.25 83.85 95.96 86.63 98.19 89.04C100.42 91.45 103.13 93.39 106.33 94.88C109.53 96.36 113.17 97.1 117.25 97.1C120.59 97.1 123.81 96.36 126.92 94.88C130.02 93.4 132.81 91.45 135.27 89.04C137.73 86.64 139.7 83.85 141.18 80.7C142.66 77.55 143.41 74.36 143.41 71.12Z" fill="white"/>
<path d="M255.3 22.36V119.74H232.63V113.46C229.82 114.83 224.72 118.85 212.44 119.22C210.51 119.28 204.61 119.11 197.1 116.32C191.9 114.39 187.59 110.97 183.75 107.11C179.9 103.25 176.84 98.79 174.57 93.72C172.3 88.65 171.16 83.28 171.16 77.61V22.36H193.83V77.61C193.83 80.03 194.39 82.4 195.5 84.73C196.61 87.05 198.07 89.12 199.88 90.94C201.69 92.75 203.75 94.22 206.07 95.34C208.39 96.45 210.75 97.01 213.16 97.01C215.57 97.01 217.96 96.45 220.33 95.34C222.69 94.22 224.78 92.76 226.59 90.94C228.4 89.13 229.86 87.06 230.97 84.73C232.08 82.4 232.64 80.03 232.64 77.61V22.36H255.31H255.3Z" fill="white"/>
<path d="M284.17 45.34V74.41C284.17 77.75 284.91 80.81 286.4 83.59C287.88 86.38 289.74 88.74 291.96 90.68C294.19 92.63 296.62 94.16 299.26 95.27C301.9 96.38 304.43 96.94 306.84 96.94H316.58V119.75H306.84C301.18 119.75 295.62 118.45 290.15 115.85C284.68 113.25 279.81 109.83 275.55 105.56C271.29 101.29 267.85 96.45 265.26 91.03C262.66 85.6 261.37 80.06 261.37 74.41V16.27H248.71L258.31 0H284.18V22.81H316.59V45.34H284.18H284.17Z" fill="white"/>
<path d="M488.86 74.84C485.13 70.09 478.28 66.31 468.52 63.59L453.3 59.21C447.47 57.62 445.38 56.08 444.66 55.07C443.57 53.56 443.04 52.07 443.04 50.53C443.04 48.36 444.05 46.39 446.04 44.67C448.06 42.94 451.02 42.06 454.83 42.06C458.01 42.06 460.89 42.82 463.35 44.3C464.79 45.17 466.07 46.44 467.17 48.09L467.55 48.61H493.51L492.96 46.28C492.77 45.49 492.01 42.7 490.32 39.64C488.41 36.21 485.77 33.2 482.49 30.71C479.21 28.23 475.23 26.27 470.67 24.91C466.13 23.55 461.14 22.86 455.84 22.86C450.54 22.86 445.51 23.52 440.89 24.81C436.25 26.11 432.14 28.03 428.71 30.5C425.08 32.99 422.18 36 420.1 39.43C418.01 42.89 416.94 46.69 416.94 50.71C416.94 57.12 419.38 62.63 424.17 67.09C428.9 71.49 435.46 74.84 443.69 77.06L456.1 80.34C460.83 81.64 464.11 83.16 465.85 84.86C467.56 86.54 468.39 88.5 468.39 90.85C468.39 93.69 467.04 95.94 464.37 97.53C461.57 99.2 458.36 100.05 454.83 100.05C449.14 100.05 444.46 96.76 442.7 95.35L442.33 95.06H415.43L415.85 96.05C417.19 99.24 421.09 107.18 428.22 111.98C435.39 116.8 444.42 119.25 455.08 119.25C460.73 119.25 466.02 118.5 470.81 117.02C475.62 115.54 479.8 113.47 483.25 110.86C486.71 108.25 489.47 105.19 491.46 101.76C493.47 98.31 494.49 94.52 494.49 90.5C494.49 84.87 492.6 79.61 488.86 74.86" fill="white"/>
<path d="M413.12 80.69C412.02 86.2 410.02 91.31 407.13 96.04C404.24 100.77 400.73 104.85 396.6 108.29C392.47 111.73 387.79 114.42 382.56 116.34C377.33 118.27 371.78 119.23 365.9 119.23C359.2 119.23 352.94 117.97 347.11 115.44C341.28 112.92 336.19 109.47 331.83 105.11C327.47 100.75 324.03 95.66 321.51 89.83C318.99 84 317.73 77.74 317.73 71.04C317.73 64.34 318.99 58.08 321.51 52.25C324.03 46.42 327.47 41.33 331.83 36.97C336.19 32.61 341.28 29.17 347.11 26.65C352.94 24.13 359.2 22.86 365.9 22.86C370.86 22.86 375.58 23.57 380.08 24.99C384.57 26.42 388.73 28.41 392.54 30.98C396.34 33.55 399.74 36.6 402.72 40.14C405.7 43.67 408.11 47.55 409.95 51.77C410.41 52.78 410.77 53.7 411.05 54.52L389.22 71.04H355.04L382.83 51.9C380.53 49.79 377.94 48.16 375.05 47.01C372.16 45.86 369.11 45.29 365.9 45.29C362.32 45.29 358.97 45.96 355.85 47.29C352.73 48.62 350 50.46 347.66 52.8C345.32 55.14 343.48 57.87 342.15 60.99C340.82 64.11 340.15 67.46 340.15 71.04C340.15 74.62 340.81 77.97 342.15 81.09C343.48 84.21 345.32 86.94 347.66 89.28C350 91.62 352.73 93.46 355.85 94.79C358.97 96.12 362.32 96.79 365.9 96.79C371.31 96.79 376.15 95.27 380.42 92.24C384.69 89.21 387.78 85.36 389.71 80.68H413.11L413.12 80.69Z" fill="white"/>
</g>
<defs>
<clipPath id="clip0_18_2">
<rect width="494.49" height="119.75" fill="white"/>
</clipPath>
</defs>
</svg>
