<?xml version="1.0" encoding="utf-8"?>
<!-- Generator: Adobe Illustrator 27.3.1, SVG Export Plug-In . SVG Version: 6.00 Build 0)  -->
<svg version="1.1" id="Layer_1" xmlns="http://www.w3.org/2000/svg" xmlns:xlink="http://www.w3.org/1999/xlink" x="0px" y="0px"
	 viewBox="0 0 401.8 379.6" style="enable-background:new 0 0 401.8 379.6;" xml:space="preserve">
<style type="text/css">
	.st0{fill:#FFFFFF;}
</style>
<g>
	<path class="st0" d="M342.4,290.4c0,9.6,0,18.6,0,27.7c0,13.7-7.8,21.5-21.6,21.5c-15.1,0-30.2,0-45.3,0c-1.3,0-2.7,0-4.4,0
		c0,8.5,0,16.6,0,24.7c0,7.4-1.1,8.5-8.4,8.5c-28.3,0-56.6,0-85,0c-7.1,0-8.2-1.1-8.2-8.3c0-8.1,0-16.2,0-24.9c-1.8,0-3.4,0-5,0
		c-40.9,0-81.8,0-122.8,0c-11.3,0-19-5.8-21-15.8c-0.3-1.7-0.4-3.5-0.4-5.2c0-80.6,0-161.2,0-241.8c0-12.6,8.1-20.8,20.8-20.9
		c5.9-0.1,11.7,0,18.1,0c0-1.4,0-2.6,0-3.8c0-8.5,0-17,0-25.4C59.4,15.6,67,7.6,78,6.8c1.1-0.1,2.2-0.1,3.4-0.1
		c92.6,0,185.2,0,277.7,0c2.7,0,5.5,0.2,8.1,0.9c8.5,2.3,14,9.8,14,19c0.1,17.8,0,35.7,0,53.5c0,62.7,0,125.5,0,188.2
		c0,14.3-7.7,22-21.9,22.1C353.9,290.4,348.3,290.4,342.4,290.4z M173,280.7c0.1-0.3,0.2-0.5,0.3-0.8c-0.5-0.3-1-0.6-1.6-0.8
		c-9.4-3.5-11.4-8.8-6.5-17.6c15.9-28.6,31.9-57.3,47.7-85.9c1.7-3,3.7-5.3,7.5-5.3c3.8,0,5.8,2.3,7.4,5.3
		c8.5,15.4,17,30.7,25.6,46.1c7.7,13.8,15.4,27.6,23,41.5c3.7,6.7,1.2,13-6,15.5c-1,0.4-2,0.8-2.9,1.1c1.2,0.7,2.4,0.9,3.5,0.9
		c29.4,0,58.9,0,88.3,0c9,0,12.3-3.4,12.3-12.5c0-61.6,0-123.3,0-184.9c0-1.3,0-2.7,0-4.4c-1.9,0-3.5,0-5.1,0
		c-59.3,0-118.5,0-177.8,0.1c-4.4,0-7.9-1.3-10.9-4.6c-5.7-6.2-11.6-12.4-17.7-18.3c-1.3-1.3-3.5-2.3-5.4-2.4
		c-13.3-0.2-26.7-0.1-40-0.1c-1.2,0-2.4,0-3.7,0c0,4.9,0,9.1,0,13.3c0,9.1-2.9,12-12.1,12c-2.7,0-5.5,0-8.2,0c-7.1,0-14.2,0-21.6,0
		c0,1.7,0,3.1,0,4.4c0,61.6,0,123.3,0,184.9c0,9.3,3.2,12.6,12.6,12.6c29.2,0,58.4,0,87.6,0C170.5,280.7,171.8,280.7,173,280.7z
		 M59.4,65.7c-5.9,0-11.3,0-16.8,0c-9,0-12.4,3.5-12.4,12.5c0,79.8,0,159.6,0,239.5c0,8.8,3.4,12.3,12.1,12.3c41,0,82.1,0,123.1,0
		c1.3,0,2.6,0,4.1,0c0-5.8-0.1-11.1,0-16.3c0.1-7,4.1-10.8,11-10.9c2.2,0,4.4,0,6.9,0c-0.3-2.5-0.4-4.4-0.7-6.2c-1.1-6-1.2-6-7.1-6
		c-32.8,0-65.6,0-98.4,0c-14.2,0-21.9-7.8-21.9-22.1c0-65.9,0-131.7,0-197.6C59.4,69.4,59.4,67.9,59.4,65.7z M101.4,68.9
		c0-5,0-9.8,0-14.7c0-7.1,3.4-10.5,10.6-10.5c14.8,0,29.7,0.1,44.5-0.1c3.9,0,6.9,1.3,9.6,4.2c5.9,6.3,12,12.4,17.9,18.6
		c1.8,1.9,3.5,2.7,6.2,2.7c59.1-0.1,118.3-0.1,177.4-0.1c1.3,0,2.6,0,4.1,0c0-14.8,0.1-29-0.1-43.2c0-2-1.2-4.3-2.5-6.1
		c-2.3-3.1-5.9-3.3-9.5-3.3c-92.8,0-185.6,0-278.5,0c-1.1,0-2.3,0-3.4,0.2c-4.7,0.6-8.5,4.2-8.5,8.9c-0.1,14.2,0,28.4,0.1,42.6
		c0,0.2,0.3,0.4,0.4,0.6C80.1,68.9,90.5,68.9,101.4,68.9z M268.4,268.9c-14.2-25.6-28.2-50.8-42.2-76.1c-0.3,0.1-0.6,0.2-0.9,0.3
		c0,7.2-0.1,14.4,0.1,21.6c0,0.9,1.3,1.9,2.2,2.5c6.3,3.9,9.3,10.6,7.4,17.2c-1.8,6.6-7.9,11.3-14.6,11.3c-7.2,0-12.7-4.1-14.6-11.1
		c-2-7,0.9-13.5,7.3-17.6c1.2-0.7,2.2-2.6,2.2-4c0.3-5.6,0.1-11.2,0.1-16.8c0-1.1-0.2-2.2-0.2-3.3c-0.3,0-0.5,0-0.8,0
		c-14,25.2-28,50.4-42,75.7c16.3,5.9,24.4,17.2,24.9,33.9c15.5,0,30.7,0,46,0C244,285.7,252,274.5,268.4,268.9z M261.2,312.7
		c-27.3,0-54.2,0-81.4,0c0,16.8,0,33.5,0,50.1c27.2,0,54.2,0,81.4,0C261.2,346,261.2,329.5,261.2,312.7z M332.6,291
		c-0.6-0.3-0.7-0.5-0.8-0.5c-24.7-0.1-49.4-0.1-74.1-0.1c-0.8,0-2.2,0.6-2.3,1.2c-1,3.4-1.7,7-2.7,11c2.7,0,4.4-0.1,6,0
		c1.7,0.1,3.5,0,5.2,0.5c4.5,1.2,7.1,5.1,7.1,10.6c0.1,5.3,0,10.6,0,16c17.9,0,35.2,0.1,52.6-0.1c4.9,0,8.8-4,8.9-8.9
		C332.8,310.9,332.6,301,332.6,291z M225.7,230.4c0-3-2.5-5.5-5.5-5.4c-3,0.1-5.3,2.6-5.2,5.6c0,3.3,2.2,5.4,5.4,5.3
		C223.4,235.9,225.7,233.4,225.7,230.4z"/>
	<path class="st0" d="M304.1,205.7c-7-29.9-34-55.6-62.9-61.6c-0.2,0.9-0.3,1.9-0.5,2.8c-0.8,4.9-4.2,8.2-9.1,8.3
		c-7.5,0.2-15,0.2-22.5,0c-5.6-0.2-8.3-3.5-9.5-10.9c-24.5,3.9-54.9,28-62.9,61.3c1.7,0.1,3.4,0.2,5.1,0.4c4.6,0.6,8,3.6,8.2,8.2
		c0.3,8,0.3,16,0,23.9c-0.2,5-3.9,8.3-8.8,8.4c-7.6,0.2-15.2,0.2-22.8,0c-5.3-0.1-8.9-4-9-9.5c-0.1-7.1-0.1-14.2,0-21.3
		c0.1-5.9,3.5-9.5,9.5-9.9c7.3-0.5,7.2-0.6,9.6-7.6c8.2-24.4,23.7-42.7,46.2-55.1c0.6-0.4,1.3-0.7,2.5-1.5c-1.2-0.2-1.8-0.4-2.4-0.4
		c-13.6,0-27.2,0-40.8-0.1c-2.2,0-3.3,0.6-4.2,2.7c-3.8,7.9-13.1,11.9-21.8,9.7c-8.6-2.2-14.6-10.1-14.4-19.1
		c0.2-9,6.2-16.4,14.9-18.2c9.3-1.9,18.4,2.2,21.5,10.6c1.5,4,3.5,4.6,7.3,4.6c19.3-0.2,38.7-0.1,58-0.1c1.4,0,2.7,0,4.6,0
		c0-2.8-0.1-5.2,0-7.7c0.3-5.4,3.5-9.1,8.8-9.3c7.7-0.3,15.5-0.3,23.2,0c5.3,0.2,8.5,4,8.7,9.4c0.1,2.3,0,4.7,0,7.3
		c1.6,0.1,2.8,0.2,4,0.2c20.2,0,40.4,0,60.6,0.1c2.5,0,3.8-0.5,4.8-3.3c2.9-8.6,11.5-13.6,20.4-12.3c9.7,1.4,16.3,8.2,17,17.5
		c0.7,9-4.7,17.1-13.4,19.7c-9.1,2.7-18.1-1-22.8-9.1c-0.7-1.2-2.2-2.7-3.3-2.7c-14.5-0.2-28.9-0.1-44.4-0.1c1.5,1.1,2.2,1.6,2.9,2
		c23.8,13.4,39.5,33.1,47.1,59.3c0.7,2.5,1.6,3.6,4.3,3.3c1.8-0.2,3.7-0.1,5.6,0.1c4.9,0.5,8.3,4,8.4,8.9c0.2,7.6,0.2,15.2,0,22.8
		c-0.1,5-3.9,8.7-8.9,8.8c-7.6,0.2-15.2,0.2-22.8,0c-4.8-0.1-8.6-3.2-8.8-8c-0.4-8.2-0.4-16.5,0-24.7c0.2-4.6,3.8-7.5,8.5-8
		C301.1,205.9,302.5,205.9,304.1,205.7z M231.1,124.5c-7.6,0-14.5,0-21.3,0c0,7.2,0,14.1,0,21c7.4,0,14.4,0,21.3,0
		C231.1,138.4,231.1,131.6,231.1,124.5z M119.2,236.9c7.4,0,14.4,0,21.2,0c0-7.3,0-14,0-20.9c-7.4,0-14.4,0-21.2,0
		C119.2,223.3,119.2,230.2,119.2,236.9z M322,216c-7.3,0-14.3,0-21.3,0c0,7.2,0,14.1,0,21c7.3,0,14.3,0,21.3,0
		C322,229.7,322,222.9,322,216z M112.5,144.3c5.7,0.1,9.5-3.6,9.6-9.1c0.1-5.2-4-9.6-9.2-9.8c-5.2-0.1-9.6,4-9.7,9.3
		C103.2,140,107.3,144.2,112.5,144.3z M327.6,144.3c5.7,0.2,9.6-3.3,9.8-8.9c0.2-5.4-3.6-9.8-8.9-10c-5.2-0.3-9.7,3.8-10,9
		C318.2,139.5,322.4,144.1,327.6,144.3z"/>
	<path class="st0" d="M299.6,42.7c0-7.7,6.2-13.9,13.8-13.8c7.6,0.1,13.8,6.4,13.6,14c-0.1,7.5-6.2,13.5-13.7,13.6
		C305.8,56.5,299.6,50.4,299.6,42.7z M317.9,43.5c0-0.6,0-1.2-0.1-1.7c-1.6-1-3.2-2.8-4.7-2.7c-1.3,0.1-3.2,2.2-3.5,3.7
		c-0.5,2.4,1.4,4.2,3.8,3.8C315,46.3,316.4,44.6,317.9,43.5z"/>
	<path class="st0" d="M293.8,42.8c0,7.6-6.3,13.8-13.9,13.7c-7.4-0.1-13.5-6.3-13.6-13.7c-0.1-7.5,6.3-13.9,13.8-13.9
		C287.6,28.9,293.8,35.2,293.8,42.8z M284.6,43.8c0-0.6,0-1.2,0.1-1.8c-1.5-1.1-3-3-4.5-3c-1.3,0-3.4,2-3.8,3.5
		c-0.6,2.3,1.1,4.3,3.5,4.1C281.4,46.4,283,44.8,284.6,43.8z"/>
	<path class="st0" d="M346.7,56.5c-7.5,0.1-13.9-6.2-13.9-13.7c0-7.5,6.3-13.9,13.9-13.8c7.4,0,13.6,6.2,13.7,13.6
		C360.4,50.1,354.2,56.4,346.7,56.5z M351.1,43.7c0-0.6,0-1.1,0-1.7c-1.5-1.1-3.1-3-4.6-3c-1.4,0-3.4,2-3.8,3.5
		c-0.6,2.3,1.2,4.3,3.6,4C348,46.4,349.5,44.7,351.1,43.7z"/>
</g>
</svg>
