<?xml version="1.0" encoding="utf-8"?>
<!-- Generator: Adobe Illustrator 27.3.1, SVG Export Plug-In . SVG Version: 6.00 Build 0)  -->
<svg version="1.1" id="Layer_1" xmlns="http://www.w3.org/2000/svg" xmlns:xlink="http://www.w3.org/1999/xlink" x="0px" y="0px"
	 viewBox="0 0 32 32" style="enable-background:new 0 0 32 32;" xml:space="preserve">
<style type="text/css">
	.st0{fill:#FFFFFF;}
</style>
<g>
	<path class="st0" d="M1.1,6.5c0-0.1,0-0.1,0-0.2C1.3,6,1.5,5.7,1.8,5.4c1.3-1.3,2.7-2.6,4-4c0.6-0.6,1-0.6,1.6,0
		C10.2,4.2,13,7,15.9,9.9c0.1,0.1,0.2,0.2,0.3,0.3c0.1-0.1,0.2-0.3,0.3-0.4c2.8-2.8,5.6-5.6,8.4-8.4c0.5-0.5,1-0.5,1.5,0
		c1.4,1.4,2.8,2.8,4.3,4.3c0.6,0.6,0.6,1,0,1.6c-2.8,2.8-5.6,5.6-8.4,8.4c-0.2,0.1-0.2,0.2-0.4,0.3c0.1,0.1,0.2,0.1,0.3,0.2
		c2.8,2.8,5.7,5.6,8.5,8.5c0.5,0.5,0.5,1,0,1.5c-1.4,1.4-2.7,2.7-4.1,4.1c-0.3,0.3-0.6,0.5-0.9,0.7c-0.1,0-0.1,0-0.2,0
		c-0.4-0.1-0.6-0.4-0.9-0.6c-2.8-2.8-5.5-5.5-8.3-8.3c-0.1-0.1-0.2-0.2-0.3-0.3c-0.1,0.1-0.2,0.2-0.3,0.3c-2.8,2.8-5.5,5.5-8.3,8.3
		c-0.3,0.3-0.5,0.5-0.9,0.6c-0.1,0-0.1,0-0.2,0c-0.3-0.2-0.6-0.4-0.9-0.7c-1.3-1.3-2.6-2.6-3.9-3.9c-0.3-0.3-0.4-0.6-0.7-0.9
		c0-0.1,0-0.1,0-0.2C1,25,1.2,24.7,1.4,24.4c2.8-2.8,5.5-5.5,8.3-8.3c0.1-0.1,0.2-0.2,0.3-0.3c-0.1-0.1-0.2-0.2-0.3-0.3
		C6.9,12.7,4.2,10,1.4,7.2C1.5,7.2,1.3,6.8,1.1,6.5z"/>
</g>
</svg>
