<?xml version="1.0" encoding="utf-8"?>
<!-- Generator: Adobe Illustrator 27.3.1, SVG Export Plug-In . SVG Version: 6.00 Build 0)  -->
<svg version="1.1" id="Layer_1" xmlns="http://www.w3.org/2000/svg" xmlns:xlink="http://www.w3.org/1999/xlink" x="0px" y="0px"
	 viewBox="0 0 32 32" style="enable-background:new 0 0 32 32;" xml:space="preserve">
<style type="text/css">
	.st0{fill:#0000FF;}
	.st1{fill:#FF0000;}
</style>
<g>
	<path class="st1" d="M1,6.5c0-0.1,0-0.1,0-0.2c0.2-0.3,0.4-0.6,0.7-0.9C3,4.1,4.4,2.8,5.7,1.4c0.6-0.6,1-0.6,1.6,0
		c2.8,2.8,5.6,5.6,8.5,8.5c0.1,0.1,0.2,0.2,0.3,0.3c0.1-0.1,0.2-0.3,0.3-0.4C19.2,7,22,4.2,24.8,1.4c0.5-0.5,1-0.5,1.5,0
		c1.4,1.4,2.8,2.8,4.3,4.3c0.6,0.6,0.6,1,0,1.6c-2.8,2.8-5.6,5.6-8.4,8.4C22,15.8,22,15.9,21.8,16c0.1,0.1,0.2,0.1,0.3,0.2
		c2.8,2.8,5.7,5.6,8.5,8.5c0.5,0.5,0.5,1,0,1.5c-1.4,1.4-2.7,2.7-4.1,4.1c-0.3,0.3-0.6,0.5-0.9,0.7c-0.1,0-0.1,0-0.2,0
		c-0.4-0.1-0.6-0.4-0.9-0.6c-2.8-2.8-5.5-5.5-8.3-8.3c-0.1-0.1-0.2-0.2-0.3-0.3c-0.1,0.1-0.2,0.2-0.3,0.3c-2.8,2.8-5.5,5.5-8.3,8.3
		c-0.3,0.3-0.5,0.5-0.9,0.6c-0.1,0-0.1,0-0.2,0c-0.3-0.2-0.6-0.4-0.9-0.7c-1.3-1.3-2.6-2.6-3.9-3.9c-0.3-0.3-0.4-0.6-0.7-0.9
		c0-0.1,0-0.1,0-0.2c0.2-0.3,0.4-0.6,0.6-0.9c2.8-2.8,5.5-5.5,8.3-8.3c0.1-0.1,0.2-0.2,0.3-0.3c-0.1-0.1-0.2-0.2-0.3-0.3
		c-2.8-2.8-5.5-5.5-8.3-8.3C1.4,7.2,1.2,6.8,1,6.5z"/>
</g>
</svg>
